<?xml version="1.0" encoding="UTF-8" standalone="no"?>
<!-- Created with Inkscape (http://www.inkscape.org/) -->

<svg
   xmlns:dc="http://purl.org/dc/elements/1.1/"
   xmlns:cc="http://creativecommons.org/ns#"
   xmlns:rdf="http://www.w3.org/1999/02/22-rdf-syntax-ns#"
   xmlns:svg="http://www.w3.org/2000/svg"
   xmlns="http://www.w3.org/2000/svg"
   xmlns:xlink="http://www.w3.org/1999/xlink"
   xmlns:sodipodi="http://sodipodi.sourceforge.net/DTD/sodipodi-0.dtd"
   xmlns:inkscape="http://www.inkscape.org/namespaces/inkscape"
   width="76.85199"
   height="77.151932"
   id="svg3760"
   version="1.1"
   inkscape:version="0.48.1 "
   sodipodi:docname="FIRE.svg">
  <defs
     id="defs3762">
    <linearGradient
       inkscape:collect="always"
       id="linearGradient3130">
      <stop
         style="stop-color:#fd0201;stop-opacity:1"
         offset="0"
         id="stop3132" />
      <stop
         style="stop-color:#fe6c6c;stop-opacity:1"
         offset="1"
         id="stop3134" />
    </linearGradient>
    <linearGradient
       id="linearGradient4306">
      <stop
         id="stop4308"
         offset="0"
         style="stop-color:#9f863f;stop-opacity:1" />
      <stop
         style="stop-color:#332815;stop-opacity:1"
         offset="1"
         id="stop4310" />
      <stop
         id="stop4312"
         offset="1"
         style="stop-color:#e9e560;stop-opacity:1" />
    </linearGradient>
    <linearGradient
       id="linearGradient4296">
      <stop
         id="stop4298"
         offset="0"
         style="stop-color:#f0bf7a;stop-opacity:0.91071427;" />
      <stop
         style="stop-color:#f0bf7a;stop-opacity:0.45490196;"
         offset="0.64173013"
         id="stop4300" />
      <stop
         id="stop4302"
         offset="1"
         style="stop-color:#f0bf7a;stop-opacity:0;" />
    </linearGradient>
    <linearGradient
       id="linearGradient4230">
      <stop
         style="stop-color:#f0bf7a;stop-opacity:0.91071427;"
         offset="0"
         id="stop4232" />
      <stop
         id="stop4292"
         offset="0.5"
         style="stop-color:#f0bf7a;stop-opacity:0.45490196;" />
      <stop
         style="stop-color:#f0bf7a;stop-opacity:0;"
         offset="1"
         id="stop4234" />
    </linearGradient>
    <linearGradient
       id="linearGradient3111">
      <stop
         style="stop-color:#f3c87d;stop-opacity:0.7589286;"
         offset="0"
         id="stop3113" />
      <stop
         id="stop3119"
         offset="0.91352373"
         style="stop-color:#d69c45;stop-opacity:1" />
      <stop
         style="stop-color:#e5ff6a;stop-opacity:1"
         offset="1"
         id="stop3115" />
    </linearGradient>
    <linearGradient
       id="linearGradient3101">
      <stop
         style="stop-color:#a5864d;stop-opacity:1"
         offset="0"
         id="stop3103" />
      <stop
         id="stop4238"
         offset="0.78602821"
         style="stop-color:#332815;stop-opacity:1" />
      <stop
         style="stop-color:#1a1911;stop-opacity:1"
         offset="1"
         id="stop3105" />
    </linearGradient>
    <radialGradient
       inkscape:collect="always"
       xlink:href="#linearGradient4230"
       id="radialGradient4236"
       cx="306.59958"
       cy="555.36737"
       fx="306.59958"
       fy="555.36737"
       r="6.0054863"
       gradientTransform="matrix(0.60886416,0.50796393,-0.90996045,1.0907119,625.30825,-205.98784)"
       gradientUnits="userSpaceOnUse" />
    <radialGradient
       inkscape:collect="always"
       xlink:href="#linearGradient4306"
       id="radialGradient4304"
       cx="327.57648"
       cy="574.45367"
       fx="327.57648"
       fy="574.45367"
       r="39.671756"
       gradientTransform="matrix(-1.8589783e-6,1.0770613,-1.1551438,-2.9470962e-6,991.28513,221.58125)"
       gradientUnits="userSpaceOnUse" />
    <linearGradient
       y2="22.401928"
       x2="106.24998"
       y1="22.901928"
       x1="143.49998"
       gradientTransform="matrix(1.2113408,0,0,1.2113407,182.53634,525.19736)"
       gradientUnits="userSpaceOnUse"
       id="linearGradient6058"
       xlink:href="#linearGradient5507-3"
       inkscape:collect="always" />
    <linearGradient
       id="linearGradient5507-3">
      <stop
         style="stop-color:#ff0000;stop-opacity:1;"
         offset="0"
         id="stop5509-1" />
      <stop
         style="stop-color:#ff6600;stop-opacity:1"
         offset="1"
         id="stop5511-9" />
    </linearGradient>
    <linearGradient
       y2="22.401928"
       x2="106.24998"
       y1="22.901928"
       x1="143.49998"
       gradientTransform="matrix(1.2113408,0,0,1.2113407,182.53634,525.19736)"
       gradientUnits="userSpaceOnUse"
       id="linearGradient7449"
       xlink:href="#linearGradient5507-3"
       inkscape:collect="always" />
    <linearGradient
       id="linearGradient7451">
      <stop
         style="stop-color:#ff0000;stop-opacity:1;"
         offset="0"
         id="stop7453" />
      <stop
         style="stop-color:#ff6600;stop-opacity:1"
         offset="1"
         id="stop7455" />
    </linearGradient>
    <linearGradient
       y2="22.401928"
       x2="106.24998"
       y1="22.901928"
       x1="143.49998"
       gradientTransform="matrix(0.44916455,0,0,0.44916448,275.38975,544.3914)"
       gradientUnits="userSpaceOnUse"
       id="linearGradient7459"
       xlink:href="#linearGradient5507-3"
       inkscape:collect="always" />
    <linearGradient
       id="linearGradient3111-5">
      <stop
         style="stop-color:#d69c45;stop-opacity:1"
         offset="0"
         id="stop3113-4" />
      <stop
         id="stop3119-9"
         offset="0.91352373"
         style="stop-color:#d69c45;stop-opacity:1" />
      <stop
         style="stop-color:#e5ff6a;stop-opacity:1"
         offset="1"
         id="stop3115-5" />
    </linearGradient>
    <linearGradient
       id="linearGradient3101-4">
      <stop
         style="stop-color:#a5864d;stop-opacity:1"
         offset="0"
         id="stop3103-8" />
      <stop
         id="stop4238-2"
         offset="0.78602821"
         style="stop-color:#332815;stop-opacity:1" />
      <stop
         style="stop-color:#1a1911;stop-opacity:1"
         offset="1"
         id="stop3105-1" />
    </linearGradient>
    <linearGradient
       id="linearGradient4296-8">
      <stop
         id="stop4298-3"
         offset="0"
         style="stop-color:#f0bf7a;stop-opacity:0.91071427;" />
      <stop
         style="stop-color:#f0bf7a;stop-opacity:0.45490196;"
         offset="0.64173013"
         id="stop4300-1" />
      <stop
         id="stop4302-4"
         offset="1"
         style="stop-color:#f0bf7a;stop-opacity:0;" />
    </linearGradient>
    <linearGradient
       inkscape:collect="always"
       xlink:href="#linearGradient3130"
       id="linearGradient3374"
       x1="400.00031"
       y1="605.45605"
       x2="367.8027"
       y2="473.53757"
       gradientUnits="userSpaceOnUse"
       gradientTransform="matrix(1.0071975,0,0,1.0071975,-72.453521,-3.847163)" />
  </defs>
  <sodipodi:namedview
     id="base"
     pagecolor="#ffffff"
     bordercolor="#666666"
     borderopacity="1.0"
     inkscape:pageopacity="0.0"
     inkscape:pageshadow="2"
     inkscape:zoom="2.3449828"
     inkscape:cx="187.16734"
     inkscape:cy="92.218023"
     inkscape:document-units="px"
     inkscape:current-layer="g4793"
     showgrid="false"
     fit-margin-top="0"
     fit-margin-left="0"
     fit-margin-right="0"
     fit-margin-bottom="0"
     inkscape:window-width="1280"
     inkscape:window-height="780"
     inkscape:window-x="-8"
     inkscape:window-y="-8"
     inkscape:window-maximized="1"
     inkscape:snap-global="true"
     showguides="true"
     inkscape:guide-bbox="true" />
  <metadata
     id="metadata3765">
    <rdf:RDF>
      <cc:Work
         rdf:about="">
        <dc:format>image/svg+xml</dc:format>
        <dc:type
           rdf:resource="http://purl.org/dc/dcmitype/StillImage" />
        <dc:title />
      </cc:Work>
    </rdf:RDF>
  </metadata>
  <g
     inkscape:label="Layer 1"
     inkscape:groupmode="layer"
     id="layer1"
     transform="translate(-288.98475,-535.52559)">
    <g
       id="g4793"
       transform="matrix(0.96766596,0,0,0.94944363,10.181651,28.771222)">
      <g
         id="g3053">
        <text
           transform="scale(0.99053965,1.0095507)"
           sodipodi:linespacing="125%"
           id="text5503"
           y="555.23956"
           x="317.94806"
           style="font-size:17.96657753px;font-style:normal;font-weight:normal;line-height:125%;letter-spacing:0px;word-spacing:0px;fill:url(#linearGradient7459);fill-opacity:1;stroke:none;font-family:StoneSerITCStd Medium;-inkscape-font-specification:StoneSerITCStd Medium"
           xml:space="preserve"><tspan
             style="font-size:2.69498682px;fill:url(#linearGradient7459);fill-opacity:1"
             y="555.23956"
             x="317.94806"
             id="tspan5505"
             sodipodi:role="line">Created by Falzar FZ</tspan></text>
        <g
           id="g3021"
           transform="translate(0.16646001,0.0258127)">
          <path
             inkscape:connector-curvature="0"
             id="path3048"
             d="m 325.12487,533.76805 c -12.04619,0.12786 -23.83129,6.47825 -30.10708,16.8382 -9.98334,15.47574 -9.2208,37.5796 3.10803,51.55872 7.91058,8.9416 20.14109,13.52621 31.99522,12.68526 12.96871,-0.25474 25.57911,-7.74217 31.66968,-19.25774 5.39871,-9.43832 6.92244,-20.84042 4.7256,-31.45827 -2.298,-13.99137 -13.54381,-26.2257 -27.38604,-29.44165 -4.60618,-0.8471 -9.33291,-0.96193 -14.00541,-0.92452 z"
             style="fill:#010101;fill-opacity:1;stroke:none" />
          <path
             sodipodi:nodetypes="cccccccccccccccccccccccccc"
             inkscape:connector-curvature="0"
             id="path3340"
             d="m 327.84813,534.53552 c -4.59292,0.16372 -9.26598,0.85527 -13.51495,2.68768 -3.07226,0.50757 -5.45724,0.74277 -7.94154,2.36021 -5.80161,3.30499 -9.67699,8.42984 -12.41022,13.17317 -0.88719,2.08954 -2.42914,4.79267 -2.9089,6.99894 -0.0836,3.85619 -0.0301,6.9882 -0.10748,10.84454 -1.63238,0.89195 -1.74951,2.85978 -1.69832,4.52815 0.12374,1.78475 -0.33294,3.78972 0.47295,5.42648 0.97302,0.71321 1.94876,-1.35175 2.85921,-0.75226 1.47897,2.28297 1.25713,5.25338 2.40776,7.69786 0.39741,2.80162 1.72671,5.29057 2.41491,7.77089 1.34993,2.04492 0.65698,4.79552 1.87748,6.84336 9.25418,8.35849 18.6273,11.98821 29.99925,12.57531 9.24653,0.0169 16.75403,-3.05833 23.647,-8.43561 5.5293,-4.15858 8.47974,-10.5076 11.14101,-16.02245 0.54076,-2.04189 0.0557,-4.26426 0.73091,-6.23717 0.86519,-0.92159 2.256,-1.96364 2.14979,-3.3669 -0.42927,-1.70602 -0.099,-3.56341 -0.57327,-5.30231 -0.25052,-4.07705 0.66416,-8.29081 -0.74526,-12.25523 -3.01964,-8.30371 -7.50458,-10.154 -10.64143,-13.27041 4.61657,1.55742 5.47974,2.93892 7.24212,4.20461 0.28821,0.23756 0.37567,-0.15932 -0.026,-1.17367 -4.31691,-5.96816 -8.66944,-10.698 -14.97681,-13.76704 -5.23106,-2.96794 -13.11318,-4.62076 -18.55978,-4.54277 -0.2796,-0.005 -0.55896,0.008 -0.83842,0.0146 z"
             style="fill:url(#linearGradient3374);fill-opacity:1;stroke:none" />
          <g
             style="fill:#ffffff;fill-opacity:1"
             transform="translate(-85.048806,0.17648662)"
             id="g3305">
            <g
               style="fill:#ffffff;fill-opacity:1"
               transform="translate(-0.16646104,-0.02581481)"
               id="g3166">
              <path
                 inkscape:connector-curvature="0"
                 id="path3164-8"
                 d="m 376.62342,559.299 c 1.74826,-5.16178 9.04832,-15.08384 14.87838,-18.05144 -4.41084,5.11502 -8.60514,12.71145 -9.6923,16.63909 5.04005,-9.49183 8.87882,-12.57126 12.76837,-19.75792 -7.05571,2.29047 -16.27173,12.73613 -17.95445,21.17027 z"
                 style="fill:#ff7372;fill-opacity:1;stroke:none"
                 sodipodi:nodetypes="ccccc" />
              <path
                 inkscape:connector-curvature="0"
                 id="path3164-4"
                 d="m 396.87984,546.6836 c -3.93725,3.46935 -4.35833,7.04915 -2.89245,10.67556 0.0661,-4.47367 0.60938,-7.12782 2.89245,-10.67556 z"
                 style="fill:#ff706f;fill-opacity:1;stroke:none"
                 sodipodi:nodetypes="ccc" />
              <path
                 inkscape:connector-curvature="0"
                 id="path3164-0"
                 d="m 411.5345,613.95862 c 3.13085,0.24632 18.21025,1.42613 31.75321,-13.11965 4.63617,-5.2262 4.7973,-10.96021 6.05566,-24.98307 0.48837,-4.41622 0.5854,-4.72402 2.52977,-8.79962 -1.88141,1.68444 -3.04,2.73107 -4.54039,6.88008 -1.36818,15.75402 -1.76998,20.64751 -6.95553,27.27147 -7.94008,8.12774 -15.97501,11.37425 -28.84272,12.75079 z"
                 style="fill:#ff7274;fill-opacity:1;stroke:none"
                 sodipodi:nodetypes="ccccccc" />
              <path
                 inkscape:connector-curvature="0"
                 id="path3164-6"
                 d="m 414.35729,564.7625 c -1.59038,1.99282 -2.78319,5.82691 -0.64719,6.34685 2.45298,0.5971 3.79664,-9.53869 2.70583,-9.67881 -1.53532,0.43986 -1.8188,1.90932 -2.05864,3.33196 z"
                 style="fill:#ff5d5e;fill-opacity:1;stroke:none"
                 sodipodi:nodetypes="cccc" />
            </g>
            <path
               inkscape:connector-curvature="0"
               id="path3152"
               d="m 413.09475,552.42673 c -2.47275,1.03675 -1.76603,5.52066 -1.77778,6.80641 -0.53759,5.98855 -6.15103,11.79725 -21.09789,12.74287 -1.35966,1.84195 0.323,4.62913 3.17477,4.81626 8.67441,-0.088 15.14283,-3.54565 20.08325,-11.52646 4.95612,3.69252 12.92695,8.41453 17.88395,12.04443 1.87332,0.38561 3.32615,0.11902 5.53574,-1.43387 1.91012,-1.3424 3.56852,-3.17458 1.68456,-4.13944 -6.84915,-0.80984 -9.78865,-2.29997 -14.77409,-4.62585 -2.08462,-1.43011 -9.18312,-4.90121 -9.18312,-4.90121 0,0 -0.13527,-1.64435 0.11366,-5.01976 -0.10783,-1.20275 1.22608,-4.69434 -1.64305,-4.76338 z"
               style="fill:#ffffff;fill-opacity:1;stroke:none"
               sodipodi:nodetypes="ccccccsccccc" />
            <path
               inkscape:connector-curvature="0"
               id="path3158"
               d="m 421.9692,579.82771 c -0.50487,3.26665 1.6573,6.09256 4.52375,7.02427 1.38682,0.003 4.3524,-1.33226 4.06899,-3.84527 -3.00215,-0.19872 -5.65128,-1.32345 -8.59274,-3.179 z"
               style="fill:#ffffff;fill-opacity:1;stroke:none"
               sodipodi:nodetypes="cccc" />
            <path
               inkscape:connector-curvature="0"
               id="path3160"
               d="m 403.59646,580.56606 c -1.63574,0.98673 -3.5693,1.10551 -6.98286,1.2716 -1.28617,2.12799 0.53204,5.92736 3.32039,5.7017 1.77131,-1.35509 4.85479,-4.3767 5.01074,-6.60413 0.0491,-0.70057 -1.0045,-0.57655 -1.34827,-0.36917 z"
               style="fill:#ffffff;fill-opacity:1;stroke:none"
               sodipodi:nodetypes="sccss" />
            <path
               inkscape:connector-curvature="0"
               id="path3162"
               d="m 396.32901,559.47564 c -0.51575,2.96055 2.22858,6.11791 5.17461,3.61614 1.17565,-1.09055 4.70902,-4.29875 2.87134,-5.58447 -5.60861,2.70799 -6.66351,0.23693 -8.04595,1.96833 z"
               style="fill:#ffffff;fill-opacity:1;stroke:none"
               sodipodi:nodetypes="cccc" />
            <path
               inkscape:connector-curvature="0"
               id="path3164"
               d="m 422.26189,557.63036 c -1.96987,0.0521 1.31488,6.00094 3.79239,6.34686 2.49863,0.34886 5.81723,-2.7225 4.12877,-4.08083 -5.09268,-0.31428 -4.64338,-0.94535 -7.92116,-2.26603 z"
               style="fill:#ffffff;fill-opacity:1;stroke:none"
               sodipodi:nodetypes="cscc" />
            <path
               inkscape:connector-curvature="0"
               id="path3152-0"
               d="m 412.99097,574.23099 c -2.47275,1.03675 -1.76603,5.52066 -1.77778,6.80641 -0.53759,5.98855 -10.93213,13.1895 -25.87899,14.13512 -1.35966,1.84195 0.323,4.62913 3.17477,4.81626 6.90996,0.60812 18.10256,-2.96555 24.86435,-12.74468 4.95612,3.69252 14.57757,10.21285 19.53457,13.84275 1.87332,0.38561 4.19372,0.2831 6.40331,-1.26979 1.91011,-1.3424 3.32704,-3.33866 1.44308,-4.30352 -7.75984,-0.28775 -11.83769,-3.51818 -16.42471,-5.96008 -2.08462,-1.43011 -9.80921,-5.53933 -9.80921,-5.53933 0,0 -0.13527,-1.64435 0.11366,-5.01976 -0.10783,-1.20275 1.22608,-4.69434 -1.64305,-4.76338 z"
               style="fill:#ffffff;fill-opacity:1;stroke:none"
               sodipodi:nodetypes="ccccccsccccc" />
          </g>
        </g>
        <g
           style="fill:#ffffff;fill-opacity:1"
           transform="translate(-151.38091,-1.2613928)"
           id="g3095">
          <path
             style="fill:#ffffff;stroke:none;fill-opacity:1"
             d="m 177.70418,7.1856829 c -2.03598,0.3586722 -4.13403,0.2012398 -6.1824,0.3313869 -0.11235,0.3415885 -0.0356,0.7643321 -0.0801,1.1354718 0.22316,0.2385955 0.69269,0.02933 1.00933,0.091885 0.61247,-0.00827 1.22495,-0.015918 1.83743,-0.023835 0.0621,0.6671412 0.0921,1.3366924 0.12854,2.0055894 -1.05351,0.01716 -2.12212,-0.03415 -3.16629,0.02543 -0.10875,0.329184 -0.0124,0.743024 -0.0453,1.103065 0.22626,0.232285 0.69122,0.03494 1.00752,0.100185 0.7517,0 1.50341,0 2.25511,0 0.0508,0.595092 0.13465,1.252242 0.10585,1.81656 -1.10775,-0.177312 -2.42208,-0.07998 -3.22671,0.790138 -0.61802,0.710658 -0.45086,1.921486 0.36483,2.410109 0.95288,0.611449 2.20138,0.646863 3.26451,0.340251 0.54906,-0.196595 0.95681,-0.687708 1.0074,-1.274891 0.0648,-0.123667 -0.017,-0.557568 0.18726,-0.388557 0.60968,0.341743 1.11972,0.840052 1.72961,1.175755 0.24673,-0.04887 0.27561,-0.423056 0.44233,-0.591658 0.22586,-0.287932 0.46974,-0.661643 -0.0202,-0.828078 -0.69615,-0.50734 -1.48124,-0.926789 -2.24056,-1.294708 -0.11986,-0.724253 -0.13329,-1.480731 -0.1758,-2.219191 0.82053,-0.106875 1.66264,-0.163692 2.47249,-0.347812 0.18819,-0.260873 0.0379,-0.645202 0.0265,-0.948921 0.0243,-0.24959 -0.21174,-0.385232 -0.42721,-0.277872 -0.70925,0.130111 -1.42464,0.259899 -2.14358,0.289214 10e-4,-0.586155 -0.1122,-1.1888271 -0.034,-1.7674139 0.13676,-0.1132609 0.18757,-0.2723681 0.39873,-0.2154081 0.57945,-0.053566 1.16548,-0.09359 1.7335,-0.2155762 0.14415,-0.256007 -0.0125,-0.6003349 -0.017,-0.8846518 -0.0268,-0.1275304 -0.0105,-0.3761035 -0.21171,-0.3364702 z m -4.04142,7.6537511 c 0.32706,0.01051 0.65362,0.02975 0.96215,0.149332 0.044,0.443628 0.0716,1.106557 -0.43665,1.281611 -0.59842,0.125662 -1.37992,0.14583 -1.82223,-0.344031 -0.19033,-0.279008 -0.12097,-0.666913 0.18902,-0.831724 0.31731,-0.231905 0.72902,-0.250827 1.10771,-0.255188 z"
             id="path3085"
             inkscape:connector-curvature="0"
             transform="matrix(1.0334145,0,0,1.0532484,288.11916,533.73824)" />
          <path
             style="fill:#ffffff;stroke:none;fill-opacity:1"
             d="m 186.4732,7.380382 c -1.77815,0.013725 -3.61285,0.6576781 -4.77981,2.0426174 -1.30423,1.3943206 -1.73659,3.5902456 -1.00256,5.3616156 0.33851,0.839373 1.17803,1.471838 2.10388,1.402589 1.06041,3.22e-4 1.99019,-0.685687 2.51974,-1.568933 1.01713,-1.620687 1.40671,-3.534098 1.70126,-5.3967547 0.1542,-0.044534 0.44691,-0.2605976 0.18903,-0.3799466 -0.1235,-0.066406 -0.61266,-0.1388108 -0.43477,-0.13421 1.1324,0.070102 2.36814,0.3772713 3.10573,1.3061843 1.29154,1.478415 1.00145,4.040622 -0.66348,5.124554 -0.86397,0.615942 -1.89505,0.915553 -2.92238,1.113376 -0.20886,0.188263 0.20165,0.370273 0.28354,0.551962 0.24107,0.239785 0.40564,0.782296 0.84685,0.620013 1.57331,-0.409773 3.26669,-1.076878 4.17752,-2.514075 0.7697,-1.263926 0.82215,-2.872653 0.44611,-4.273927 -0.51822,-1.6180689 -2.0363,-2.7660274 -3.6809,-3.0674785 -0.62091,-0.127884 -1.25487,-0.1982601 -1.88976,-0.1875865 z m -1.02454,1.6294228 c -0.23471,1.7216182 -0.5262,3.5230612 -1.47729,5.0018672 -0.30777,0.486435 -0.9569,0.995551 -1.53203,0.644404 -0.66409,-0.519936 -0.67097,-1.481407 -0.59166,-2.247545 0.23162,-1.839019 1.83206,-3.2845081 3.62367,-3.5858641 -0.008,0.062379 -0.0151,0.1247586 -0.0227,0.1871379 z"
             id="path3087"
             inkscape:connector-curvature="0"
             transform="matrix(1.0334145,0,0,1.0532484,288.11916,533.73824)" />
          <path
             style="fill:#ffffff;stroke:none;fill-opacity:1"
             d="m 168.08265,6.9550686 c -0.223,0.2736805 -0.16936,0.7181282 -0.28354,1.0537049 -0.47652,2.3945875 -0.77428,4.8653325 -0.40386,7.2951075 0.11144,0.665484 0.16479,1.377664 0.48514,1.975906 0.31575,0.138284 0.68795,-0.09895 1.02206,-0.09599 0.44865,0.04671 0.26394,-0.446285 0.30302,-0.722499 0.11399,-1.123663 0.83812,-2.084682 1.20978,-3.120855 -0.2703,-0.241246 -0.49205,-0.588795 -0.83172,-0.731539 -0.2505,0.174712 -0.268,0.567526 -0.42522,0.824044 -0.15135,0.35795 -0.29656,0.718704 -0.4462,1.07758 -0.0782,-2.016081 0.0265,-4.054071 0.54918,-6.0060301 0.12509,-0.3022668 0.0749,-0.7420786 0.35059,-0.9558779 0.17513,-0.035708 0.32879,-0.3131591 0.0775,-0.3459215 -0.52758,-0.1088401 -1.0688,-0.2297298 -1.60674,-0.2476269 z"
             id="path3089"
             inkscape:connector-curvature="0"
             transform="matrix(1.0334145,0,0,1.0532484,288.11916,533.73824)" />
          <path
             style="fill:#ffffff;stroke:none;fill-opacity:1"
             d="m 197.35933,6.5278649 c -0.0536,0.7217681 -0.007,1.4607046 -0.0227,2.1889462 -1.03046,0.078948 -2.07719,0.048661 -3.10013,0.099154 -0.11628,0.3809427 0.0279,0.8421239 0.0341,1.2505069 0.2441,0.213212 0.68976,0.01586 1.00921,0.07172 0.68561,-0.01432 1.37122,-0.02889 2.05683,-0.04337 0,0.727759 0,1.455517 0,2.183276 -1.26518,0.569627 -2.64005,1.286902 -3.23617,2.610479 -0.17793,0.482464 -0.16322,1.043415 -0.0284,1.534909 0.53015,1.23016 2.12185,1.591218 3.30043,1.168194 0.88481,-0.256284 1.4926,-1.161522 1.40669,-2.077379 0.0206,-0.828408 0.0224,-1.6572 0.0356,-2.485761 1.29879,-0.292967 2.73523,-0.72396 4.02441,-0.160674 0.68583,0.304342 1.10233,1.054683 0.98105,1.801438 -0.0431,0.887485 -0.91448,1.620579 -1.8014,1.489299 -0.63129,0.03906 -1.21839,-0.225893 -1.66769,-0.656986 -0.14188,-0.161621 -0.40421,-0.186627 -0.47689,0.05253 -0.16215,0.272575 -0.42209,0.501672 -0.53209,0.795614 0.6893,0.792841 1.73893,1.208429 2.78627,1.160633 1.22187,0.03433 2.52698,-0.581099 2.99232,-1.759853 0.51313,-1.177834 0.30155,-2.722579 -0.75612,-3.531046 -1.2718,-0.999835 -3.02827,-1.002058 -4.54495,-0.67998 -0.32719,0.03991 -0.72229,0.19945 -0.99546,0.213081 -0.0362,-0.595594 -0.008,-1.193618 -0.017,-1.7900975 0.79189,-0.111838 1.5964,-0.2246252 2.35718,-0.4687899 0.14394,-0.2713517 -0.0349,-0.6249379 -0.0359,-0.9205672 -0.0181,-0.2056075 -0.0546,-0.5761658 -0.34781,-0.4064105 -0.62511,0.2002415 -1.27202,0.3343466 -1.92242,0.40263 0.0137,-0.5193578 -0.0312,-1.074168 0.0832,-1.5727144 0.19241,-0.032833 0.39863,-0.3293559 0.11908,-0.3988495 -0.55206,-0.084337 -1.15296,-0.1441529 -1.70125,-0.06994 z m -0.0378,7.1641681 c -0.0148,0.791182 0.10579,1.627772 -0.10963,2.389316 -0.3291,0.552418 -1.24259,0.569607 -1.66534,0.119087 -0.40715,-0.530827 -0.0997,-1.286451 0.38373,-1.648325 0.40918,-0.38853 0.89096,-0.665549 1.38746,-0.926238 l 0.003,0.06039 3.3e-4,0.0058 z"
             id="path3091"
             inkscape:connector-curvature="0"
             transform="matrix(1.0334145,0,0,1.0532484,288.11916,533.73824)" />
          <path
             style="fill:#ffffff;stroke:none;fill-opacity:1"
             d="m 202.61431,7.9550276 c -0.28052,0.292995 -0.51104,0.6533343 -0.67861,1.0226424 0.12684,0.2887859 0.53687,0.3232964 0.7803,0.496177 0.81319,0.3751947 1.59422,0.838296 2.29906,1.380421 0.3408,-0.26194 0.55748,-0.731228 0.85054,-1.071338 -0.01,-0.2735681 -0.41187,-0.3674257 -0.59355,-0.5462914 -0.81453,-0.5341149 -1.68897,-0.9841152 -2.61237,-1.2929527 l -0.0454,0.011342 z"
             id="path3093"
             inkscape:connector-curvature="0"
             transform="matrix(1.0334145,0,0,1.0532484,288.11916,533.73824)" />
        </g>
      </g>
    </g>
  </g>
</svg>
