<?xml version="1.0" encoding="UTF-8" standalone="no"?>
<!-- Created with Inkscape (http://www.inkscape.org/) -->

<svg
   xmlns:dc="http://purl.org/dc/elements/1.1/"
   xmlns:cc="http://creativecommons.org/ns#"
   xmlns:rdf="http://www.w3.org/1999/02/22-rdf-syntax-ns#"
   xmlns:svg="http://www.w3.org/2000/svg"
   xmlns="http://www.w3.org/2000/svg"
   xmlns:xlink="http://www.w3.org/1999/xlink"
   xmlns:sodipodi="http://sodipodi.sourceforge.net/DTD/sodipodi-0.dtd"
   xmlns:inkscape="http://www.inkscape.org/namespaces/inkscape"
   width="77.178017"
   height="77.482025"
   id="svg3146"
   version="1.1"
   inkscape:version="0.48.1 "
   sodipodi:docname="WIND-IT.svg">
  <defs
     id="defs3148">
    <linearGradient
       y2="22.401928"
       x2="106.24998"
       y1="22.901928"
       x1="143.49998"
       gradientTransform="matrix(0.57445382,0,0,0.57445372,260.04532,541.5479)"
       gradientUnits="userSpaceOnUse"
       id="linearGradient7459"
       xlink:href="#linearGradient5507-3"
       inkscape:collect="always" />
    <linearGradient
       id="linearGradient5507-3">
      <stop
         style="stop-color:#ff0000;stop-opacity:1;"
         offset="0"
         id="stop5509-1" />
      <stop
         style="stop-color:#ff6600;stop-opacity:1"
         offset="1"
         id="stop5511-9" />
    </linearGradient>
    <linearGradient
       y2="22.401928"
       x2="106.24998"
       y1="22.901928"
       x1="143.49998"
       gradientTransform="matrix(0.57445382,0,0,0.57445372,260.04532,541.5479)"
       gradientUnits="userSpaceOnUse"
       id="linearGradient3103"
       xlink:href="#linearGradient5507-3"
       inkscape:collect="always" />
    <linearGradient
       id="linearGradient3105">
      <stop
         style="stop-color:#ff0000;stop-opacity:1;"
         offset="0"
         id="stop3107" />
      <stop
         style="stop-color:#ff6600;stop-opacity:1"
         offset="1"
         id="stop3109" />
    </linearGradient>
    <radialGradient
       inkscape:collect="always"
       xlink:href="#linearGradient3111-5"
       id="radialGradient3127"
       gradientUnits="userSpaceOnUse"
       gradientTransform="matrix(1.5920383,1.7587151,-1.0880994,0.98497827,392.73101,-572.88444)"
       cx="287.78745"
       cy="537.69501"
       fx="287.78745"
       fy="537.69501"
       r="39.671757" />
    <linearGradient
       id="linearGradient3111-5">
      <stop
         style="stop-color:#68ab38;stop-opacity:1"
         offset="0"
         id="stop3113-4" />
      <stop
         id="stop3134"
         offset="0.66444761"
         style="stop-color:#59a83a;stop-opacity:1" />
      <stop
         id="stop3119-9"
         offset="0.77443111"
         style="stop-color:#3f792c;stop-opacity:1" />
      <stop
         style="stop-color:#031900;stop-opacity:1"
         offset="1"
         id="stop3115-5" />
    </linearGradient>
    <radialGradient
       r="39.671757"
       fy="537.69501"
       fx="287.78745"
       cy="537.69501"
       cx="287.78745"
       gradientTransform="matrix(1.5920383,1.7587151,-1.0880994,0.98497827,381.30244,-618.59873)"
       gradientUnits="userSpaceOnUse"
       id="radialGradient3191"
       xlink:href="#linearGradient3111-5-1"
       inkscape:collect="always" />
    <linearGradient
       id="linearGradient3111-5-1">
      <stop
         style="stop-color:#96cf6e;stop-opacity:1;"
         offset="0"
         id="stop3113-4-74" />
      <stop
         id="stop3134-0"
         offset="0.66444761"
         style="stop-color:#62b840;stop-opacity:1;" />
      <stop
         id="stop3119-9-94"
         offset="0.77443111"
         style="stop-color:#519b38;stop-opacity:1;" />
      <stop
         style="stop-color:#042500;stop-opacity:1;"
         offset="1"
         id="stop3115-5-88" />
    </linearGradient>
    <filter
       id="filter3229"
       inkscape:label="Simple blur"
       x="0"
       y="0"
       width="1"
       height="1"
       inkscape:menu="ABCs"
       inkscape:menu-tooltip="Simple Gaussian blur, same as the blur slider in Fill and Stroke dialog"
       color-interpolation-filters="sRGB">
      <feTurbulence
         id="feTurbulence3231"
         numOctaves="1"
         baseFrequency="0.065432098765432101"
         result="result0"
         seed="179" />
      <feSpecularLighting
         id="feSpecularLighting3233"
         specularExponent="24.29999924"
         surfaceScale="2"
         specularConstant="1"
         result="result1">
        <feDistantLight
           id="feDistantLight3235"
           elevation="45"
           azimuth="225" />
      </feSpecularLighting>
      <feDiffuseLighting
         id="feDiffuseLighting3237"
         in="result0"
         surfaceScale="3"
         diffuseConstant="1.21000004"
         result="result2">
        <feDistantLight
           id="feDistantLight3239"
           azimuth="225"
           elevation="42" />
      </feDiffuseLighting>
      <feBlend
         id="feBlend3241"
         in2="SourceGraphic"
         mode="multiply"
         result="result91" />
      <feComposite
         k4="0"
         k1="0"
         id="feComposite3243"
         in2="result91"
         operator="arithmetic"
         in="result1"
         k2="1"
         k3="1"
         result="result92" />
      <feComposite
         id="feComposite3245"
         in2="SourceAlpha"
         operator="in"
         result="fbSourceGraphic" />
      <feGaussianBlur
         id="feGaussianBlur3019"
         stdDeviation="3"
         in="fbSourceGraphic" />
    </filter>
    <linearGradient
       y2="22.401928"
       x2="106.24998"
       y1="22.901928"
       x1="143.49998"
       gradientTransform="matrix(0.55062059,0,0,0.55062049,237.75148,471.81392)"
       gradientUnits="userSpaceOnUse"
       id="linearGradient3144"
       xlink:href="#linearGradient5507-3"
       inkscape:collect="always" />
    <linearGradient
       inkscape:collect="always"
       xlink:href="#linearGradient5507-3"
       id="linearGradient3256"
       gradientUnits="userSpaceOnUse"
       gradientTransform="matrix(0.55062059,0,0,0.55062049,237.75148,471.81392)"
       x1="143.49998"
       y1="22.901928"
       x2="106.24998"
       y2="22.401928" />
    <radialGradient
       inkscape:collect="always"
       xlink:href="#linearGradient3111-5"
       id="radialGradient3258"
       gradientUnits="userSpaceOnUse"
       gradientTransform="matrix(1.5920383,1.7587151,-1.0880994,0.98497827,392.73101,-572.88444)"
       cx="287.78745"
       cy="537.69501"
       fx="287.78745"
       fy="537.69501"
       r="39.671757" />
    <radialGradient
       inkscape:collect="always"
       xlink:href="#linearGradient3111-5-1"
       id="radialGradient3260"
       gradientUnits="userSpaceOnUse"
       gradientTransform="matrix(1.5920383,1.7587151,-1.0880994,0.98497827,381.30244,-618.59873)"
       cx="287.78745"
       cy="537.69501"
       fx="287.78745"
       fy="537.69501"
       r="39.671757" />
  </defs>
  <sodipodi:namedview
     id="base"
     pagecolor="#ffffff"
     bordercolor="#666666"
     borderopacity="1.0"
     inkscape:pageopacity="0.0"
     inkscape:pageshadow="2"
     inkscape:zoom="1.979899"
     inkscape:cx="25.787144"
     inkscape:cy="43.320152"
     inkscape:document-units="px"
     inkscape:current-layer="layer1"
     showgrid="false"
     fit-margin-left="0.2"
     fit-margin-top="0.2"
     fit-margin-bottom="0.2"
     fit-margin-right="0.2"
     inkscape:window-width="469"
     inkscape:window-height="455"
     inkscape:window-x="23"
     inkscape:window-y="23"
     inkscape:window-maximized="0" />
  <metadata
     id="metadata3151">
    <rdf:RDF>
      <cc:Work
         rdf:about="">
        <dc:format>image/svg+xml</dc:format>
        <dc:type
           rdf:resource="http://purl.org/dc/dcmitype/StillImage" />
        <dc:title></dc:title>
      </cc:Work>
    </rdf:RDF>
  </metadata>
  <g
     inkscape:label="Layer 1"
     inkscape:groupmode="layer"
     id="layer1"
     transform="translate(-267.12528,-459.33546)">
    <g
       id="g3243">
      <text
         sodipodi:linespacing="125%"
         id="text5503"
         y="485.11246"
         x="289.92273"
         style="font-size:22.02481842px;font-style:normal;font-weight:normal;line-height:125%;letter-spacing:0px;word-spacing:0px;fill:url(#linearGradient3256);fill-opacity:1;stroke:none;font-family:StoneSerITCStd Medium;-inkscape-font-specification:StoneSerITCStd Medium"
         xml:space="preserve"><tspan
           style="font-size:3.30372286px;fill:url(#linearGradient3256);fill-opacity:1"
           y="485.11246"
           x="289.92273"
           id="tspan5505"
           sodipodi:role="line">Created by Falzar FZ</tspan></text>
      <path
         style="fill:url(#radialGradient3258);fill-opacity:1;stroke:none"
         d="m 303.11261,459.54123 c -11.65669,0.12139 -23.06073,6.15073 -29.1336,15.98692 -9.66054,14.69334 -8.92265,35.67971 3.00754,48.9521 7.65479,8.48954 19.48984,12.84237 30.96068,12.04394 12.54938,-0.24186 24.75203,-7.35076 30.64567,-18.28414 5.22415,-8.96115 6.69861,-19.7868 4.5728,-29.86785 -2.22369,-13.28402 -13.10588,-24.89983 -26.50053,-27.95319 -4.45725,-0.80428 -9.03114,-0.9133 -13.55256,-0.87778 z"
         id="path3048"
         inkscape:connector-curvature="0" />
      <path
         inkscape:connector-curvature="0"
         id="path3227"
         d="m 291.68403,413.82694 c -11.65669,0.1214 -23.06073,6.15074 -29.13359,15.98693 -9.66053,14.69334 -8.92265,35.67971 3.00754,48.95209 7.65479,8.48955 19.48984,12.84238 30.96067,12.04394 12.54938,-0.24186 24.75204,-7.35075 30.64568,-18.28413 5.22414,-8.96116 6.6986,-19.78681 4.5728,-29.86786 -2.2237,-13.28402 -13.10589,-24.89982 -26.50054,-27.95319 -4.45724,-0.80427 -9.03114,-0.91329 -13.55256,-0.87778 z"
         style="opacity:0.6;fill:url(#radialGradient3260);fill-opacity:1;stroke:none;filter:url(#filter3229)"
         transform="matrix(0.93105854,0,0,0.93105854,31.717068,76.900795)" />
      <path
         id="path3144"
         style="fill:#ffffff;fill-opacity:1;stroke:none"
         d="m 313.80632,485.91624 c -5.4854,1.89826 -14.18733,2.29333 -19.35269,2.45567 -3.5955,0.11301 -0.55689,3.66121 1.74092,3.32292 4.67322,-0.688 6.82704,-0.25425 6.82704,-0.25425 l 0.0136,5.73039 -10.76021,-0.11982 -0.0668,13.85203 8.34653,-0.0825 c 0,0 -2.40736,5.08805 -6.24806,8.76285 -0.38876,1.23516 0.46397,2.05003 2.1918,2.05318 4.62454,0.009 13.44698,-0.14447 17.73991,-0.38209 0.68995,-2.71719 -0.40475,-6.61412 -2.28087,-8.22102 -1.17409,-1.00561 -2.68167,-0.78684 -2.39762,0.78164 0.38705,2.13721 1.0323,4.13244 1.0323,4.13244 l -9.3143,-0.0316 c 0,0 2.01333,-3.38023 3.95025,-7.10397 3.9621,0.015 11.38887,0.10096 11.38887,0.10096 l -0.006,-13.80492 -9.16404,-0.0356 0.0261,-6.28909 c 0,0 3.53579,-0.92908 8.07734,-1.80581 2.20334,-0.42535 -0.0364,-3.65247 -1.74439,-3.06138 z m -17.35904,14.30988 6.70345,-0.0113 -0.42361,6.68738 -6.22848,-0.0288 z m 16.62171,0 -0.11914,6.78789 -6.55343,-0.0836 0.53859,-6.64001 z m -28.64177,-20.37947 c 0,0 0.1275,26.6478 0.0691,29.19267 -2.20267,6.9363 -6.96769,7.30956 -10.57068,9.7614 7.38059,11.60293 13.55381,-1.56033 15.32476,-12.55861 0.18502,-7.10943 0.0292,-22.61711 0.0292,-22.61711 l 30.2737,0.0646 c 0,0 -0.83116,20.92266 0.9239,27.6146 3.74098,13.68786 12.23937,16.65603 14.96906,6.00479 -4.46288,-1.43923 -6.76773,-0.86497 -9.98145,-6.50225 -2.15934,-8.39327 -1.02379,-31.04263 -1.02379,-31.04263 z"
         inkscape:connector-curvature="0"
         sodipodi:nodetypes="cssccccccscsscccccccsscccccccccccccccccccccc" />
      <g
         id="g3130"
         transform="matrix(0.96766596,0,0,0.94944363,-11.504952,-47.265955)">
        <path
           style="fill:#ffffff;fill-opacity:1;stroke:none"
           d="m 318.44522,539.88073 c -0.18315,1.07107 -0.32963,2.16148 -0.54046,3.23304 -0.86011,0.17256 -1.77257,0.11728 -2.61222,0.35233 -0.13872,0.42022 -0.0387,0.93049 0.0438,1.3473 0.74892,0.059 1.49444,-0.16681 2.24216,-0.20594 -0.54058,2.14835 -1.44401,4.19379 -2.5197,6.10878 -0.005,0.33931 0.54492,0.30952 0.75829,0.48993 0.24815,0.11995 0.70996,0.35155 0.81926,-0.0656 1.10981,-2.06676 1.90869,-4.29195 2.52945,-6.55043 0.0725,-0.34436 0.56036,-0.14225 0.81549,-0.21937 0.63505,-0.005 1.43433,-0.15363 1.84055,0.47741 0.53997,0.65305 0.27933,1.57658 0.31353,2.3545 -0.0916,0.9382 -0.16394,2.08163 -0.99519,2.66254 -0.82412,0.40316 -1.6706,-0.26463 -2.36876,-0.65008 -0.24599,-0.18485 -0.33187,0.10399 -0.36518,0.30023 -0.0772,0.36621 -0.60768,0.84193 -0.0828,1.07189 0.91096,0.61877 2.09707,1.24459 3.20868,0.79399 0.827,-0.25833 1.43388,-0.9514 1.69441,-1.77408 0.5017,-1.51436 0.74796,-3.21278 0.33352,-4.77387 -0.28603,-1.08151 -1.30316,-1.96711 -2.44667,-1.83611 -0.51552,-0.0358 -1.11082,0.0631 -1.58729,-0.0571 0.16853,-0.81646 0.25316,-1.69093 0.55749,-2.45146 0.17734,-0.005 0.46297,-0.22842 0.21424,-0.37714 -0.58652,-0.17016 -1.25422,-0.21179 -1.85265,-0.23076 z"
           id="path3090"
           inkscape:connector-curvature="0" />
        <path
           style="fill:#ffffff;fill-opacity:1;stroke:none"
           d="m 324.38297,541.39924 c -0.39155,0.16506 -0.76434,0.44867 -1.06875,0.73444 0.72329,0.80614 1.61288,1.52619 2.11703,2.52678 0.37529,0.58683 0.57191,1.27331 0.83602,1.91213 0.27106,0.23217 0.64928,-0.13998 0.94487,-0.17391 0.52871,-0.0667 0.80381,-0.37887 0.45984,-0.87592 -0.53697,-1.63698 -1.68762,-3.00741 -3.00905,-4.05653 -0.081,-0.0553 -0.1828,-0.0864 -0.27996,-0.067 z"
           id="path3092"
           inkscape:connector-curvature="0" />
        <path
           style="fill:#ffffff;fill-opacity:1;stroke:none"
           d="m 336.77214,539.8981 c -0.0325,1.09404 0.17965,2.23133 0.12659,3.31491 -1.24263,0.21159 -2.55783,0.45845 -3.77835,0.58309 -0.0407,-0.82173 -0.1023,-1.68551 0.0171,-2.49115 0.2627,-0.0148 0.35196,-0.40225 0.039,-0.41684 -0.57252,-0.0921 -1.17311,-0.16735 -1.74311,-0.13399 -0.0723,1.09919 0.11876,2.23672 0.005,3.33477 -0.81149,0.19992 -1.71056,0.20502 -2.50267,0.4615 0.0357,0.41834 -0.002,0.94865 0.27267,1.28776 0.7412,0.0178 1.51812,-0.29684 2.24218,-0.33248 0.16095,1.45829 -0.0692,3.0351 0.59401,4.3868 0.63399,1.20214 2.11524,1.46569 3.34012,1.42122 1.42929,-0.0233 2.87652,0.0385 4.29447,-0.12354 0.3339,-0.25188 0.10524,-0.78261 0.13147,-1.14384 -0.11421,-0.4325 -0.69218,-0.0983 -0.98804,-0.16264 -1.54233,0.0888 -3.14202,0.27375 -4.65757,-0.0557 -0.65144,-0.19516 -0.9945,-0.87532 -0.99571,-1.53588 -0.0833,-1.01984 -0.0753,-2.04453 -0.10711,-3.06679 1.26974,-0.22278 2.58669,-0.45657 3.8392,-0.60294 0.005,0.71342 0.10764,1.48373 -0.12416,2.16363 -0.2394,0.56948 -0.93314,0.33094 -1.37238,0.21596 -0.29302,-0.0234 -0.66807,-0.36105 -0.92092,-0.15641 -0.0437,0.36383 -0.21208,0.80994 -0.0779,1.13888 1.03487,0.4244 2.37826,0.81779 3.36447,0.0819 0.79369,-0.75936 0.6508,-2.00484 0.75065,-3.01696 0.0729,-0.26355 -0.10458,-0.81731 0.33178,-0.72712 0.82542,-0.10385 1.65417,-0.19488 2.47438,-0.33257 0.21084,-0.25468 10e-4,-0.68123 0.0243,-0.99434 0.0293,-0.27453 -0.17764,-0.52443 -0.45272,-0.37282 -0.792,0.10623 -1.64812,0.27471 -2.41259,0.29279 -0.0208,-0.8737 -0.15031,-1.78628 -0.0584,-2.64251 0.21411,0.0138 0.38899,-0.31072 0.11199,-0.3573 -0.57468,-0.0832 -1.20187,-0.0883 -1.76745,-0.0174 z"
           id="path3094"
           inkscape:connector-curvature="0" />
        <path
           style="fill:#ffffff;fill-opacity:1;stroke:none"
           d="m 339.26751,540.16607 c -0.35205,0.18817 -1.00414,0.44775 -0.41262,0.8337 0.43104,0.46554 0.74124,1.03314 1.14783,1.5185 0.29248,-0.02 0.57192,-0.2465 0.77904,-0.4491 -0.077,-0.4296 -0.48838,-0.74588 -0.71331,-1.10663 -0.25955,-0.24682 -0.46588,-0.70231 -0.80094,-0.79647 z"
           id="path3096"
           inkscape:connector-curvature="0" />
        <path
           style="fill:#ffffff;fill-opacity:1;stroke:none"
           d="m 340.7063,539.22569 c -0.22466,0.11641 -0.64146,0.22532 -0.63541,0.49872 0.51019,0.55283 0.95638,1.17341 1.42174,1.75423 0.29288,0.0151 0.59626,-0.22558 0.77418,-0.4491 -0.14046,-0.53771 -0.64716,-0.92297 -0.97853,-1.35547 -0.1775,-0.14949 -0.33362,-0.43397 -0.58198,-0.44838 z"
           id="path3098"
           inkscape:connector-curvature="0" />
      </g>
    </g>
  </g>
</svg>
