<?xml version="1.0" encoding="UTF-8" standalone="no"?>
<!-- Created with Inkscape (http://www.inkscape.org/) -->

<svg
   xmlns:dc="http://purl.org/dc/elements/1.1/"
   xmlns:cc="http://creativecommons.org/ns#"
   xmlns:rdf="http://www.w3.org/1999/02/22-rdf-syntax-ns#"
   xmlns:svg="http://www.w3.org/2000/svg"
   xmlns="http://www.w3.org/2000/svg"
   xmlns:xlink="http://www.w3.org/1999/xlink"
   xmlns:sodipodi="http://sodipodi.sourceforge.net/DTD/sodipodi-0.dtd"
   xmlns:inkscape="http://www.inkscape.org/namespaces/inkscape"
   width="76.85199"
   height="77.151932"
   id="svg3760"
   version="1.1"
   inkscape:version="0.48.1 "
   sodipodi:docname="DARK.svg">
  <defs
     id="defs3762">
    <linearGradient
       id="linearGradient3795">
      <stop
         id="stop3797"
         offset="0"
         style="stop-color:#1c2224;stop-opacity:1" />
      <stop
         style="stop-color:#2a2723;stop-opacity:1"
         offset="0.63092703"
         id="stop3799" />
      <stop
         id="stop3801"
         offset="1"
         style="stop-color:#e6282e;stop-opacity:1" />
    </linearGradient>
    <linearGradient
       id="linearGradient3432">
      <stop
         style="stop-color:#7260a4;stop-opacity:1;"
         offset="0"
         id="stop3434" />
      <stop
         id="stop3793"
         offset="0.5"
         style="stop-color:#8d4b99;stop-opacity:1;" />
      <stop
         style="stop-color:#a8378f;stop-opacity:1"
         offset="1"
         id="stop3436" />
    </linearGradient>
    <linearGradient
       id="linearGradient3418">
      <stop
         id="stop3420"
         offset="0"
         style="stop-color:#d23388;stop-opacity:1" />
      <stop
         style="stop-color:#ef2e43;stop-opacity:1"
         offset="0.29348826"
         id="stop3422" />
      <stop
         id="stop3430"
         offset="0.68986225"
         style="stop-color:#e5282c;stop-opacity:1" />
      <stop
         id="stop3424"
         offset="1"
         style="stop-color:#602b33;stop-opacity:1" />
    </linearGradient>
    <linearGradient
       id="linearGradient3410">
      <stop
         style="stop-color:#808080;stop-opacity:1;"
         offset="0"
         id="stop3412" />
      <stop
         id="stop3426"
         offset="0.5"
         style="stop-color:#808080;stop-opacity:0.49803922;" />
      <stop
         style="stop-color:#808080;stop-opacity:0.24705882;"
         offset="0.75"
         id="stop3428" />
      <stop
         style="stop-color:#808080;stop-opacity:0;"
         offset="1"
         id="stop3414" />
    </linearGradient>
    <linearGradient
       id="linearGradient3177">
      <stop
         id="stop3179"
         offset="0"
         style="stop-color:#800000;stop-opacity:1" />
      <stop
         style="stop-color:#d69c45;stop-opacity:1"
         offset="0.21338069"
         id="stop3181" />
      <stop
         id="stop3183"
         offset="1"
         style="stop-color:#e5ff6a;stop-opacity:1" />
    </linearGradient>
    <linearGradient
       id="linearGradient4306">
      <stop
         id="stop4308"
         offset="0"
         style="stop-color:#9f863f;stop-opacity:1" />
      <stop
         style="stop-color:#332815;stop-opacity:1"
         offset="1"
         id="stop4310" />
      <stop
         id="stop4312"
         offset="1"
         style="stop-color:#e9e560;stop-opacity:1" />
    </linearGradient>
    <linearGradient
       id="linearGradient4296">
      <stop
         id="stop4298"
         offset="0"
         style="stop-color:#f0bf7a;stop-opacity:0.91071427;" />
      <stop
         style="stop-color:#f0bf7a;stop-opacity:0.45490196;"
         offset="0.64173013"
         id="stop4300" />
      <stop
         id="stop4302"
         offset="1"
         style="stop-color:#f0bf7a;stop-opacity:0;" />
    </linearGradient>
    <linearGradient
       id="linearGradient4230">
      <stop
         style="stop-color:#f0bf7a;stop-opacity:0.91071427;"
         offset="0"
         id="stop4232" />
      <stop
         id="stop4292"
         offset="0.5"
         style="stop-color:#f0bf7a;stop-opacity:0.45490196;" />
      <stop
         style="stop-color:#f0bf7a;stop-opacity:0;"
         offset="1"
         id="stop4234" />
    </linearGradient>
    <linearGradient
       id="linearGradient3111">
      <stop
         style="stop-color:#f3c87d;stop-opacity:0.7589286;"
         offset="0"
         id="stop3113" />
      <stop
         id="stop3119"
         offset="0.91352373"
         style="stop-color:#d69c45;stop-opacity:1" />
      <stop
         style="stop-color:#e5ff6a;stop-opacity:1"
         offset="1"
         id="stop3115" />
    </linearGradient>
    <linearGradient
       id="linearGradient3101">
      <stop
         style="stop-color:#a5864d;stop-opacity:1"
         offset="0"
         id="stop3103" />
      <stop
         id="stop4238"
         offset="0.78602821"
         style="stop-color:#332815;stop-opacity:1" />
      <stop
         style="stop-color:#1a1911;stop-opacity:1"
         offset="1"
         id="stop3105" />
    </linearGradient>
    <radialGradient
       inkscape:collect="always"
       xlink:href="#linearGradient4230"
       id="radialGradient4236"
       cx="306.59958"
       cy="555.36737"
       fx="306.59958"
       fy="555.36737"
       r="6.0054863"
       gradientTransform="matrix(0.60886416,0.50796393,-0.90996045,1.0907119,625.30825,-205.98784)"
       gradientUnits="userSpaceOnUse" />
    <radialGradient
       inkscape:collect="always"
       xlink:href="#linearGradient4306"
       id="radialGradient4304"
       cx="327.57648"
       cy="574.45367"
       fx="327.57648"
       fy="574.45367"
       r="39.671756"
       gradientTransform="matrix(-1.8589783e-6,1.0770613,-1.1551438,-2.9470962e-6,991.28513,221.58125)"
       gradientUnits="userSpaceOnUse" />
    <linearGradient
       y2="22.401928"
       x2="106.24998"
       y1="22.901928"
       x1="143.49998"
       gradientTransform="matrix(1.2113408,0,0,1.2113407,182.53634,525.19736)"
       gradientUnits="userSpaceOnUse"
       id="linearGradient6058"
       xlink:href="#linearGradient5507-3"
       inkscape:collect="always" />
    <linearGradient
       id="linearGradient5507-3">
      <stop
         style="stop-color:#ff0000;stop-opacity:1;"
         offset="0"
         id="stop5509-1" />
      <stop
         style="stop-color:#ff6600;stop-opacity:1"
         offset="1"
         id="stop5511-9" />
    </linearGradient>
    <linearGradient
       y2="22.401928"
       x2="106.24998"
       y1="22.901928"
       x1="143.49998"
       gradientTransform="matrix(1.2113408,0,0,1.2113407,182.53634,525.19736)"
       gradientUnits="userSpaceOnUse"
       id="linearGradient7449"
       xlink:href="#linearGradient5507-3"
       inkscape:collect="always" />
    <linearGradient
       id="linearGradient7451">
      <stop
         style="stop-color:#ff0000;stop-opacity:1;"
         offset="0"
         id="stop7453" />
      <stop
         style="stop-color:#ff6600;stop-opacity:1"
         offset="1"
         id="stop7455" />
    </linearGradient>
    <linearGradient
       y2="22.401928"
       x2="106.24998"
       y1="22.901928"
       x1="143.49998"
       gradientTransform="matrix(0.37606897,0,0,0.37606891,284.34192,546.05033)"
       gradientUnits="userSpaceOnUse"
       id="linearGradient7459"
       xlink:href="#linearGradient5507-3"
       inkscape:collect="always" />
    <linearGradient
       id="linearGradient3111-5">
      <stop
         style="stop-color:#ff0000;stop-opacity:1"
         offset="0"
         id="stop3113-4" />
      <stop
         id="stop3119-9"
         offset="0.91352373"
         style="stop-color:#d69c45;stop-opacity:1" />
      <stop
         style="stop-color:#e5ff6a;stop-opacity:1"
         offset="1"
         id="stop3115-5" />
    </linearGradient>
    <linearGradient
       id="linearGradient3101-4">
      <stop
         style="stop-color:#a5864d;stop-opacity:1"
         offset="0"
         id="stop3103-8" />
      <stop
         id="stop4238-2"
         offset="0.78602821"
         style="stop-color:#332815;stop-opacity:1" />
      <stop
         style="stop-color:#1a1911;stop-opacity:1"
         offset="1"
         id="stop3105-1" />
    </linearGradient>
    <linearGradient
       id="linearGradient4296-8">
      <stop
         id="stop4298-3"
         offset="0"
         style="stop-color:#f0bf7a;stop-opacity:0.91071427;" />
      <stop
         style="stop-color:#f0bf7a;stop-opacity:0.45490196;"
         offset="0.64173013"
         id="stop4300-1" />
      <stop
         id="stop4302-4"
         offset="1"
         style="stop-color:#f0bf7a;stop-opacity:0;" />
    </linearGradient>
    <linearGradient
       inkscape:collect="always"
       xlink:href="#linearGradient3418"
       id="linearGradient3416"
       x1="297.6759"
       y1="553.48169"
       x2="359.14716"
       y2="570.18866"
       gradientUnits="userSpaceOnUse" />
    <linearGradient
       inkscape:collect="always"
       xlink:href="#linearGradient3432"
       id="linearGradient3438"
       x1="301.63666"
       y1="603.81531"
       x2="324.00909"
       y2="564.27753"
       gradientUnits="userSpaceOnUse" />
    <linearGradient
       inkscape:collect="always"
       xlink:href="#linearGradient3795"
       id="linearGradient3791"
       x1="328.6752"
       y1="598.91052"
       x2="335.13403"
       y2="548.35461"
       gradientUnits="userSpaceOnUse" />
  </defs>
  <sodipodi:namedview
     id="base"
     pagecolor="#ffffff"
     bordercolor="#666666"
     borderopacity="1.0"
     inkscape:pageopacity="0.0"
     inkscape:pageshadow="2"
     inkscape:zoom="3.6421459"
     inkscape:cx="89.920039"
     inkscape:cy="34.303013"
     inkscape:document-units="px"
     inkscape:current-layer="g4793"
     showgrid="false"
     fit-margin-top="0"
     fit-margin-left="0"
     fit-margin-right="0"
     fit-margin-bottom="0"
     inkscape:window-width="1280"
     inkscape:window-height="780"
     inkscape:window-x="-8"
     inkscape:window-y="-8"
     inkscape:window-maximized="1"
     inkscape:snap-global="true"
     showguides="true"
     inkscape:guide-bbox="true" />
  <metadata
     id="metadata3765">
    <rdf:RDF>
      <cc:Work
         rdf:about="">
        <dc:format>image/svg+xml</dc:format>
        <dc:type
           rdf:resource="http://purl.org/dc/dcmitype/StillImage" />
        <dc:title />
      </cc:Work>
    </rdf:RDF>
  </metadata>
  <g
     inkscape:label="Layer 1"
     inkscape:groupmode="layer"
     id="layer1"
     transform="translate(-288.98475,-535.52559)">
    <g
       id="g4793"
       transform="matrix(0.96766596,0,0,0.94944363,10.181651,28.771222)">
      <g
         id="g3255">
        <text
           transform="scale(0.99053965,1.0095507)"
           sodipodi:linespacing="125%"
           id="text5503"
           y="555.13312"
           x="319.97443"
           style="font-size:15.04275513px;font-style:normal;font-weight:normal;line-height:125%;letter-spacing:0px;word-spacing:0px;fill:url(#linearGradient7459);fill-opacity:1;stroke:none;font-family:StoneSerITCStd Medium;-inkscape-font-specification:StoneSerITCStd Medium"
           xml:space="preserve"><tspan
             style="font-size:2.25641346px;fill:url(#linearGradient7459);fill-opacity:1"
             y="555.13312"
             x="319.97443"
             id="tspan5505"
             sodipodi:role="line">Created by Falzar FZ</tspan></text>
        <g
           style="display:inline"
           id="g3021"
           transform="translate(0.00547206,0.0258127)">
          <path
             inkscape:connector-curvature="0"
             id="path3048"
             d="m 325.12487,533.76805 c -12.04619,0.12786 -23.83129,6.47825 -30.10708,16.8382 -9.98334,15.47574 -9.2208,37.5796 3.10803,51.55872 7.91058,8.9416 20.14109,13.52621 31.99522,12.68526 12.96871,-0.25474 25.57911,-7.74217 31.66968,-19.25774 5.39871,-9.43832 6.92244,-20.84042 4.7256,-31.45827 -2.298,-13.99137 -13.54381,-26.2257 -27.38604,-29.44165 -4.60618,-0.8471 -9.33291,-0.96193 -14.00541,-0.92452 z"
             style="fill:url(#linearGradient3416);fill-opacity:1;stroke:none" />
          <g
             style="fill:#ffffff;fill-opacity:1"
             transform="translate(-85.682227,0.42272594)"
             id="g4771" />
          <path
             sodipodi:nodetypes="ccccc"
             inkscape:connector-curvature="0"
             id="path3048-3-1"
             d="m 313.77433,554.36015 c -16.09525,1.91834 -22.00562,49.43006 23.19335,43.55164 18.17503,-11.0868 26.88882,-21.81763 25.25395,-29.59012 -4.28871,-9.28069 -6.36597,-6.81399 -12.19801,-3.9823 -22.7935,5.71562 -22.42028,-12.56551 -36.24929,-9.97922 z"
             style="fill:url(#linearGradient3791);fill-opacity:1;stroke:none" />
          <path
             sodipodi:nodetypes="ccssscccccccc"
             inkscape:connector-curvature="0"
             id="path3048-3"
             d="m 319.25832,534.42259 c -17.1721,2.74453 -27.47255,16.64483 -30.52308,32.75312 -2.26633,13.24516 2.11531,28.84901 11.0273,36.73852 7.14713,6.32713 11.97183,10.97739 31.22638,11.13688 12.89226,0.10679 25.58694,-8.765 32.11536,-20.28954 6.64365,-11.7279 4.06281,-28.09614 3.09577,-32.22298 -2.69983,4.70986 -7.44527,9.41562 -18.39552,9.37863 -7.7157,0.7474 -9.21291,3.73285 -0.53087,8.98006 -6.73148,4.93847 -7.36609,6.57008 -10.86213,7.46593 -2.14967,-2.65959 -6.84292,-8.09326 -10.31532,-7.86934 -2.84444,17.35613 -10.7591,12.69319 -15.17995,6.49425 -9.81332,-15.53051 -11.50843,-17.57165 -11.65137,-25.45428 1.57491,-14.02577 5.3228,-21.8361 19.99343,-27.11125 z"
             style="fill:url(#linearGradient3438);fill-opacity:1;stroke:none" />
        </g>
        <g
           transform="translate(-0.8512134,0)"
           id="g3186">
          <path
             id="path3452"
             style="fill:#fff9f9;fill-opacity:1;stroke:none"
             d="m 320.1017,585.46103 c 0,0 -0.55161,1.94613 -0.008,2.97743 -0.005,1.98581 -0.0191,6.96001 -0.0245,8.93742 -0.77264,1.29516 -0.008,2.92702 -0.008,2.92702 l 18.68984,-0.006 c 0,0 0.76573,-1.32511 0.0358,-3.01444 0.0237,-1.9919 0.0828,-6.96675 0.10623,-8.93693 0.60471,-1.0486 0.0343,-2.8842 0.0343,-2.8842 z m 15.35787,2.97189 -0.0174,2.97044 -11.5988,-0.013 -0.0618,-2.92409 z m 0.005,5.95467 -0.0476,2.93962 -11.57866,0.009 -0.0583,-2.96932 z m -7.53731,-22.78955 c -0.008,1.02184 0.72561,2.91431 0.72561,2.91431 0,0 -8.81406,0.0127 -11.01918,0.0759 -0.84154,0.86957 -0.89045,1.6531 0.53266,2.46141 1.25664,-0.42279 3.63252,-0.54071 5.33748,-0.19547 0.26111,0.60596 0.3644,3.63656 0.3644,3.63656 0,0 -7.91714,0.078 -9.13135,0.5929 -2.17006,0.52322 -4.44581,3.53322 -0.0191,3.34867 3.51001,-1.42106 8.7536,-1.29677 14.68306,-1.32488 5.264,-0.025 11.49373,1.10179 15.68613,1.88855 2.27251,-0.77132 2.78907,-2.76731 2.5534,-4.46209 -1.82129,0.0865 -11.70182,-0.21869 -11.70182,-0.21869 0,0 0.20182,-2.27389 0.63401,-3.71781 1.99455,0.0897 4.80944,0.11071 5.69293,-0.34803 0.54582,-0.97375 0.53097,-1.75842 -0.37434,-1.98571 -1.18734,-0.35781 -10.56927,0.17858 -10.56927,0.17858 0,0 -0.39518,-1.38603 -0.72864,-2.52776 -0.5456,-1.86801 -2.65118,-2.13138 -2.66595,-0.31641 z m 5.60505,4.96067 -0.47222,3.96696 -6.95092,-0.0165 -0.39457,-3.91962 z m 0.84294,-21.70474 c 0,0 -0.8205,1.34369 0.026,2.81971 0.0226,2.44416 0.10944,11.84527 0.10944,11.84527 0,0 2.14876,1.45528 4.79874,0.11477 4.01165,0.0272 11.64336,0.0616 11.64336,0.0616 0,0 0.0227,20.79949 0.10443,28.88613 -0.0131,2.48672 3.79959,2.5133 3.75503,0.24226 0.1006,-8.81765 0.0533,-43.93432 0.0533,-43.93432 0,0 -1.43709,-0.95336 -3.13266,-0.082 -2.85262,-0.007 -11.2583,0.0172 -14.12434,0.01 -2.04531,-0.74834 -3.23338,0.0373 -3.23338,0.0373 z m 16.63677,2.03986 -0.0225,3.83293 -13.54429,-0.0476 -0.051,-3.88821 z m -0.024,6.8507 -0.0921,3.90999 -13.40089,-0.0439 -0.09,-3.90559 z m -46.71643,-9.01033 c 0,0 0.24357,29.05173 -0.20401,33.21297 -1.82121,4.43875 -3.87873,6.38363 -4.95587,7.10878 -0.76282,1.12863 0.79281,2.49473 2.81122,3.78774 9.73281,3.21699 6.79265,-28.19443 6.79265,-28.19443 l 16.98372,0.0111 c 0,0 0.0473,-10.66655 0.0591,-13.31582 0.87955,-1.53213 0.0115,-2.57983 0.0115,-2.57983 0,0 -1.25819,-1.11691 -2.82517,-0.004 -2.98278,-0.004 -11.95931,-0.017 -15.0715,-0.0214 -2.29011,-1.30775 -3.60164,-0.005 -3.60164,-0.005 z m 18.47387,6.86575 -14.47058,-0.0129 -0.006,-4.70674 14.57497,0.0916 z m 0.0457,6.98211 -14.48963,0.13086 0.003,-4.99066 14.56805,0.0267 z"
             inkscape:connector-curvature="0"
             sodipodi:nodetypes="cccccccccccccccccccccccccccscccccccsccccccccccccccccccccccccccccccccccccccccccccccccccc" />
          <g
             transform="translate(-143.24667,-0.60019561)"
             id="g3101"
             style="fill:#fff9f9;fill-opacity:1">
            <path
               transform="matrix(1.0334145,0,0,1.0532484,288.11916,533.73824)"
               inkscape:connector-curvature="0"
               id="path3097"
               d="m 173.48135,6.4342564 c -0.36968,0.1490675 -0.6222,0.5016752 -0.93584,0.7416971 -0.0862,0.2391436 0.30756,0.2769077 0.4398,0.4220198 0.57383,0.3847397 1.16646,0.8196797 1.65484,1.2691708 -1.0943,0.2083982 -2.17635,0.5763005 -3.23828,0.8433202 -0.27285,-0.8036441 -0.51654,-1.6485499 -0.74018,-2.4541224 0.17054,-0.042777 0.40079,-0.3649217 0.1274,-0.4277272 -0.5829,0.087204 -1.1875,0.1327847 -1.75186,0.294252 -0.13539,0.2582284 0.10131,0.5577862 0.14102,0.8196699 0.24235,0.753368 0.51343,1.5037399 0.72202,2.2639094 -0.97542,0.349474 -2.00505,0.572107 -2.9592,0.978312 -0.16078,0.179396 0.0846,0.42719 0.12134,0.621873 0.14667,0.259705 0.20483,0.613402 0.43935,0.802357 0.20046,0.04199 0.21695,-0.254426 0.41155,-0.268457 0.79349,-0.310781 1.61003,-0.548229 2.41924,-0.829669 0.68007,2.08602 1.29861,4.194454 1.8004,6.332485 0.2168,0.174869 0.56354,-0.07031 0.83058,-0.06752 0.25544,-0.08339 0.58643,-0.06112 0.7878,-0.252519 -0.1538,-0.742868 -0.41802,-1.488569 -0.62339,-2.229641 -0.41596,-1.431315 -0.91202,-2.875664 -1.29986,-4.292439 1.19076,-0.397107 2.4061,-0.794055 3.66135,-0.905837 0.71424,-0.05707 1.61311,0.08169 1.9537,0.79663 0.32458,0.67823 0.0107,1.615438 -0.73714,1.856517 -1.01156,0.359643 -2.12586,0.01418 -2.98196,-0.561202 -0.25203,-0.128272 -0.25886,0.268068 -0.33333,0.410246 -0.0322,0.252529 -0.28475,0.552174 -0.11563,0.792547 0.63348,0.42174 1.37929,0.738892 2.14622,0.816019 0.88253,0.05663 1.82383,0.0028 2.57698,-0.51115 1.11658,-0.699579 1.42355,-2.273662 0.89034,-3.429401 -0.50226,-0.9852604 -1.62675,-1.4755378 -2.69226,-1.5031115 -0.50576,0.02294 0.24533,-0.1707248 0.091,-0.3943584 -0.79949,-0.733351 -1.67802,-1.3897549 -2.63765,-1.8974704 -0.0532,-0.020743 -0.11015,-0.042466 -0.16836,-0.036402 z"
               style="fill:#fff9f9;fill-opacity:1;stroke:none" />
            <path
               transform="matrix(1.0334145,0,0,1.0532484,288.11916,533.73824)"
               inkscape:connector-curvature="0"
               id="path3099"
               d="m 186.41327,6.8301315 c -0.63489,0.1964961 -1.32939,0.1526919 -1.99129,0.218775 -0.90059,0.070681 -1.8147,0.044327 -2.70764,0.1695163 -0.23937,0.162095 -0.0582,0.518156 -0.0815,0.7535749 0.044,0.2308306 0.0176,0.4893315 0.11485,0.7040343 0.1906,0.085324 0.3501,-0.1496604 0.5521,-0.1183075 1.09005,-0.1122624 2.23802,-0.2017868 3.30654,-0.2411653 -0.15518,0.9933363 -0.36015,1.9792128 -0.60367,2.9546538 -1.40222,0.07312 -2.94969,0.343698 -3.9451,1.418174 -0.81398,0.885809 -0.85075,2.447023 0.008,3.320194 0.59916,0.586922 1.51242,0.532937 2.2797,0.450478 0.98725,-0.187869 1.68867,-1.032468 2.0698,-1.917557 0.30179,-0.605987 0.52879,-1.243028 0.73318,-1.886484 1.01028,0.145845 1.97065,0.462209 2.93948,0.778099 -0.49443,1.410013 -1.39367,2.720935 -2.68467,3.506756 -0.11248,0.246774 0.3248,0.30605 0.46868,0.445928 0.24164,0.122979 0.43516,0.33395 0.67193,0.448962 0.80084,-0.485016 1.45668,-1.195731 1.99941,-1.94749 0.38169,-0.578194 0.66522,-1.217033 0.96131,-1.839867 0.62406,0.250033 1.22912,0.576426 1.85652,0.819052 0.23716,-0.03673 0.23913,-0.385313 0.3705,-0.554641 0.0947,-0.251367 0.27871,-0.483325 0.31356,-0.748258 -0.65422,-0.382285 -1.40288,-0.604221 -2.07645,-0.955561 0.19489,-0.766586 0.37843,-1.555087 0.55513,-2.316097 0.16406,-0.04861 0.4969,-0.175583 0.39133,-0.3913246 -0.58316,-0.1482164 -1.19834,-0.2540281 -1.79737,-0.357956 -0.20857,0.1237238 -0.12142,0.4579866 -0.20027,0.6682876 -0.11356,0.641664 -0.24253,1.28103 -0.42463,1.904142 -0.96824,-0.334694 -1.97697,-0.576819 -2.97437,-0.755348 0.30385,-1.196718 0.54514,-2.4124655 0.80236,-3.6159625 0.0941,-0.1219369 0.42805,-0.2018298 0.23662,-0.389808 -0.36144,-0.1961747 -0.73582,-0.4551886 -1.14364,-0.5248 z m -1.78523,5.7257795 c -0.2852,0.839099 -0.52269,1.792376 -1.20279,2.420754 -0.41978,0.358367 -1.22419,0.39904 -1.49553,-0.15471 -0.27768,-0.647303 0.0888,-1.403355 0.68406,-1.730626 0.60203,-0.368631 1.32057,-0.495826 2.01426,-0.535418 z"
               style="fill:#fff9f9;fill-opacity:1;stroke:none" />
          </g>
        </g>
      </g>
    </g>
  </g>
</svg>
