<?xml version="1.0" encoding="UTF-8" standalone="no"?>
<!-- Created with Inkscape (http://www.inkscape.org/) -->

<svg
   xmlns:dc="http://purl.org/dc/elements/1.1/"
   xmlns:cc="http://creativecommons.org/ns#"
   xmlns:rdf="http://www.w3.org/1999/02/22-rdf-syntax-ns#"
   xmlns:svg="http://www.w3.org/2000/svg"
   xmlns="http://www.w3.org/2000/svg"
   xmlns:xlink="http://www.w3.org/1999/xlink"
   xmlns:sodipodi="http://sodipodi.sourceforge.net/DTD/sodipodi-0.dtd"
   xmlns:inkscape="http://www.inkscape.org/namespaces/inkscape"
   width="76.85199"
   height="77.151932"
   id="svg3760"
   version="1.1"
   inkscape:version="0.48.1 "
   sodipodi:docname="DIVINE.svg">
  <defs
     id="defs3762">
    <linearGradient
       id="linearGradient4306">
      <stop
         id="stop4308"
         offset="0"
         style="stop-color:#9f863f;stop-opacity:1" />
      <stop
         style="stop-color:#332815;stop-opacity:1"
         offset="1"
         id="stop4310" />
      <stop
         id="stop4312"
         offset="1"
         style="stop-color:#e9e560;stop-opacity:1" />
    </linearGradient>
    <linearGradient
       id="linearGradient4296">
      <stop
         id="stop4298"
         offset="0"
         style="stop-color:#f0bf7a;stop-opacity:0.91071427;" />
      <stop
         style="stop-color:#f0bf7a;stop-opacity:0.45490196;"
         offset="0.64173013"
         id="stop4300" />
      <stop
         id="stop4302"
         offset="1"
         style="stop-color:#f0bf7a;stop-opacity:0;" />
    </linearGradient>
    <linearGradient
       id="linearGradient4230">
      <stop
         style="stop-color:#f0bf7a;stop-opacity:0.91071427;"
         offset="0"
         id="stop4232" />
      <stop
         id="stop4292"
         offset="0.5"
         style="stop-color:#f0bf7a;stop-opacity:0.45490196;" />
      <stop
         style="stop-color:#f0bf7a;stop-opacity:0;"
         offset="1"
         id="stop4234" />
    </linearGradient>
    <linearGradient
       id="linearGradient3111">
      <stop
         style="stop-color:#f3c87d;stop-opacity:0.7589286;"
         offset="0"
         id="stop3113" />
      <stop
         id="stop3119"
         offset="0.91352373"
         style="stop-color:#d69c45;stop-opacity:1" />
      <stop
         style="stop-color:#e5ff6a;stop-opacity:1"
         offset="1"
         id="stop3115" />
    </linearGradient>
    <linearGradient
       id="linearGradient3101">
      <stop
         style="stop-color:#a5864d;stop-opacity:1"
         offset="0"
         id="stop3103" />
      <stop
         id="stop4238"
         offset="0.78602821"
         style="stop-color:#332815;stop-opacity:1" />
      <stop
         style="stop-color:#1a1911;stop-opacity:1"
         offset="1"
         id="stop3105" />
    </linearGradient>
    <radialGradient
       inkscape:collect="always"
       xlink:href="#linearGradient4230"
       id="radialGradient4236"
       cx="306.59958"
       cy="555.36737"
       fx="306.59958"
       fy="555.36737"
       r="6.0054863"
       gradientTransform="matrix(0.60886416,0.50796393,-0.90996045,1.0907119,625.30825,-205.98784)"
       gradientUnits="userSpaceOnUse" />
    <radialGradient
       inkscape:collect="always"
       xlink:href="#linearGradient4306"
       id="radialGradient4304"
       cx="327.57648"
       cy="574.45367"
       fx="327.57648"
       fy="574.45367"
       r="39.671756"
       gradientTransform="matrix(-1.8589783e-6,1.0770613,-1.1551438,-2.9470962e-6,991.28513,221.58125)"
       gradientUnits="userSpaceOnUse" />
    <linearGradient
       y2="22.401928"
       x2="106.24998"
       y1="22.901928"
       x1="143.49998"
       gradientTransform="matrix(1.2113408,0,0,1.2113407,182.53634,525.19736)"
       gradientUnits="userSpaceOnUse"
       id="linearGradient6058"
       xlink:href="#linearGradient5507-3"
       inkscape:collect="always" />
    <linearGradient
       id="linearGradient5507-3">
      <stop
         style="stop-color:#ff0000;stop-opacity:1;"
         offset="0"
         id="stop5509-1" />
      <stop
         style="stop-color:#ff6600;stop-opacity:1"
         offset="1"
         id="stop5511-9" />
    </linearGradient>
    <linearGradient
       y2="22.401928"
       x2="106.24998"
       y1="22.901928"
       x1="143.49998"
       gradientTransform="matrix(1.2113408,0,0,1.2113407,182.53634,525.19736)"
       gradientUnits="userSpaceOnUse"
       id="linearGradient7449"
       xlink:href="#linearGradient5507-3"
       inkscape:collect="always" />
    <linearGradient
       id="linearGradient7451">
      <stop
         style="stop-color:#ff0000;stop-opacity:1;"
         offset="0"
         id="stop7453" />
      <stop
         style="stop-color:#ff6600;stop-opacity:1"
         offset="1"
         id="stop7455" />
    </linearGradient>
    <linearGradient
       y2="22.401928"
       x2="106.24998"
       y1="22.901928"
       x1="143.49998"
       gradientTransform="matrix(0.59536999,0,0,0.5953699,257.48367,541.07321)"
       gradientUnits="userSpaceOnUse"
       id="linearGradient7459"
       xlink:href="#linearGradient5507-3"
       inkscape:collect="always" />
    <radialGradient
       inkscape:collect="always"
       xlink:href="#linearGradient3111-5"
       id="radialGradient4358-4"
       cx="327.81348"
       cy="574.35522"
       fx="327.81348"
       fy="574.35522"
       r="39.671757"
       gradientTransform="matrix(1,0,0,1.0232282,0,-13.341263)"
       gradientUnits="userSpaceOnUse" />
    <linearGradient
       id="linearGradient3111-5">
      <stop
         style="stop-color:#f3c87d;stop-opacity:0.7589286;"
         offset="0"
         id="stop3113-4" />
      <stop
         id="stop3119-9"
         offset="0.91352373"
         style="stop-color:#d69c45;stop-opacity:1" />
      <stop
         style="stop-color:#e5ff6a;stop-opacity:1"
         offset="1"
         id="stop3115-5" />
    </linearGradient>
    <radialGradient
       inkscape:collect="always"
       xlink:href="#linearGradient3101-4"
       id="radialGradient3107-6"
       cx="316.5849"
       cy="568.73383"
       fx="316.5849"
       fy="568.73383"
       r="35.220825"
       gradientTransform="matrix(0.74739457,0.822666,-0.75830964,0.68893224,512.80084,-84.984613)"
       gradientUnits="userSpaceOnUse" />
    <linearGradient
       id="linearGradient3101-4">
      <stop
         style="stop-color:#a5864d;stop-opacity:1"
         offset="0"
         id="stop3103-8" />
      <stop
         id="stop4238-2"
         offset="0.78602821"
         style="stop-color:#332815;stop-opacity:1" />
      <stop
         style="stop-color:#1a1911;stop-opacity:1"
         offset="1"
         id="stop3105-1" />
    </linearGradient>
    <radialGradient
       inkscape:collect="always"
       xlink:href="#linearGradient4296-8"
       id="radialGradient4294-6"
       gradientUnits="userSpaceOnUse"
       gradientTransform="matrix(0.60886416,0.50796393,-0.90996045,1.0907119,625.30825,-205.98784)"
       cx="306.59958"
       cy="555.36737"
       fx="306.59958"
       fy="555.36737"
       r="6.0054865" />
    <linearGradient
       id="linearGradient4296-8">
      <stop
         id="stop4298-3"
         offset="0"
         style="stop-color:#f0bf7a;stop-opacity:0.91071427;" />
      <stop
         style="stop-color:#f0bf7a;stop-opacity:0.45490196;"
         offset="0.64173013"
         id="stop4300-1" />
      <stop
         id="stop4302-4"
         offset="1"
         style="stop-color:#f0bf7a;stop-opacity:0;" />
    </linearGradient>
  </defs>
  <sodipodi:namedview
     id="base"
     pagecolor="#ffffff"
     bordercolor="#666666"
     borderopacity="1.0"
     inkscape:pageopacity="0.0"
     inkscape:pageshadow="2"
     inkscape:zoom="4.6899657"
     inkscape:cx="51.438065"
     inkscape:cy="42.137285"
     inkscape:document-units="px"
     inkscape:current-layer="g4793"
     showgrid="false"
     fit-margin-top="0"
     fit-margin-left="0"
     fit-margin-right="0"
     fit-margin-bottom="0"
     inkscape:window-width="1280"
     inkscape:window-height="780"
     inkscape:window-x="-8"
     inkscape:window-y="-8"
     inkscape:window-maximized="1"
     inkscape:snap-global="true"
     showguides="true"
     inkscape:guide-bbox="true" />
  <metadata
     id="metadata3765">
    <rdf:RDF>
      <cc:Work
         rdf:about="">
        <dc:format>image/svg+xml</dc:format>
        <dc:type
           rdf:resource="http://purl.org/dc/dcmitype/StillImage" />
        <dc:title />
      </cc:Work>
    </rdf:RDF>
  </metadata>
  <g
     inkscape:label="Layer 1"
     inkscape:groupmode="layer"
     id="layer1"
     transform="translate(-288.98475,-535.52559)">
    <g
       id="g4793"
       transform="matrix(0.96766596,0,0,0.94944363,10.181651,28.771222)">
      <g
         transform="translate(-85.403259,0.65890928)"
         id="g3199"
         style="fill:#fffaf1;fill-opacity:1" />
      <g
         id="g3128">
        <text
           transform="scale(0.99053965,1.0095507)"
           sodipodi:linespacing="125%"
           id="text5503"
           y="555.45251"
           x="313.89493"
           style="font-size:23.81479454px;font-style:normal;font-weight:normal;line-height:125%;letter-spacing:0px;word-spacing:0px;fill:url(#linearGradient7459);fill-opacity:1;stroke:none;font-family:StoneSerITCStd Medium;-inkscape-font-specification:StoneSerITCStd Medium"
           xml:space="preserve"><tspan
             style="font-size:3.57221937px;fill:url(#linearGradient7459);fill-opacity:1"
             y="555.45251"
             x="313.89493"
             id="tspan5505"
             sodipodi:role="line">Created by Falzar FZ</tspan></text>
        <g
           id="g3021"
           transform="translate(0.00547206,0.0258127)">
          <path
             inkscape:connector-curvature="0"
             id="path3048"
             d="m 325.12487,533.76805 c -12.04619,0.12786 -23.83129,6.47825 -30.10708,16.8382 -9.98334,15.47574 -9.2208,37.5796 3.10803,51.55872 7.91058,8.9416 20.14109,13.52621 31.99522,12.68526 12.96871,-0.25474 25.57911,-7.74217 31.66968,-19.25774 5.39871,-9.43832 6.92244,-20.84042 4.7256,-31.45827 -2.298,-13.99137 -13.54381,-26.2257 -27.38604,-29.44165 -4.60618,-0.8471 -9.33291,-0.96193 -14.00541,-0.92452 z"
             style="fill:url(#radialGradient4358-4);fill-opacity:1;stroke:none" />
          <path
             inkscape:connector-curvature="0"
             id="path3048-4"
             d="m 325.42652,538.32169 c -10.69468,0.11351 -21.15757,5.75143 -26.72925,14.94905 -8.86327,13.73946 -8.18628,33.3634 2.75933,45.77415 7.02306,7.9384 17.88138,12.00865 28.40555,11.26205 11.5137,-0.22616 22.70929,-6.87355 28.11653,-17.09714 4.79301,-8.3794 6.14578,-18.50225 4.19542,-27.92884 -2.04018,-12.42163 -12.02428,-23.28334 -24.3135,-26.13848 -4.08939,-0.75206 -8.28581,-0.85401 -12.43408,-0.82079 z"
             style="fill:url(#radialGradient3107-6);fill-opacity:1;stroke:none" />
          <path
             sodipodi:nodetypes="ccc"
             inkscape:connector-curvature="0"
             id="path3109"
             d="m 311.71455,548.43287 c -6.29773,-1.46827 -14.76365,7.17281 -10.62999,13.63988 6.56058,3.42979 14.32286,-7.35284 10.62999,-13.63988 z"
             style="fill:url(#radialGradient4294-6);fill-opacity:1;stroke:none" />
        </g>
        <g
           id="g3121"
           style="fill:#fffaf1;fill-opacity:1"
           transform="translate(-85.403264,0.6589101)">
          <g
             id="g3118">
            <path
               style="fill:#fffaf1;fill-opacity:1;stroke:none"
               d="m 396.21015,558.50833 c 0.16444,1.16913 0.55155,4.94288 0.55155,4.94288 0,0 -6.52079,-0.0359 -8.25034,0.0898 -2.74899,0.19983 -0.9611,4.47984 1.97119,2.90942 2.29278,-0.0473 12.326,-0.0227 12.326,-0.0227 -3.82829,8.85633 -9.8218,13.52465 -19.04326,15.38779 0.11943,3.52911 3.57245,5.13166 6.29244,3.81069 2.32642,-1.20992 6.35589,-4.65321 6.35589,-4.65321 0,0 -0.0944,15.95249 -0.0732,19.51913 0.0132,2.21909 4.0376,2.29601 4.02986,0.0285 -0.0114,-3.33046 -0.0385,-20.77609 -0.0385,-20.77609 0,0 1.84467,0.91005 3.65177,2.22109 1.70975,1.24041 5.29766,-0.11575 2.50601,-2.77644 -3.11577,-2.9696 -2.40576,-1.86747 -4.70419,-3.5306 6.0327,-7.15973 6.71585,-12.22066 6.71585,-12.22066 l -7.69198,-0.0489 c 0,0 -0.51409,-3.90548 -0.70585,-5.02261 -0.47011,-2.73873 -4.2752,-2.57388 -3.89324,0.14191 z m 27.61367,-1.17404 c -0.0347,3.67477 -0.13541,7.96068 -0.13541,7.96068 0,0 -6.73212,0.003 -8.83148,0.004 -1.09319,-1.31162 -3.76468,0.002 -3.76468,0.002 l 0.091,21.09102 c 0,0 1.69233,0.79086 3.06655,-0.0267 2.07148,-0.018 9.36234,-0.0815 9.36234,-0.0815 0,0 0.19466,12.40798 0.20857,14.6804 0.0162,2.64689 3.71192,2.41013 3.81863,-0.0884 0.1283,-3.00384 0.20873,-14.52723 0.20873,-14.52723 0,0 6.16369,-0.0408 8.0864,-0.0535 1.60823,0.99336 3.44988,-0.0228 3.44988,-0.0228 0,0 -0.007,-14.27341 -0.009,-17.74883 0.69348,-1.23755 -0.001,-3.10368 -0.001,-3.10368 0,0 -1.29341,-0.85163 -2.54934,-0.0256 -1.93323,-0.0204 -9.04999,-0.097 -9.04999,-0.097 0,0 -0.17429,-5.1944 -0.1427,-8.0073 0.0267,-2.37387 -3.78451,-2.50186 -3.80855,0.0445 z m -0.0142,16.90998 -8.23514,0.13725 0.0881,-6.02594 8.12894,0.0148 z m 11.68238,-5.80102 -0.0251,5.8819 -7.79393,-0.0181 0.0249,-5.84689 z m 0.0285,8.86106 0.004,5.93993 -7.87655,-10e-4 0.0234,-5.95692 z m -20.56157,0.058 8.82198,-0.0835 -0.0857,5.92051 -8.63454,0.039 z"
               id="path3092-7"
               inkscape:connector-curvature="0"
               sodipodi:nodetypes="scscccccsscsscccsscccccccsscccccccssccccccccccccccccccccc" />
          </g>
        </g>
        <g
           style="fill:#fffaf1;fill-opacity:1"
           transform="translate(-71.061536,-14.20436)"
           id="g3077">
          <path
             style="fill:#fffaf1;stroke:none;fill-opacity:1"
             d="m 389.69444,556.97537 c -0.22297,0.10321 -0.13822,0.46563 -0.21174,0.67547 -0.12914,0.84451 -0.23405,1.7215 -0.45102,2.53524 -0.85467,0.17617 -1.74671,0.17913 -2.61144,0.31757 -0.15944,0.21004 0.009,0.53566 -0.0134,0.78748 0.0697,0.2096 -0.0547,0.60673 0.20793,0.66874 0.70672,-0.07 1.40849,-0.18534 2.11567,-0.25089 -0.47392,1.80185 -1.13321,3.56476 -2.02615,5.1968 -0.14749,0.31793 -0.37642,0.60164 -0.49061,0.93164 0.15631,0.2761 0.54957,0.32555 0.80884,0.48369 0.22843,0.0796 0.55616,0.37884 0.6957,0.0181 0.93352,-1.65094 1.65143,-3.42116 2.18969,-5.24769 0.16256,-0.52014 0.31237,-1.04101 0.44586,-1.57026 0.66846,-0.0652 1.3622,-0.14152 2.02443,-0.0263 0.76042,0.25706 0.99932,1.1561 0.99322,1.88781 -0.0211,1.02946 -0.14141,2.092 -0.57835,3.02126 -0.22231,0.50752 -0.78874,0.81102 -1.31864,0.64214 -0.6419,-0.12965 -1.14989,-0.57426 -1.73006,-0.82811 -0.21547,0.35224 -0.30434,0.78547 -0.52332,1.14919 0.0227,0.25108 0.36933,0.33387 0.5371,0.49827 0.78446,0.50765 1.70909,0.93447 2.65964,0.70706 1.16059,-0.18863 1.87853,-1.3229 2.14699,-2.40479 0.38693,-1.20973 0.35874,-2.50792 0.29575,-3.764 -0.17243,-0.95894 -0.74848,-1.9429 -1.72489,-2.2089 -0.79466,-0.27722 -1.64733,-0.13106 -2.46857,-0.12984 0.18927,-0.81941 0.29562,-1.66968 0.53193,-2.47207 0.19789,0.029 0.59262,-0.25384 0.30987,-0.41406 -0.59686,-0.1115 -1.20713,-0.1859 -1.81442,-0.20352 z"
             id="path3046"
             inkscape:connector-curvature="0" />
          <path
             style="fill:#fffaf1;stroke:none;fill-opacity:1"
             d="m 395.59041,558.45089 c -0.41582,0.19944 -0.81693,0.48372 -1.15336,0.79128 0.19658,0.27028 0.52832,0.44542 0.74273,0.71897 0.98358,0.9613 1.76668,2.12722 2.13381,3.47075 0.0382,0.18961 0.17308,0.44308 0.39593,0.29125 0.42725,-0.15907 0.89576,-0.26154 1.28593,-0.48775 -0.10485,-0.74812 -0.48112,-1.43766 -0.83835,-2.09486 -0.64329,-1.04646 -1.48012,-1.99646 -2.49267,-2.68087 -0.0236,-0.008 -0.0491,-0.0136 -0.074,-0.009 z"
             id="path3049"
             inkscape:connector-curvature="0" />
          <path
             style="fill:#fffaf1;stroke:none;fill-opacity:1"
             d="m 406.17218,557.1859 c -0.89254,0.22894 -1.84011,0.17692 -2.75698,0.26359 -0.73247,0.0639 -1.4873,0.0476 -2.20769,0.13819 -0.006,0.49177 0.0468,1.01366 0.14288,1.50009 0.20741,0.14798 0.43709,-0.14785 0.66965,-0.11579 1.0971,-0.12257 2.20984,-0.18135 3.31551,-0.23335 -0.13638,1.04605 -0.35563,2.08793 -0.60423,3.11247 -1.40305,0.0921 -2.93235,0.3489 -3.98344,1.37903 -0.95176,0.94669 -1.02702,2.76422 -0.005,3.68443 0.94382,0.71125 2.33236,0.58808 3.28108,-0.0597 0.79956,-0.6279 1.18322,-1.63761 1.55627,-2.56162 0.11513,-0.3112 0.21742,-0.62672 0.32183,-0.9421 1.0545,0.0566 2.04535,0.46017 3.04353,0.78075 -0.50161,1.48839 -1.44228,2.86099 -2.7767,3.69496 -0.11042,0.26467 0.34043,0.31436 0.49577,0.4702 0.27555,0.10007 0.49375,0.50663 0.81425,0.38774 1.4052,-0.88779 2.31173,-2.39409 2.92303,-3.92304 0.66794,0.26058 1.28108,0.68113 1.97278,0.86497 0.22149,-0.12922 0.23864,-0.48443 0.39078,-0.69127 0.0645,-0.23105 0.32243,-0.46868 0.22895,-0.71233 -0.69917,-0.33421 -1.41959,-0.62543 -2.12428,-0.94918 0.27294,-0.80492 0.36232,-1.67204 0.63349,-2.47032 0.17936,-0.0166 0.49837,-0.24824 0.22896,-0.39301 -0.54979,-0.17715 -1.1249,-0.28492 -1.69563,-0.36668 -0.23239,0.12566 -0.14159,0.49921 -0.23128,0.72115 -0.1256,0.66357 -0.23731,1.33387 -0.44525,1.97199 -1.00069,-0.33457 -2.02761,-0.62333 -3.06763,-0.76847 0.31697,-1.26797 0.55603,-2.55859 0.83663,-3.83356 0.0879,-0.12349 0.43178,-0.22389 0.22895,-0.41055 -0.37033,-0.20432 -0.76126,-0.48792 -1.18608,-0.53863 z m -1.87811,6.02493 c 0.10927,0.0706 -0.0888,0.36962 -0.11189,0.52283 -0.2947,0.77601 -0.54591,1.70255 -1.2928,2.15101 -0.42115,0.22095 -1.13437,0.24532 -1.32381,-0.30703 -0.29719,-0.69762 0.0978,-1.50724 0.74089,-1.83969 0.59917,-0.36247 1.2984,-0.49531 1.98761,-0.52712 z"
             id="path3051"
             inkscape:connector-curvature="0" />
        </g>
      </g>
    </g>
  </g>
</svg>
