<?xml version="1.0" encoding="UTF-8" standalone="no"?>
<!-- Created with Inkscape (http://www.inkscape.org/) -->

<svg
   xmlns:dc="http://purl.org/dc/elements/1.1/"
   xmlns:cc="http://creativecommons.org/ns#"
   xmlns:rdf="http://www.w3.org/1999/02/22-rdf-syntax-ns#"
   xmlns:svg="http://www.w3.org/2000/svg"
   xmlns="http://www.w3.org/2000/svg"
   xmlns:xlink="http://www.w3.org/1999/xlink"
   xmlns:sodipodi="http://sodipodi.sourceforge.net/DTD/sodipodi-0.dtd"
   xmlns:inkscape="http://www.inkscape.org/namespaces/inkscape"
   width="76.85199"
   height="77.151932"
   id="svg3760"
   version="1.1"
   inkscape:version="0.48.1 "
   sodipodi:docname="LIGHT-JP.svg">
  <defs
     id="defs3762">
    <linearGradient
       id="linearGradient4306">
      <stop
         id="stop4308"
         offset="0"
         style="stop-color:#9f863f;stop-opacity:1" />
      <stop
         style="stop-color:#332815;stop-opacity:1"
         offset="1"
         id="stop4310" />
      <stop
         id="stop4312"
         offset="1"
         style="stop-color:#e9e560;stop-opacity:1" />
    </linearGradient>
    <linearGradient
       id="linearGradient4296">
      <stop
         id="stop4298"
         offset="0"
         style="stop-color:#f0bf7a;stop-opacity:0.91071427;" />
      <stop
         style="stop-color:#f0bf7a;stop-opacity:0.45490196;"
         offset="0.64173013"
         id="stop4300" />
      <stop
         id="stop4302"
         offset="1"
         style="stop-color:#f0bf7a;stop-opacity:0;" />
    </linearGradient>
    <linearGradient
       id="linearGradient4230">
      <stop
         style="stop-color:#f0bf7a;stop-opacity:0.91071427;"
         offset="0"
         id="stop4232" />
      <stop
         id="stop4292"
         offset="0.5"
         style="stop-color:#f0bf7a;stop-opacity:0.45490196;" />
      <stop
         style="stop-color:#f0bf7a;stop-opacity:0;"
         offset="1"
         id="stop4234" />
    </linearGradient>
    <linearGradient
       id="linearGradient3111">
      <stop
         style="stop-color:#f3c87d;stop-opacity:0.7589286;"
         offset="0"
         id="stop3113" />
      <stop
         id="stop3119"
         offset="0.91352373"
         style="stop-color:#d69c45;stop-opacity:1" />
      <stop
         style="stop-color:#e5ff6a;stop-opacity:1"
         offset="1"
         id="stop3115" />
    </linearGradient>
    <linearGradient
       id="linearGradient3101">
      <stop
         style="stop-color:#a5864d;stop-opacity:1"
         offset="0"
         id="stop3103" />
      <stop
         id="stop4238"
         offset="0.78602821"
         style="stop-color:#332815;stop-opacity:1" />
      <stop
         style="stop-color:#1a1911;stop-opacity:1"
         offset="1"
         id="stop3105" />
    </linearGradient>
    <radialGradient
       inkscape:collect="always"
       xlink:href="#linearGradient4230"
       id="radialGradient4236"
       cx="306.59958"
       cy="555.36737"
       fx="306.59958"
       fy="555.36737"
       r="6.0054863"
       gradientTransform="matrix(0.60886416,0.50796393,-0.90996045,1.0907119,625.30825,-205.98784)"
       gradientUnits="userSpaceOnUse" />
    <radialGradient
       inkscape:collect="always"
       xlink:href="#linearGradient4306"
       id="radialGradient4304"
       cx="327.57648"
       cy="574.45367"
       fx="327.57648"
       fy="574.45367"
       r="39.671756"
       gradientTransform="matrix(-1.8589783e-6,1.0770613,-1.1551438,-2.9470962e-6,991.28513,221.58125)"
       gradientUnits="userSpaceOnUse" />
    <linearGradient
       y2="22.401928"
       x2="106.24998"
       y1="22.901928"
       x1="143.49998"
       gradientTransform="matrix(1.2113408,0,0,1.2113407,182.53634,525.19736)"
       gradientUnits="userSpaceOnUse"
       id="linearGradient6058"
       xlink:href="#linearGradient5507-3"
       inkscape:collect="always" />
    <linearGradient
       id="linearGradient5507-3">
      <stop
         style="stop-color:#ff0000;stop-opacity:1;"
         offset="0"
         id="stop5509-1" />
      <stop
         style="stop-color:#ff6600;stop-opacity:1"
         offset="1"
         id="stop5511-9" />
    </linearGradient>
    <linearGradient
       y2="22.401928"
       x2="106.24998"
       y1="22.901928"
       x1="143.49998"
       gradientTransform="matrix(1.2113408,0,0,1.2113407,182.53634,525.19736)"
       gradientUnits="userSpaceOnUse"
       id="linearGradient7449"
       xlink:href="#linearGradient5507-3"
       inkscape:collect="always" />
    <linearGradient
       id="linearGradient7451">
      <stop
         style="stop-color:#ff0000;stop-opacity:1;"
         offset="0"
         id="stop7453" />
      <stop
         style="stop-color:#ff6600;stop-opacity:1"
         offset="1"
         id="stop7455" />
    </linearGradient>
    <linearGradient
       y2="22.401928"
       x2="106.24998"
       y1="22.901928"
       x1="143.49998"
       gradientTransform="matrix(0.71708557,0,0,0.71708544,242.57691,538.31081)"
       gradientUnits="userSpaceOnUse"
       id="linearGradient7459"
       xlink:href="#linearGradient5507-3"
       inkscape:collect="always" />
    <radialGradient
       inkscape:collect="always"
       xlink:href="#linearGradient3111-5"
       id="radialGradient4358-4"
       cx="327.81348"
       cy="574.35522"
       fx="327.81348"
       fy="574.35522"
       r="39.671757"
       gradientTransform="matrix(1,0,0,1.0232282,0,-13.341263)"
       gradientUnits="userSpaceOnUse" />
    <linearGradient
       id="linearGradient3111-5">
      <stop
         style="stop-color:#f3c87d;stop-opacity:0.7589286;"
         offset="0"
         id="stop3113-4" />
      <stop
         id="stop3119-9"
         offset="0.91352373"
         style="stop-color:#d69c45;stop-opacity:1" />
      <stop
         style="stop-color:#e5ff6a;stop-opacity:1"
         offset="1"
         id="stop3115-5" />
    </linearGradient>
    <radialGradient
       inkscape:collect="always"
       xlink:href="#linearGradient3101-4"
       id="radialGradient3107-6"
       cx="316.5849"
       cy="568.73383"
       fx="316.5849"
       fy="568.73383"
       r="35.220825"
       gradientTransform="matrix(0.74739457,0.822666,-0.75830964,0.68893224,512.80084,-84.984613)"
       gradientUnits="userSpaceOnUse" />
    <linearGradient
       id="linearGradient3101-4">
      <stop
         style="stop-color:#a5864d;stop-opacity:1"
         offset="0"
         id="stop3103-8" />
      <stop
         id="stop4238-2"
         offset="0.78602821"
         style="stop-color:#332815;stop-opacity:1" />
      <stop
         style="stop-color:#1a1911;stop-opacity:1"
         offset="1"
         id="stop3105-1" />
    </linearGradient>
    <radialGradient
       inkscape:collect="always"
       xlink:href="#linearGradient4296-8"
       id="radialGradient4294-6"
       gradientUnits="userSpaceOnUse"
       gradientTransform="matrix(0.60886416,0.50796393,-0.90996045,1.0907119,625.30825,-205.98784)"
       cx="306.59958"
       cy="555.36737"
       fx="306.59958"
       fy="555.36737"
       r="6.0054865" />
    <linearGradient
       id="linearGradient4296-8">
      <stop
         id="stop4298-3"
         offset="0"
         style="stop-color:#f0bf7a;stop-opacity:0.91071427;" />
      <stop
         style="stop-color:#f0bf7a;stop-opacity:0.45490196;"
         offset="0.64173013"
         id="stop4300-1" />
      <stop
         id="stop4302-4"
         offset="1"
         style="stop-color:#f0bf7a;stop-opacity:0;" />
    </linearGradient>
  </defs>
  <sodipodi:namedview
     id="base"
     pagecolor="#ffffff"
     bordercolor="#666666"
     borderopacity="1.0"
     inkscape:pageopacity="0.0"
     inkscape:pageshadow="2"
     inkscape:zoom="8.2659639"
     inkscape:cx="68.486793"
     inkscape:cy="47.798881"
     inkscape:document-units="px"
     inkscape:current-layer="g4793"
     showgrid="false"
     fit-margin-top="0"
     fit-margin-left="0"
     fit-margin-right="0"
     fit-margin-bottom="0"
     inkscape:window-width="1280"
     inkscape:window-height="780"
     inkscape:window-x="-8"
     inkscape:window-y="-8"
     inkscape:window-maximized="1"
     inkscape:snap-global="true"
     showguides="true"
     inkscape:guide-bbox="true" />
  <metadata
     id="metadata3765">
    <rdf:RDF>
      <cc:Work
         rdf:about="">
        <dc:format>image/svg+xml</dc:format>
        <dc:type
           rdf:resource="http://purl.org/dc/dcmitype/StillImage" />
        <dc:title />
      </cc:Work>
    </rdf:RDF>
  </metadata>
  <g
     inkscape:label="Layer 1"
     inkscape:groupmode="layer"
     id="layer1"
     transform="translate(-288.98475,-535.52559)">
    <g
       id="g4793"
       transform="matrix(0.96766596,0,0,0.94944363,10.181651,28.771222)">
      <g
         id="g3045">
        <text
           transform="scale(0.99053965,1.0095507)"
           sodipodi:linespacing="125%"
           id="text5503"
           y="555.62982"
           x="310.52072"
           style="font-size:28.68341637px;font-style:normal;font-weight:normal;line-height:125%;letter-spacing:0px;word-spacing:0px;fill:url(#linearGradient7459);fill-opacity:1;stroke:none;font-family:StoneSerITCStd Medium;-inkscape-font-specification:StoneSerITCStd Medium"
           xml:space="preserve"><tspan
             style="font-size:4.30251265px;fill:url(#linearGradient7459);fill-opacity:1"
             y="555.62982"
             x="310.52072"
             id="tspan5505"
             sodipodi:role="line">Created by Falzar FZ</tspan></text>
        <g
           id="g3021"
           transform="translate(0.00547206,0.0258127)">
          <path
             inkscape:connector-curvature="0"
             id="path3048"
             d="m 325.12487,533.76805 c -12.04619,0.12786 -23.83129,6.47825 -30.10708,16.8382 -9.98334,15.47574 -9.2208,37.5796 3.10803,51.55872 7.91058,8.9416 20.14109,13.52621 31.99522,12.68526 12.96871,-0.25474 25.57911,-7.74217 31.66968,-19.25774 5.39871,-9.43832 6.92244,-20.84042 4.7256,-31.45827 -2.298,-13.99137 -13.54381,-26.2257 -27.38604,-29.44165 -4.60618,-0.8471 -9.33291,-0.96193 -14.00541,-0.92452 z"
             style="fill:url(#radialGradient4358-4);fill-opacity:1;stroke:none" />
          <path
             inkscape:connector-curvature="0"
             id="path3048-4"
             d="m 325.42652,538.32169 c -10.69468,0.11351 -21.15757,5.75143 -26.72925,14.94905 -8.86327,13.73946 -8.18628,33.3634 2.75933,45.77415 7.02306,7.9384 17.88138,12.00865 28.40555,11.26205 11.5137,-0.22616 22.70929,-6.87355 28.11653,-17.09714 4.79301,-8.3794 6.14578,-18.50225 4.19542,-27.92884 -2.04018,-12.42163 -12.02428,-23.28334 -24.3135,-26.13848 -4.08939,-0.75206 -8.28581,-0.85401 -12.43408,-0.82079 z"
             style="fill:url(#radialGradient3107-6);fill-opacity:1;stroke:none" />
          <path
             sodipodi:nodetypes="ccc"
             inkscape:connector-curvature="0"
             id="path3109"
             d="m 311.71455,548.43287 c -6.29773,-1.46827 -14.76365,7.17281 -10.62999,13.63988 6.56058,3.42979 14.32286,-7.35284 10.62999,-13.63988 z"
             style="fill:url(#radialGradient4294-6);fill-opacity:1;stroke:none" />
          <g
             style="fill:#ffffff;fill-opacity:1"
             transform="translate(-170.2499,0.42272594)"
             id="g4661">
            <path
               style="fill:#ffffff;fill-opacity:1;stroke:none"
               d="m 495.41679,555.45688 c -0.11272,2.8363 0.001,12.46248 0.006,15.75894 -4.04425,-0.1517 -19.22827,0.21676 -20.12967,0.54761 -1.91426,0.70262 -1.78727,3.19112 -0.26081,3.85418 2.08778,0.90687 11.92333,0.29591 14.52689,0.29335 -0.004,4.02407 -2.12215,7.06125 -4.37736,10.43967 -2.27149,3.18701 -6.06524,6.17457 -8.79468,7.81109 -2.21015,1.32517 -4.03255,2.3092 -6.47335,2.18074 -1.95074,-0.10267 -1.26123,1.9273 -1.10708,3.01297 0.29439,2.07328 4.65537,2.28937 5.83018,1.79537 3.8795,-2.42873 6.53772,-3.81595 9.38178,-6.73421 2.15237,-2.20853 4.59339,-6.60577 5.50582,-7.58146 1.28736,-1.37662 3.89491,-8.55697 4.34106,-10.02249 0.49481,-1.62535 0.97865,-1.48229 2.26805,-1.35073 1.27993,0 2.55985,0 3.83978,0 0.626,5.85665 -0.66704,23.48283 0.9179,23.98911 6.1861,1.07405 19.20837,3.28933 25.14775,1.96442 1.52957,-1.42268 2.67635,-4.66847 1.82575,-7.39139 -7.90596,2.06547 -8.94335,1.17023 -23.65929,1.42155 -0.59975,-5.11984 -0.0152,-13.82908 -2e-5,-19.98367 5.34859,0 10.17536,-0.13578 15.65238,-0.0787 1.55757,0.0162 2.75184,-3.86998 0.48769,-3.89196 -8.39851,-0.16659 -13.27633,0.10886 -20.17607,-0.26156 -0.0957,-5.28627 0.10825,-10.51327 -0.0895,-15.79193 -0.0251,-2.27077 -4.44215,-1.95524 -4.66348,0.0191 z"
               id="path4466"
               inkscape:connector-curvature="0"
               sodipodi:nodetypes="ccssccssscssscccccccscccc" />
            <path
               style="fill:#ffffff;fill-opacity:1;stroke:none"
               d="m 507.27507,559.67595 c 2.33184,1.77217 3.29149,5.74031 5.38996,5.87832 2.81049,0.18485 5.03733,-1.48802 5.84656,-3.18702 0.44606,-0.93652 -8.0955,-3.42564 -10.05858,-4.09577 -1.0472,-0.35748 -1.74088,0.97665 -1.17794,1.40447 z"
               id="path4468"
               inkscape:connector-curvature="0"
               sodipodi:nodetypes="sssss" />
            <path
               style="fill:#ffffff;fill-opacity:1;stroke:none"
               d="m 486.81056,558.61792 c -3.06262,1.59121 -5.6519,1.51564 -9.20874,1.28084 -1.66188,3.45951 1.84276,5.90505 2.08582,6.4388 0.4218,0.92623 2.26623,0.87082 2.99268,0.28717 2.68397,-2.15638 5.97399,-4.21295 5.89216,-7.64775 -0.0208,-0.87319 -0.86454,-0.8253 -1.76192,-0.35906 z"
               id="path4470"
               inkscape:connector-curvature="0"
               sodipodi:nodetypes="scssss" />
          </g>
        </g>
        <g
           style="fill:#ffffff;fill-opacity:1"
           transform="translate(-153.50289,-0.4089672)"
           id="g3084">
          <path
             style="fill:#ffffff;fill-opacity:1;stroke:none"
             d="m 467.9653,541.82937 c -1.11395,0.66894 -2.45175,0.7194 -3.71014,0.86906 -0.284,0.0644 -0.63518,-0.0397 -0.8762,0.14697 -0.0942,0.36113 0.0647,0.75337 0.0811,1.1225 0.0109,0.1563 0.0492,0.53156 0.2841,0.37279 0.25179,-0.27386 0.68663,-0.17074 1.01472,-0.26349 0.5116,-0.0745 1.02056,-0.16709 1.52298,-0.28926 -1.38222,1.67184 -2.28757,3.89121 -1.96715,6.10416 0.15461,1.12921 0.89459,2.13713 1.91071,2.61036 1.13129,0.55499 2.45301,0.55613 3.66469,0.31631 1.15364,-0.22559 2.19499,-1.04011 2.59883,-2.17903 0.42268,-1.01971 0.28551,-2.15197 0.24333,-3.22841 -0.0298,-0.43636 -0.0995,-0.92584 -0.16183,-1.32135 0.58245,0.74771 1.33124,1.41383 2.21637,1.74929 0.24264,-0.0392 0.22562,-0.39937 0.34175,-0.57625 0.0842,-0.28871 0.26474,-0.56311 0.28523,-0.86152 -0.60933,-0.3106 -1.22351,-0.65084 -1.7257,-1.13618 -0.74742,-0.65631 -1.29924,-1.49779 -1.75089,-2.3704 -0.20777,-0.13117 -0.43315,0.15672 -0.64148,0.20633 -0.23058,0.1347 -0.50515,0.21354 -0.70496,0.38955 0.0391,0.3802 0.28814,0.72577 0.35895,1.10709 0.38667,1.47793 0.46214,3.02794 0.3762,4.55113 -0.0254,1.09128 -0.85123,2.13405 -1.93962,2.24638 -1.00496,0.15259 -2.16819,0.16178 -2.96336,-0.58632 -0.82494,-0.7776 -0.80351,-2.04597 -0.58162,-3.07562 0.36774,-1.63965 1.32426,-3.08749 2.46823,-4.27881 0.20149,-0.21836 0.45274,-0.39078 0.66675,-0.5789 0.0352,-0.2755 -0.30065,-0.43291 -0.44267,-0.62751 -0.18237,-0.12512 -0.33288,-0.42147 -0.56833,-0.41887 z"
             id="path3072"
             inkscape:connector-curvature="0" />
          <path
             style="fill:#ffffff;fill-opacity:1;stroke:none"
             d="m 479.75405,541.4236 c -0.20822,0.59117 -0.19843,1.24933 -0.32609,1.86499 -0.0869,0.44017 -0.11288,0.94261 -0.25072,1.34604 -0.80671,0.1282 -1.64416,0.12201 -2.43895,0.31631 -0.16523,0.17692 0.007,0.47586 -0.0308,0.69619 0.0727,0.24624 -0.089,0.67113 0.16398,0.79111 0.66756,-0.1327 1.35307,-0.22205 2.022,-0.30672 -0.50115,2.11665 -1.301,4.15175 -2.36527,6.04344 0.0128,0.24547 0.35678,0.27361 0.52196,0.40098 0.26816,0.10195 0.52571,0.32676 0.81664,0.32271 0.35247,-0.54515 0.58225,-1.1793 0.87307,-1.76527 0.69062,-1.55756 1.1822,-3.20099 1.60374,-4.8536 0.0478,-0.15023 0.044,-0.42523 0.27562,-0.36712 0.58244,-0.008 1.18488,-0.0714 1.75711,0.0303 0.60652,0.26774 0.82952,0.99846 0.80439,1.62465 0.0278,1.15623 -0.0299,2.37293 -0.58181,3.40277 -0.28231,0.51139 -0.95119,0.57698 -1.42795,0.35305 -0.469,-0.15228 -0.82041,-0.52201 -1.26963,-0.7093 -0.2349,0.0877 -0.19012,0.4306 -0.32732,0.61236 -0.037,0.2191 -0.33106,0.46656 -0.17113,0.67844 0.77258,0.58644 1.66613,1.22478 2.68503,1.09112 0.94739,-0.0504 1.69411,-0.81309 2.02514,-1.67581 0.55895,-1.41255 0.65958,-2.97615 0.52666,-4.48107 -0.15878,-0.92788 -0.65173,-1.91356 -1.58782,-2.22056 -0.74447,-0.26722 -1.55232,-0.19291 -2.31982,-0.11502 0.14827,-0.8188 0.30178,-1.64286 0.48591,-2.44901 0.17336,-0.0357 0.52758,-0.225 0.30409,-0.41856 -0.54497,-0.1657 -1.13245,-0.15431 -1.69441,-0.24282 l -0.0465,0.0192 -0.0272,0.0112 z"
             id="path3074"
             inkscape:connector-curvature="0" />
          <path
             style="fill:#ffffff;fill-opacity:1;stroke:none"
             d="m 485.26206,542.85658 c -0.31218,0.26612 -0.72968,0.41778 -0.97182,0.75404 -0.0663,0.31581 0.36006,0.45051 0.51098,0.65818 1.07505,1.04045 1.85758,2.381 2.17718,3.84685 0.12482,0.23694 0.4169,-0.0564 0.5972,-0.0703 0.30932,-0.14177 0.66778,-0.20701 0.9436,-0.40257 -0.2988,-1.50173 -1.16742,-2.84084 -2.1907,-3.94371 -0.3184,-0.31095 -0.64154,-0.64824 -1.0257,-0.86006 l -0.0407,0.0176 z"
             id="path3076"
             inkscape:connector-curvature="0" />
          <path
             style="fill:#ffffff;fill-opacity:1;stroke:none"
             d="m 492.05536,541.93641 c -0.21609,0.10628 -0.13092,0.44727 -0.20988,0.6448 -0.30423,2.06043 -0.5172,4.20859 0.028,6.24693 0.21253,0.24015 0.57423,-0.009 0.84016,0.005 0.20282,-0.0878 0.55513,0.0146 0.65675,-0.21566 -0.12156,-0.81795 0.43097,-1.51511 0.78345,-2.19971 0.14464,-0.30278 0.4265,-0.55671 0.49246,-0.88831 -0.18573,-0.32691 -0.42061,-0.65308 -0.69439,-0.89941 -0.28787,0.22697 -0.40501,0.6409 -0.60178,0.9558 -0.11159,0.19191 -0.24939,0.524 -0.34339,0.63693 0.0516,-1.19406 0.16635,-2.39313 0.44045,-3.55609 0.0646,-0.17541 0.4504,-0.18933 0.31506,-0.43613 -0.53865,-0.18312 -1.12448,-0.24057 -1.6897,-0.29554 l -0.0173,0.002 z"
             id="path3078"
             inkscape:connector-curvature="0" />
          <path
             style="fill:#ffffff;fill-opacity:1;stroke:none"
             d="m 202.58747,7.376271 c -0.23385,0.068705 -0.0651,0.3927464 -0.0864,0.5703028 0.18668,1.7051229 0.28218,3.4308742 0.19111,5.1418262 -0.29511,1.455044 -1.30514,2.725485 -2.60583,3.405828 -0.49318,0.288479 -1.04128,0.526895 -1.541,0.774371 -0.006,0.266313 0.29798,0.440472 0.43289,0.651882 0.18555,0.155778 0.32866,0.471041 0.59851,0.472039 1.37638,-0.60902 2.76337,-1.36914 3.65934,-2.621026 0.78687,-1.050275 1.09653,-2.384544 1.04414,-3.681124 0.0236,-1.389381 -0.0902,-2.7755618 -0.14713,-4.1619973 0.0487,-0.1235417 0.32756,-0.2054281 0.25027,-0.3958751 -0.21564,-0.1574316 -0.53714,-0.065403 -0.79023,-0.1198243 -0.33478,-0.018912 -0.67021,-0.041303 -1.00562,-0.036402 z"
             id="path3082"
             inkscape:connector-curvature="0"
             transform="matrix(1.0334145,0,0,1.0532484,288.11916,533.73824)" />
        </g>
      </g>
    </g>
  </g>
</svg>
