<?xml version="1.0" encoding="UTF-8" standalone="no"?>
<!-- Created with Inkscape (http://www.inkscape.org/) -->

<svg
   xmlns:dc="http://purl.org/dc/elements/1.1/"
   xmlns:cc="http://creativecommons.org/ns#"
   xmlns:rdf="http://www.w3.org/1999/02/22-rdf-syntax-ns#"
   xmlns:svg="http://www.w3.org/2000/svg"
   xmlns="http://www.w3.org/2000/svg"
   xmlns:xlink="http://www.w3.org/1999/xlink"
   xmlns:sodipodi="http://sodipodi.sourceforge.net/DTD/sodipodi-0.dtd"
   xmlns:inkscape="http://www.inkscape.org/namespaces/inkscape"
   width="77.201485"
   height="77.58036"
   id="svg3760"
   version="1.1"
   inkscape:version="0.48.1 "
   sodipodi:docname="DARK.svg">
  <defs
     id="defs3762">
    <linearGradient
       id="linearGradient3795">
      <stop
         id="stop3797"
         offset="0"
         style="stop-color:#1c2224;stop-opacity:1" />
      <stop
         style="stop-color:#2a2723;stop-opacity:1"
         offset="0.63092703"
         id="stop3799" />
      <stop
         id="stop3801"
         offset="1"
         style="stop-color:#e6282e;stop-opacity:1" />
    </linearGradient>
    <linearGradient
       id="linearGradient3432">
      <stop
         style="stop-color:#7260a4;stop-opacity:1;"
         offset="0"
         id="stop3434" />
      <stop
         id="stop3793"
         offset="0.5"
         style="stop-color:#8d4b99;stop-opacity:1;" />
      <stop
         style="stop-color:#a8378f;stop-opacity:1"
         offset="1"
         id="stop3436" />
    </linearGradient>
    <linearGradient
       id="linearGradient3418">
      <stop
         id="stop3420"
         offset="0"
         style="stop-color:#d23388;stop-opacity:1" />
      <stop
         style="stop-color:#ef2e43;stop-opacity:1"
         offset="0.29348826"
         id="stop3422" />
      <stop
         id="stop3430"
         offset="0.68986225"
         style="stop-color:#e5282c;stop-opacity:1" />
      <stop
         id="stop3424"
         offset="1"
         style="stop-color:#602b33;stop-opacity:1" />
    </linearGradient>
    <linearGradient
       id="linearGradient3410">
      <stop
         style="stop-color:#808080;stop-opacity:1;"
         offset="0"
         id="stop3412" />
      <stop
         id="stop3426"
         offset="0.5"
         style="stop-color:#808080;stop-opacity:0.49803922;" />
      <stop
         style="stop-color:#808080;stop-opacity:0.24705882;"
         offset="0.75"
         id="stop3428" />
      <stop
         style="stop-color:#808080;stop-opacity:0;"
         offset="1"
         id="stop3414" />
    </linearGradient>
    <linearGradient
       id="linearGradient3177">
      <stop
         id="stop3179"
         offset="0"
         style="stop-color:#800000;stop-opacity:1" />
      <stop
         style="stop-color:#d69c45;stop-opacity:1"
         offset="0.21338069"
         id="stop3181" />
      <stop
         id="stop3183"
         offset="1"
         style="stop-color:#e5ff6a;stop-opacity:1" />
    </linearGradient>
    <linearGradient
       id="linearGradient4306">
      <stop
         id="stop4308"
         offset="0"
         style="stop-color:#9f863f;stop-opacity:1" />
      <stop
         style="stop-color:#332815;stop-opacity:1"
         offset="1"
         id="stop4310" />
      <stop
         id="stop4312"
         offset="1"
         style="stop-color:#e9e560;stop-opacity:1" />
    </linearGradient>
    <linearGradient
       id="linearGradient4296">
      <stop
         id="stop4298"
         offset="0"
         style="stop-color:#f0bf7a;stop-opacity:0.91071427;" />
      <stop
         style="stop-color:#f0bf7a;stop-opacity:0.45490196;"
         offset="0.64173013"
         id="stop4300" />
      <stop
         id="stop4302"
         offset="1"
         style="stop-color:#f0bf7a;stop-opacity:0;" />
    </linearGradient>
    <linearGradient
       id="linearGradient4230">
      <stop
         style="stop-color:#f0bf7a;stop-opacity:0.91071427;"
         offset="0"
         id="stop4232" />
      <stop
         id="stop4292"
         offset="0.5"
         style="stop-color:#f0bf7a;stop-opacity:0.45490196;" />
      <stop
         style="stop-color:#f0bf7a;stop-opacity:0;"
         offset="1"
         id="stop4234" />
    </linearGradient>
    <linearGradient
       id="linearGradient3111">
      <stop
         style="stop-color:#f3c87d;stop-opacity:0.7589286;"
         offset="0"
         id="stop3113" />
      <stop
         id="stop3119"
         offset="0.91352373"
         style="stop-color:#d69c45;stop-opacity:1" />
      <stop
         style="stop-color:#e5ff6a;stop-opacity:1"
         offset="1"
         id="stop3115" />
    </linearGradient>
    <linearGradient
       id="linearGradient3101">
      <stop
         style="stop-color:#a5864d;stop-opacity:1"
         offset="0"
         id="stop3103" />
      <stop
         id="stop4238"
         offset="0.78602821"
         style="stop-color:#332815;stop-opacity:1" />
      <stop
         style="stop-color:#1a1911;stop-opacity:1"
         offset="1"
         id="stop3105" />
    </linearGradient>
    <radialGradient
       inkscape:collect="always"
       xlink:href="#linearGradient4230"
       id="radialGradient4236"
       cx="306.59958"
       cy="555.36737"
       fx="306.59958"
       fy="555.36737"
       r="6.0054865"
       gradientTransform="matrix(0.60886416,0.50796393,-0.90996045,1.0907119,625.30825,-205.98784)"
       gradientUnits="userSpaceOnUse" />
    <radialGradient
       inkscape:collect="always"
       xlink:href="#linearGradient4306"
       id="radialGradient4304"
       cx="327.57648"
       cy="574.45367"
       fx="327.57648"
       fy="574.45367"
       r="39.671757"
       gradientTransform="matrix(-1.8589783e-6,1.0770613,-1.1551438,-2.9470962e-6,991.28513,221.58125)"
       gradientUnits="userSpaceOnUse" />
    <linearGradient
       y2="22.401928"
       x2="106.24998"
       y1="22.901928"
       x1="143.49998"
       gradientTransform="matrix(1.2113408,0,0,1.2113407,182.53634,525.19736)"
       gradientUnits="userSpaceOnUse"
       id="linearGradient6058"
       xlink:href="#linearGradient5507-3"
       inkscape:collect="always" />
    <linearGradient
       id="linearGradient5507-3">
      <stop
         style="stop-color:#ff0000;stop-opacity:1;"
         offset="0"
         id="stop5509-1" />
      <stop
         style="stop-color:#ff6600;stop-opacity:1"
         offset="1"
         id="stop5511-9" />
    </linearGradient>
    <linearGradient
       y2="22.401928"
       x2="106.24998"
       y1="22.901928"
       x1="143.49998"
       gradientTransform="matrix(1.2113408,0,0,1.2113407,182.53634,525.19736)"
       gradientUnits="userSpaceOnUse"
       id="linearGradient7449"
       xlink:href="#linearGradient5507-3"
       inkscape:collect="always" />
    <linearGradient
       id="linearGradient7451">
      <stop
         style="stop-color:#ff0000;stop-opacity:1;"
         offset="0"
         id="stop7453" />
      <stop
         style="stop-color:#ff6600;stop-opacity:1"
         offset="1"
         id="stop7455" />
    </linearGradient>
    <linearGradient
       y2="22.401928"
       x2="106.24998"
       y1="22.901928"
       x1="143.49998"
       gradientTransform="matrix(0.37606897,0,0,0.37606891,284.34192,546.05033)"
       gradientUnits="userSpaceOnUse"
       id="linearGradient7459"
       xlink:href="#linearGradient5507-3"
       inkscape:collect="always" />
    <linearGradient
       id="linearGradient3111-5">
      <stop
         style="stop-color:#ff0000;stop-opacity:1"
         offset="0"
         id="stop3113-4" />
      <stop
         id="stop3119-9"
         offset="0.91352373"
         style="stop-color:#d69c45;stop-opacity:1" />
      <stop
         style="stop-color:#e5ff6a;stop-opacity:1"
         offset="1"
         id="stop3115-5" />
    </linearGradient>
    <linearGradient
       id="linearGradient3101-4">
      <stop
         style="stop-color:#a5864d;stop-opacity:1"
         offset="0"
         id="stop3103-8" />
      <stop
         id="stop4238-2"
         offset="0.78602821"
         style="stop-color:#332815;stop-opacity:1" />
      <stop
         style="stop-color:#1a1911;stop-opacity:1"
         offset="1"
         id="stop3105-1" />
    </linearGradient>
    <linearGradient
       id="linearGradient4296-8">
      <stop
         id="stop4298-3"
         offset="0"
         style="stop-color:#f0bf7a;stop-opacity:0.91071427;" />
      <stop
         style="stop-color:#f0bf7a;stop-opacity:0.45490196;"
         offset="0.64173013"
         id="stop4300-1" />
      <stop
         id="stop4302-4"
         offset="1"
         style="stop-color:#f0bf7a;stop-opacity:0;" />
    </linearGradient>
    <linearGradient
       inkscape:collect="always"
       xlink:href="#linearGradient3418"
       id="linearGradient3416"
       x1="297.6759"
       y1="553.48169"
       x2="359.14716"
       y2="570.18866"
       gradientUnits="userSpaceOnUse" />
    <linearGradient
       inkscape:collect="always"
       xlink:href="#linearGradient3432"
       id="linearGradient3438"
       x1="301.63666"
       y1="603.81531"
       x2="324.00909"
       y2="564.27753"
       gradientUnits="userSpaceOnUse" />
    <linearGradient
       inkscape:collect="always"
       xlink:href="#linearGradient3795"
       id="linearGradient3791"
       x1="328.6752"
       y1="598.91052"
       x2="335.13403"
       y2="548.35461"
       gradientUnits="userSpaceOnUse" />
    <linearGradient
       inkscape:collect="always"
       xlink:href="#linearGradient5507-3"
       id="linearGradient3081"
       gradientUnits="userSpaceOnUse"
       gradientTransform="matrix(0.37606897,0,0,0.37606891,284.34192,546.05033)"
       x1="143.49998"
       y1="22.901928"
       x2="106.24998"
       y2="22.401928" />
    <linearGradient
       inkscape:collect="always"
       xlink:href="#linearGradient3418"
       id="linearGradient3083"
       gradientUnits="userSpaceOnUse"
       x1="297.6759"
       y1="553.48169"
       x2="359.14716"
       y2="570.18866" />
    <linearGradient
       inkscape:collect="always"
       xlink:href="#linearGradient3795"
       id="linearGradient3085"
       gradientUnits="userSpaceOnUse"
       x1="328.6752"
       y1="598.91052"
       x2="335.13403"
       y2="548.35461" />
    <linearGradient
       inkscape:collect="always"
       xlink:href="#linearGradient3432"
       id="linearGradient3087"
       gradientUnits="userSpaceOnUse"
       x1="301.63666"
       y1="603.81531"
       x2="324.00909"
       y2="564.27753" />
  </defs>
  <sodipodi:namedview
     id="base"
     pagecolor="#ffffff"
     bordercolor="#666666"
     borderopacity="1.0"
     inkscape:pageopacity="0.0"
     inkscape:pageshadow="2"
     inkscape:zoom="2.9224596"
     inkscape:cx="139.06938"
     inkscape:cy="40.697123"
     inkscape:document-units="px"
     inkscape:current-layer="g4793"
     showgrid="false"
     fit-margin-top="0.2"
     fit-margin-left="0.2"
     fit-margin-right="0.2"
     fit-margin-bottom="0.2"
     inkscape:window-width="1280"
     inkscape:window-height="780"
     inkscape:window-x="-8"
     inkscape:window-y="-8"
     inkscape:window-maximized="1"
     inkscape:snap-global="true"
     showguides="true"
     inkscape:guide-bbox="true" />
  <metadata
     id="metadata3765">
    <rdf:RDF>
      <cc:Work
         rdf:about="">
        <dc:format>image/svg+xml</dc:format>
        <dc:type
           rdf:resource="http://purl.org/dc/dcmitype/StillImage" />
        <dc:title />
      </cc:Work>
    </rdf:RDF>
  </metadata>
  <g
     inkscape:label="Layer 1"
     inkscape:groupmode="layer"
     id="layer1"
     transform="translate(-288.81189,-535.37263)">
    <g
       id="g4793"
       transform="matrix(0.96766596,0,0,0.94944363,10.181651,28.771222)">
      <g
         id="g3732">
        <g
           id="g3065">
          <text
             xml:space="preserve"
             style="font-size:15.04275513px;font-style:normal;font-weight:normal;line-height:125%;letter-spacing:0px;word-spacing:0px;fill:url(#linearGradient3081);fill-opacity:1;stroke:none;font-family:StoneSerITCStd Medium;-inkscape-font-specification:StoneSerITCStd Medium"
             x="319.97443"
             y="555.13312"
             id="text5503"
             sodipodi:linespacing="125%"
             transform="scale(0.99053965,1.0095507)"><tspan
               sodipodi:role="line"
               id="tspan5505"
               x="319.97443"
               y="555.13312"
               style="font-size:2.25641346px;fill:url(#linearGradient3081);fill-opacity:1">Created by Falzar FZ</tspan></text>
          <g
             transform="translate(0.00547206,0.0258127)"
             id="g3021"
             style="display:inline">
            <path
               style="fill:url(#linearGradient3083);fill-opacity:1;stroke:none"
               d="m 325.12487,533.76805 c -12.04619,0.12786 -23.83129,6.47825 -30.10708,16.8382 -9.98334,15.47574 -9.2208,37.5796 3.10803,51.55872 7.91058,8.9416 20.14109,13.52621 31.99522,12.68526 12.96871,-0.25474 25.57911,-7.74217 31.66968,-19.25774 5.39871,-9.43832 6.92244,-20.84042 4.7256,-31.45827 -2.298,-13.99137 -13.54381,-26.2257 -27.38604,-29.44165 -4.60618,-0.8471 -9.33291,-0.96193 -14.00541,-0.92452 z"
               id="path3048"
               inkscape:connector-curvature="0" />
            <g
               id="g4771"
               transform="translate(-85.682227,0.42272594)"
               style="fill:#ffffff;fill-opacity:1" />
            <path
               style="fill:url(#linearGradient3085);fill-opacity:1;stroke:none"
               d="m 313.77433,554.36015 c -16.09525,1.91834 -22.00562,49.43006 23.19335,43.55164 18.17503,-11.0868 26.88882,-21.81763 25.25395,-29.59012 -4.28871,-9.28069 -6.36597,-6.81399 -12.19801,-3.9823 -22.7935,5.71562 -22.42028,-12.56551 -36.24929,-9.97922 z"
               id="path3048-3-1"
               inkscape:connector-curvature="0"
               sodipodi:nodetypes="ccccc" />
            <path
               style="fill:url(#linearGradient3087);fill-opacity:1;stroke:none"
               d="m 319.25832,534.42259 c -17.1721,2.74453 -27.47255,16.64483 -30.52308,32.75312 -2.26633,13.24516 2.11531,28.84901 11.0273,36.73852 7.14713,6.32713 11.97183,10.97739 31.22638,11.13688 12.89226,0.10679 25.58694,-8.765 32.11536,-20.28954 6.64365,-11.7279 4.06281,-28.09614 3.09577,-32.22298 -2.69983,4.70986 -7.44527,9.41562 -18.39552,9.37863 -7.7157,0.7474 -9.21291,3.73285 -0.53087,8.98006 -6.73148,4.93847 -7.36609,6.57008 -10.86213,7.46593 -2.14967,-2.65959 -6.84292,-8.09326 -10.31532,-7.86934 -2.84444,17.35613 -10.7591,12.69319 -15.17995,6.49425 -9.81332,-15.53051 -11.50843,-17.57165 -11.65137,-25.45428 1.57491,-14.02577 5.3228,-21.8361 19.99343,-27.11125 z"
               id="path3048-3"
               inkscape:connector-curvature="0"
               sodipodi:nodetypes="ccssscccccccc" />
          </g>
          <g
             id="g3783"
             transform="translate(-92.915959,-2.0293745)"
             style="fill:#fff9f9;fill-opacity:1">
            <path
               sodipodi:nodetypes="cccccccccccccccccccccccccccscccccccsccccccccccccccccccccccccccccccccccccccccccccccccccc"
               inkscape:connector-curvature="0"
               d="m 413.01766,587.4904 c 0,0 -0.55161,1.94613 -0.008,2.97743 -0.005,1.98581 -0.0191,6.96001 -0.0245,8.93742 -0.77264,1.29516 -0.008,2.92702 -0.008,2.92702 l 18.68984,-0.006 c 0,0 0.76573,-1.32511 0.0358,-3.01444 0.0237,-1.9919 0.0828,-6.96675 0.10623,-8.93693 0.60471,-1.0486 0.0343,-2.8842 0.0343,-2.8842 z m 15.35787,2.97189 -0.0174,2.97044 -11.5988,-0.013 -0.0618,-2.92409 z m 0.005,5.95467 -0.0476,2.93962 -11.57866,0.009 -0.0583,-2.96932 z m -7.53731,-22.78955 c -0.008,1.02184 0.72561,2.91431 0.72561,2.91431 0,0 -8.81406,0.0127 -11.01918,0.0759 -0.84154,0.86957 -0.89045,1.6531 0.53266,2.46141 1.25664,-0.42279 3.63252,-0.54071 5.33748,-0.19547 0.26111,0.60596 0.3644,3.63656 0.3644,3.63656 0,0 -7.91714,0.078 -9.13135,0.5929 -2.17006,0.52322 -4.44581,3.53322 -0.0191,3.34867 3.51001,-1.42106 8.7536,-1.29677 14.68306,-1.32488 5.264,-0.025 11.49373,1.10179 15.68613,1.88855 2.27251,-0.77132 2.78907,-2.76731 2.5534,-4.46209 -1.82129,0.0865 -11.70182,-0.21869 -11.70182,-0.21869 0,0 0.20182,-2.27389 0.63401,-3.71781 1.99455,0.0897 4.80944,0.11071 5.69293,-0.34803 0.54582,-0.97375 0.53097,-1.75842 -0.37434,-1.98571 -1.18734,-0.35781 -10.56927,0.17858 -10.56927,0.17858 0,0 -0.39518,-1.38603 -0.72864,-2.52776 -0.5456,-1.86801 -2.65118,-2.13138 -2.66595,-0.31641 z m 5.60505,4.96067 -0.47222,3.96696 -6.95092,-0.0165 -0.39457,-3.91962 z m 0.84294,-21.70474 c 0,0 -0.8205,1.34369 0.026,2.81971 0.0226,2.44416 0.10944,11.84527 0.10944,11.84527 0,0 2.14876,1.45528 4.79874,0.11477 4.01165,0.0272 11.64336,0.0616 11.64336,0.0616 0,0 0.0227,20.79949 0.10443,28.88613 -0.0131,2.48672 3.79959,2.5133 3.75503,0.24226 0.1006,-8.81765 0.0533,-43.93432 0.0533,-43.93432 0,0 -1.43709,-0.95336 -3.13266,-0.082 -2.85262,-0.007 -11.2583,0.0172 -14.12434,0.01 -2.04531,-0.74834 -3.23338,0.0373 -3.23338,0.0373 z m 16.63677,2.03986 -0.0225,3.83293 -13.54429,-0.0476 -0.051,-3.88821 z m -0.024,6.8507 -0.0921,3.90999 -13.40089,-0.0439 -0.09,-3.90559 z m -46.71643,-9.01033 c 0,0 0.24357,29.05173 -0.20401,33.21297 -1.82121,4.43875 -3.87873,6.38363 -4.95587,7.10878 -0.76282,1.12863 0.79281,2.49473 2.81122,3.78774 9.73281,3.21699 6.79265,-28.19443 6.79265,-28.19443 l 16.98372,0.0111 c 0,0 0.0473,-10.66655 0.0591,-13.31582 0.87955,-1.53213 0.0115,-2.57983 0.0115,-2.57983 0,0 -1.25819,-1.11691 -2.82517,-0.004 -2.98278,-0.004 -11.95931,-0.017 -15.0715,-0.0214 -2.29011,-1.30775 -3.60164,-0.005 -3.60164,-0.005 z m 18.47387,6.86575 -14.47058,-0.0129 -0.006,-4.70674 14.57497,0.0916 z m 0.0457,6.98211 -14.48963,0.13086 0.003,-4.99066 14.56805,0.0267 z"
               style="fill:#fff9f9;fill-opacity:1;stroke:none"
               id="path3452" />
          </g>
        </g>
        <g
           style="fill:#fff9f9;fill-opacity:1"
           id="g3172"
           transform="matrix(1.0264852,0,0,1.0264852,-109.55771,-16.673069)">
          <path
             style="fill:#fff9f9;stroke:none;fill-opacity:1"
             d="m 402.74477,543.1052 c 0.0409,0.15812 -0.11123,0.49633 0.14273,0.47276 0.2522,-0.002 0.48304,0.17666 0.50386,0.44307 0.0592,0.89363 0.0237,1.79295 0.0362,2.68876 -0.0103,1.90422 0.0135,3.80925 -0.0313,5.71293 0.0248,0.27279 -0.20472,0.49134 -0.46058,0.49783 -0.25409,-0.0416 -0.16444,0.23923 -0.18941,0.40102 -0.0408,0.23881 0.31355,0.0795 0.4537,0.12555 0.68957,0 1.37913,0 2.0687,0 0.009,-0.1397 0.0557,-0.41069 -0.0466,-0.50724 -0.24762,-0.008 -0.55883,-0.10968 -0.58341,-0.39963 -0.0565,-1.19229 -0.0227,-2.38804 -0.0405,-3.58168 -0.0306,-0.22229 -0.0191,-0.4019 0.24859,-0.32155 0.32885,0.009 0.77856,-0.0618 0.96109,0.28371 0.20657,0.34139 0.17445,0.75842 0.25493,1.13483 0.0605,0.0884 0.28055,0.0735 0.22367,-0.0697 0,-1.10431 0,-2.20861 0,-3.31292 -0.097,-0.0669 -0.26844,-0.0159 -0.25102,0.12941 -0.0436,0.39221 -0.0465,0.87101 -0.36432,1.14479 -0.32948,0.15717 -0.71825,0.077 -1.07243,0.11249 0,-1.464 0,-2.92801 0,-4.39201 0.39716,0.0175 0.81064,-0.0393 1.19843,0.0538 0.38385,0.18435 0.46558,0.67719 0.55087,1.06017 0.0639,0.2234 0.0337,0.48577 0.14651,0.68886 0.10512,0.0429 0.25286,0.016 0.19828,-0.13538 0,-0.74328 0,-1.48656 0,-2.22985 -0.3441,-0.0487 -0.72494,-0.007 -1.08319,-0.0209 -0.94807,0 -1.89615,0 -2.84421,0 l -0.0205,0.0209 z"
             id="path3107"
             inkscape:connector-curvature="0" />
          <path
             style="fill:#fff9f9;stroke:none;fill-opacity:1"
             d="m 407.12049,543.1052 c 0.0425,0.15351 -0.1119,0.50829 0.13771,0.46887 0.25165,0.003 0.54107,0.16692 0.52646,0.45791 0.0422,2.65387 0.0301,5.30867 0.007,7.96275 -0.0293,0.27779 0.0806,0.65056 -0.19098,0.83022 -0.12052,0.11818 -0.30124,0.0691 -0.43561,0.13539 -0.0863,0.13433 -0.0245,0.3166 -0.045,0.46687 0.3441,0.0466 0.72492,0.002 1.08317,0.0133 0.48445,-0.003 0.96892,-0.006 1.45338,-0.009 0.0283,-0.12939 0.0603,-0.30881 0.0136,-0.44597 -0.15165,-0.10139 -0.37523,-0.0484 -0.50984,-0.19512 -0.19952,-0.17589 -0.14313,-0.49256 -0.16759,-0.73365 -0.0258,-2.59432 -0.0325,-5.18939 0.008,-7.78354 0.0202,-0.22527 0.0175,-0.54145 0.27506,-0.62021 0.12543,-0.067 0.28167,-0.0562 0.40143,-0.12144 -0.0337,-0.15081 0.13184,-0.50103 -0.12698,-0.44697 -0.80319,0 -1.60638,0 -2.40957,0 l -0.0206,0.0209 z"
             id="path3109"
             inkscape:connector-curvature="0" />
          <path
             style="fill:#fff9f9;stroke:none;fill-opacity:1"
             d="m 409.9647,543.10421 c 0.0403,0.16253 -0.10814,0.4762 0.13641,0.48681 0.43662,0.14174 0.60128,0.63162 0.79248,1.01258 0.0564,0.36695 0.008,0.75823 0.0244,1.13462 -0.009,2.16008 0.0221,4.32088 -0.0254,6.48049 0.009,0.33388 -0.21946,0.67129 -0.55582,0.70839 -0.20745,0.0335 -0.0738,0.33787 -0.12473,0.49293 0.20712,0.0628 0.47663,0.009 0.7079,0.0271 0.43855,0 0.87709,0 1.31564,0 0.0245,-0.13514 0.0493,-0.32088 -0.005,-0.4619 -0.15191,-0.10249 -0.36366,-0.053 -0.51767,-0.16226 -0.32463,-0.15459 -0.32695,-0.57888 -0.33384,-0.8919 -0.0256,-2.15661 -0.0346,-4.31392 -0.011,-6.47058 1.18271,2.65182 2.32171,5.32399 3.50642,7.97469 0.20001,0.0127 0.43856,0.033 0.62999,-0.009 0.0145,-2.92896 -0.005,-5.85825 0.0332,-8.787 0.0237,-0.32358 -0.0322,-0.71687 0.25591,-0.93374 0.10526,-0.10811 0.27721,-0.10021 0.40046,-0.16127 -0.0409,-0.15402 0.11203,-0.51205 -0.14554,-0.45991 -0.61468,0 -1.22937,0 -1.84404,0 -0.001,0.13336 -0.11675,0.50432 0.0937,0.48778 0.33171,-0.002 0.70694,0.22059 0.72277,0.58932 0.10313,1.01595 0.0517,2.04115 0.0674,3.06106 -0.008,1.12606 0.0165,2.25337 -0.0235,3.37862 -1.09391,-2.49379 -2.17685,-4.99258 -3.26519,-7.4889 -0.59814,-0.0326 -1.21097,-0.0148 -1.81475,-0.0289 l -0.0205,0.0209 z"
             id="path3111"
             inkscape:connector-curvature="0" />
          <path
             style="fill:#fff9f9;stroke:none;fill-opacity:1"
             d="m 418.41237,542.92701 c -0.60655,0.0604 -1.15945,0.45551 -1.42951,1.01035 -0.35664,0.69894 -0.35279,1.5303 -0.25385,2.29513 0.18784,1.07165 0.98154,1.86952 1.55805,2.74143 0.48991,0.69 0.90465,1.5141 0.81195,2.39367 -0.0317,0.5757 -0.19307,1.22824 -0.70128,1.55094 -0.33197,0.16829 -0.76141,0.0304 -0.95817,-0.28769 -0.40612,-0.5549 -0.47101,-1.2753 -0.59287,-1.93818 -0.0363,-0.10194 -0.19456,-0.06 -0.25883,-0.0378 0.0103,0.78845 0.006,1.57921 0.0235,2.36623 0.28614,0.32723 0.73655,0.42828 1.13495,0.54054 0.70926,0.12918 1.51358,-0.0693 1.97058,-0.6665 0.60766,-0.78055 0.69612,-1.84597 0.59964,-2.80537 -0.15688,-1.25082 -0.98677,-2.24764 -1.68629,-3.2346 -0.37741,-0.52998 -0.75613,-1.12221 -0.7281,-1.80677 -10e-4,-0.49963 0.0419,-1.10471 0.44583,-1.4275 0.26789,-0.20578 0.66144,-0.0913 0.82737,0.19081 0.32293,0.4798 0.39588,1.07504 0.52343,1.62392 0.0968,0.023 0.29313,0.0631 0.24587,-0.10054 -0.013,-0.68761 0.0211,-1.38188 -0.0359,-2.0656 -0.15148,-0.25989 -0.5002,-0.26655 -0.76361,-0.31111 -0.24325,-0.0249 -0.48835,-0.0328 -0.73273,-0.0313 z"
             id="path3113"
             inkscape:connector-curvature="0" />
          <path
             style="fill:#fff9f9;stroke:none;fill-opacity:1"
             d="m 422.3515,543.08529 c -0.48824,0.004 -0.97743,-0.003 -1.46509,0.0109 -0.097,0.73291 -0.16066,1.48656 -0.22952,2.22686 0.0985,0.0658 0.30146,0.0644 0.28922,-0.10371 0.16482,-0.49785 0.28562,-1.08201 0.70703,-1.41935 0.28901,-0.19562 0.66989,-0.0956 0.99805,-0.1374 0.0811,0.10695 0.009,0.37437 0.0344,0.54056 -0.003,2.7036 0.0297,5.40793 -0.009,8.11108 -0.006,0.23947 -0.0764,0.53838 -0.3526,0.58036 -0.12506,0.0506 -0.37026,-0.018 -0.31546,0.197 -0.008,0.1774 -0.0771,0.44246 0.19434,0.35548 0.77293,0 1.54584,0 2.31875,0 0.009,-0.1398 0.0557,-0.41051 -0.0465,-0.50736 -0.22912,-0.0133 -0.49777,-0.0912 -0.56974,-0.34281 -0.0853,-0.28764 -0.0167,-0.61009 -0.0398,-0.91181 -0.005,-2.67449 -0.0106,-5.34898 -0.0159,-8.02347 0.32509,0.0386 0.68343,-0.0495 0.98649,0.0946 0.42666,0.24888 0.52562,0.79538 0.69654,1.23021 0.0567,0.14368 0.0915,0.42683 0.31144,0.35955 0.10409,-0.0664 -0.0105,-0.2424 0.0155,-0.34267 -0.0575,-0.63351 -0.11754,-1.26677 -0.17662,-1.90012 -0.4197,-0.0441 -0.87035,-0.006 -1.30197,-0.0189 -0.67654,-1.4e-4 -1.35309,0 -2.02962,9.9e-4 z"
             id="path3115"
             inkscape:connector-curvature="0" />
          <path
             style="fill:#fff9f9;stroke:none;fill-opacity:1"
             d="m 426.18611,543.1052 c 0.0425,0.15351 -0.1119,0.50829 0.13771,0.46887 0.25217,0.003 0.54008,0.16709 0.52743,0.45791 0.0419,2.70931 0.0297,5.41951 0.005,8.129 3e-5,0.23571 0.028,0.54473 -0.20609,0.67492 -0.11788,0.11382 -0.29879,0.0518 -0.4239,0.12941 -0.0686,0.14257 -0.0448,0.3409 -0.0195,0.48181 1.41592,0 2.83183,0 4.24776,0 0.0936,-0.32441 0.0765,-0.69621 0.12445,-1.03862 0.0519,-0.55166 0.0909,-1.10476 0.15489,-1.65512 -0.20524,-0.11994 -0.31708,0.0671 -0.31872,0.27079 -0.14132,0.54344 -0.28062,1.13887 -0.67655,1.5549 -0.32574,0.30834 -0.82899,0.28209 -1.23849,0.21005 -0.28427,-0.0889 -0.43536,-0.39568 -0.42043,-0.68678 -0.0505,-1.24975 -0.0257,-2.50146 -0.0435,-3.75202 0.3285,0.0289 0.70712,-0.0699 1.0031,0.0995 0.33893,0.29402 0.33659,0.80052 0.39365,1.21816 -0.0452,0.25432 0.35444,0.16956 0.23242,-0.0644 0,-1.08307 0,-2.16614 0,-3.24921 -0.0753,-0.0507 -0.26502,-0.0376 -0.22855,0.10353 -0.0495,0.40118 -0.0496,0.8782 -0.36432,1.16569 -0.27238,0.18654 -0.6336,0.0808 -0.94254,0.1115 -0.18922,-0.008 -0.0432,-0.35541 -0.0878,-0.50968 0.004,-1.18063 0.009,-2.36125 0.0136,-3.54188 0.39862,0.0114 0.81782,-0.0566 1.20528,0.0358 0.39051,0.18961 0.48744,0.65597 0.55868,1.04822 0.0674,0.22466 0.0525,0.48118 0.1426,0.69385 0.0875,0.0407 0.28417,0.059 0.23442,-0.0946 0,-0.7539 0,-1.50781 0,-2.26171 -0.34411,-0.0487 -0.72494,-0.007 -1.08318,-0.0209 -0.96891,0 -1.93782,0 -2.90673,0 l -0.0206,0.0209 z"
             id="path3117"
             inkscape:connector-curvature="0" />
          <path
             style="fill:#fff9f9;stroke:none;fill-opacity:1"
             d="m 431.12441,543.1052 c 0.0436,0.14786 -0.10867,0.49484 0.12307,0.46688 0.23666,0.0112 0.54815,0.13171 0.53817,0.41809 0.0737,1.27918 0.0319,2.56259 0.0492,3.8435 -0.008,1.5255 0.0347,3.05277 -0.0333,4.57705 0.0154,0.22682 -0.12135,0.43248 -0.34015,0.48192 -0.12555,0.0335 -0.37107,0.0173 -0.33697,0.21901 0.019,0.0959 -0.037,0.25306 0.0479,0.31656 0.83519,0.0326 1.67157,0.0136 2.50725,0.0189 0.009,-0.13977 0.0557,-0.41055 -0.0466,-0.50733 -0.23426,-0.0269 -0.56001,-0.10512 -0.58343,-0.39158 -0.0957,-0.86849 -0.0321,-1.74668 -0.0451,-2.61907 0.002,-0.34609 0.003,-0.69218 0.005,-1.03828 0.18754,0.005 0.37508,0.0109 0.56259,0.0169 0.45768,1.38713 0.88022,2.78981 1.37523,4.16205 0.10483,0.17876 0.24071,0.42363 0.48345,0.36492 0.32166,0.006 0.64334,0.0118 0.96503,0.0173 0.10653,-0.29478 -0.12047,-0.562 -0.24711,-0.81031 -0.49558,-0.98168 -0.83825,-2.03475 -1.25578,-3.05388 -0.1207,-0.32887 -0.26572,-0.65828 -0.37144,-0.98772 0.17379,-0.20962 0.42514,-0.35792 0.56586,-0.60646 0.50511,-0.75629 0.64523,-1.70507 0.58619,-2.60588 -0.0302,-0.73875 -0.22313,-1.56584 -0.83267,-2.03079 -0.47668,-0.35459 -1.10048,-0.23903 -1.6526,-0.27062 -0.6811,-0.002 -1.36221,-10e-4 -2.04331,-0.002 l -0.0205,0.0209 z m 2.25135,0.56742 c 0.28837,-0.0213 0.58636,0.0588 0.75109,0.31656 0.34363,0.53926 0.33651,1.23659 0.33819,1.8655 -0.0205,0.72624 0.001,1.52044 -0.40265,2.15022 -0.2153,0.3371 -0.64172,0.26508 -0.97868,0.27176 -0.16522,-0.0267 -0.0307,-0.35897 -0.0742,-0.50968 0,-1.36877 0,-2.73754 0,-4.10631 0.12209,0.004 0.24418,0.008 0.36627,0.0119 z"
             id="path3119"
             inkscape:connector-curvature="0" />
          <path
             style="fill:#fff9f9;stroke:none;fill-opacity:1"
             d="m 436.40728,543.10421 c 0.042,0.15776 -0.10973,0.4854 0.13382,0.47981 0.40839,0.112 0.59939,0.54972 0.76479,0.90535 0.16362,0.30176 0.0544,0.66264 0.0859,0.99301 -0.009,2.20389 0.0219,4.40839 -0.0218,6.61187 -0.004,0.33823 -0.1319,0.76243 -0.50829,0.81939 -0.17908,-0.0194 -0.18035,0.16248 -0.1732,0.2886 -0.0867,0.27312 0.13421,0.26669 0.33307,0.24488 0.56259,0 1.12518,0 1.68777,0 0.0228,-0.13969 0.053,-0.33759 -0.0186,-0.47882 -0.12689,-0.0775 -0.29806,-0.0201 -0.4278,-0.10851 -0.3572,-0.0943 -0.40734,-0.51953 -0.41413,-0.83718 -0.0482,-2.11086 -0.005,-4.22286 -0.0104,-6.33416 -0.0351,-0.367 0.059,-0.1103 0.14059,0.0861 1.1168,2.55426 2.23378,5.10845 3.35085,7.6626 0.2019,0.009 0.44226,0.0189 0.63487,-0.0269 0.019,-3.03546 0.003,-6.0714 0.0531,-9.10651 -0.0385,-0.37201 0.26464,-0.73351 0.63251,-0.73967 -0.005,-0.13502 0.11524,-0.49785 -0.0967,-0.47981 -0.6251,0 -1.2502,0 -1.8753,0 -0.001,0.13485 -0.11574,0.48602 0.0913,0.48879 0.34747,-0.009 0.70443,0.24238 0.72427,0.61419 0.0809,1.10226 0.0325,2.21031 0.0407,3.3149 -0.005,1.02865 -0.0109,2.0573 -0.0163,3.08596 -1.08449,-2.49199 -2.16898,-4.98398 -3.25345,-7.47597 -0.60565,-0.0326 -1.22596,-0.0147 -1.83722,-0.0289 l -0.0206,0.0209 z"
             id="path3121"
             inkscape:connector-curvature="0" />
          <path
             style="fill:#fff9f9;stroke:none;fill-opacity:1"
             d="m 443.09588,543.1052 c 0.0409,0.15812 -0.11124,0.49633 0.14272,0.47276 0.25981,-10e-4 0.49112,0.18699 0.51071,0.45801 0.0496,1.28681 0.0211,2.5772 0.0283,3.8654 -0.0131,1.52559 0.0157,3.05233 -0.0342,4.57716 0.005,0.27387 -0.25492,0.44499 -0.49974,0.44863 -0.23659,-0.0135 -0.10148,0.30744 -0.14906,0.45806 0.0738,0.13871 0.36174,0.0248 0.5189,0.0619 0.66873,0 1.33745,0 2.00618,0 0.009,-0.1397 0.0557,-0.41069 -0.0466,-0.50724 -0.25007,-0.008 -0.57081,-0.11322 -0.58147,-0.41357 -0.0534,-1.56151 -0.0229,-3.12525 -0.0358,-4.68766 0.006,-1.26777 -0.0163,-2.53663 0.024,-3.80368 0.0154,-0.21763 0.17027,-0.38485 0.37604,-0.42905 0.10159,-0.0529 0.32651,0.0259 0.2813,-0.15828 0.0148,-0.20412 0.039,-0.45173 -0.2393,-0.36334 -0.76054,0 -1.52108,0 -2.28162,0 l -0.0205,0.0209 z"
             id="path3123"
             inkscape:connector-curvature="0" />
          <path
             style="fill:#fff9f9;stroke:none;fill-opacity:1"
             d="m 448.11818,542.92701 c -0.76902,-0.014 -1.43677,0.58044 -1.68191,1.29809 -0.21141,0.56869 -0.1936,1.19694 -0.16312,1.79583 0.11322,1.08056 0.85927,1.91824 1.46196,2.76082 0.51899,0.7203 1.00592,1.55918 0.94761,2.48928 -0.03,0.57334 -0.14723,1.22953 -0.62315,1.58976 -0.30922,0.23106 -0.75971,0.14033 -0.98355,-0.16425 -0.47209,-0.56142 -0.54256,-1.33861 -0.64171,-2.04469 -0.22742,-0.11186 -0.28765,0.0874 -0.24418,0.28968 0.004,0.70363 -0.009,1.41118 0.007,2.11238 0.3889,0.33947 0.90834,0.49428 1.41033,0.54337 0.71536,0.064 1.45689,-0.27204 1.82849,-0.90981 0.56675,-0.96538 0.63066,-2.19183 0.31645,-3.25308 -0.41548,-1.27549 -1.41262,-2.22495 -2.04135,-3.37563 -0.29438,-0.5677 -0.28353,-1.26661 -0.13283,-1.87845 0.0878,-0.34812 0.36617,-0.72552 0.76281,-0.65701 0.41385,0.0961 0.58168,0.56247 0.70813,0.93574 0.11197,0.32046 0.13842,0.6767 0.23636,0.99248 0.25833,0.0816 0.24602,-0.14406 0.22758,-0.33945 -0.0177,-0.60803 0.0382,-1.22256 -0.0362,-1.82669 -0.0657,-0.24081 -0.36528,-0.24333 -0.56161,-0.30063 -0.26304,-0.0457 -0.53038,-0.0624 -0.79701,-0.0577 z"
             id="path3125"
             inkscape:connector-curvature="0" />
        </g>
      </g>
    </g>
  </g>
</svg>
