<?xml version="1.0" encoding="UTF-8" standalone="no"?>
<!-- Created with Inkscape (http://www.inkscape.org/) -->

<svg
   xmlns:dc="http://purl.org/dc/elements/1.1/"
   xmlns:cc="http://creativecommons.org/ns#"
   xmlns:rdf="http://www.w3.org/1999/02/22-rdf-syntax-ns#"
   xmlns:svg="http://www.w3.org/2000/svg"
   xmlns="http://www.w3.org/2000/svg"
   xmlns:xlink="http://www.w3.org/1999/xlink"
   xmlns:sodipodi="http://sodipodi.sourceforge.net/DTD/sodipodi-0.dtd"
   xmlns:inkscape="http://www.inkscape.org/namespaces/inkscape"
   width="77.201485"
   height="77.58036"
   id="svg3760"
   version="1.1"
   inkscape:version="0.48.1 "
   sodipodi:docname="DARK.svg">
  <defs
     id="defs3762">
    <linearGradient
       id="linearGradient3795">
      <stop
         id="stop3797"
         offset="0"
         style="stop-color:#1c2224;stop-opacity:1" />
      <stop
         style="stop-color:#2a2723;stop-opacity:1"
         offset="0.63092703"
         id="stop3799" />
      <stop
         id="stop3801"
         offset="1"
         style="stop-color:#e6282e;stop-opacity:1" />
    </linearGradient>
    <linearGradient
       id="linearGradient3432">
      <stop
         style="stop-color:#7260a4;stop-opacity:1;"
         offset="0"
         id="stop3434" />
      <stop
         id="stop3793"
         offset="0.5"
         style="stop-color:#8d4b99;stop-opacity:1;" />
      <stop
         style="stop-color:#a8378f;stop-opacity:1"
         offset="1"
         id="stop3436" />
    </linearGradient>
    <linearGradient
       id="linearGradient3418">
      <stop
         id="stop3420"
         offset="0"
         style="stop-color:#d23388;stop-opacity:1" />
      <stop
         style="stop-color:#ef2e43;stop-opacity:1"
         offset="0.29348826"
         id="stop3422" />
      <stop
         id="stop3430"
         offset="0.68986225"
         style="stop-color:#e5282c;stop-opacity:1" />
      <stop
         id="stop3424"
         offset="1"
         style="stop-color:#602b33;stop-opacity:1" />
    </linearGradient>
    <linearGradient
       id="linearGradient3410">
      <stop
         style="stop-color:#808080;stop-opacity:1;"
         offset="0"
         id="stop3412" />
      <stop
         id="stop3426"
         offset="0.5"
         style="stop-color:#808080;stop-opacity:0.49803922;" />
      <stop
         style="stop-color:#808080;stop-opacity:0.24705882;"
         offset="0.75"
         id="stop3428" />
      <stop
         style="stop-color:#808080;stop-opacity:0;"
         offset="1"
         id="stop3414" />
    </linearGradient>
    <linearGradient
       id="linearGradient3177">
      <stop
         id="stop3179"
         offset="0"
         style="stop-color:#800000;stop-opacity:1" />
      <stop
         style="stop-color:#d69c45;stop-opacity:1"
         offset="0.21338069"
         id="stop3181" />
      <stop
         id="stop3183"
         offset="1"
         style="stop-color:#e5ff6a;stop-opacity:1" />
    </linearGradient>
    <linearGradient
       id="linearGradient4306">
      <stop
         id="stop4308"
         offset="0"
         style="stop-color:#9f863f;stop-opacity:1" />
      <stop
         style="stop-color:#332815;stop-opacity:1"
         offset="1"
         id="stop4310" />
      <stop
         id="stop4312"
         offset="1"
         style="stop-color:#e9e560;stop-opacity:1" />
    </linearGradient>
    <linearGradient
       id="linearGradient4296">
      <stop
         id="stop4298"
         offset="0"
         style="stop-color:#f0bf7a;stop-opacity:0.91071427;" />
      <stop
         style="stop-color:#f0bf7a;stop-opacity:0.45490196;"
         offset="0.64173013"
         id="stop4300" />
      <stop
         id="stop4302"
         offset="1"
         style="stop-color:#f0bf7a;stop-opacity:0;" />
    </linearGradient>
    <linearGradient
       id="linearGradient4230">
      <stop
         style="stop-color:#f0bf7a;stop-opacity:0.91071427;"
         offset="0"
         id="stop4232" />
      <stop
         id="stop4292"
         offset="0.5"
         style="stop-color:#f0bf7a;stop-opacity:0.45490196;" />
      <stop
         style="stop-color:#f0bf7a;stop-opacity:0;"
         offset="1"
         id="stop4234" />
    </linearGradient>
    <linearGradient
       id="linearGradient3111">
      <stop
         style="stop-color:#f3c87d;stop-opacity:0.7589286;"
         offset="0"
         id="stop3113" />
      <stop
         id="stop3119"
         offset="0.91352373"
         style="stop-color:#d69c45;stop-opacity:1" />
      <stop
         style="stop-color:#e5ff6a;stop-opacity:1"
         offset="1"
         id="stop3115" />
    </linearGradient>
    <linearGradient
       id="linearGradient3101">
      <stop
         style="stop-color:#a5864d;stop-opacity:1"
         offset="0"
         id="stop3103" />
      <stop
         id="stop4238"
         offset="0.78602821"
         style="stop-color:#332815;stop-opacity:1" />
      <stop
         style="stop-color:#1a1911;stop-opacity:1"
         offset="1"
         id="stop3105" />
    </linearGradient>
    <radialGradient
       inkscape:collect="always"
       xlink:href="#linearGradient4230"
       id="radialGradient4236"
       cx="306.59958"
       cy="555.36737"
       fx="306.59958"
       fy="555.36737"
       r="6.0054865"
       gradientTransform="matrix(0.60886416,0.50796393,-0.90996045,1.0907119,625.30825,-205.98784)"
       gradientUnits="userSpaceOnUse" />
    <radialGradient
       inkscape:collect="always"
       xlink:href="#linearGradient4306"
       id="radialGradient4304"
       cx="327.57648"
       cy="574.45367"
       fx="327.57648"
       fy="574.45367"
       r="39.671757"
       gradientTransform="matrix(-1.8589783e-6,1.0770613,-1.1551438,-2.9470962e-6,991.28513,221.58125)"
       gradientUnits="userSpaceOnUse" />
    <linearGradient
       y2="22.401928"
       x2="106.24998"
       y1="22.901928"
       x1="143.49998"
       gradientTransform="matrix(1.2113408,0,0,1.2113407,182.53634,525.19736)"
       gradientUnits="userSpaceOnUse"
       id="linearGradient6058"
       xlink:href="#linearGradient5507-3"
       inkscape:collect="always" />
    <linearGradient
       id="linearGradient5507-3">
      <stop
         style="stop-color:#ff0000;stop-opacity:1;"
         offset="0"
         id="stop5509-1" />
      <stop
         style="stop-color:#ff6600;stop-opacity:1"
         offset="1"
         id="stop5511-9" />
    </linearGradient>
    <linearGradient
       y2="22.401928"
       x2="106.24998"
       y1="22.901928"
       x1="143.49998"
       gradientTransform="matrix(1.2113408,0,0,1.2113407,182.53634,525.19736)"
       gradientUnits="userSpaceOnUse"
       id="linearGradient7449"
       xlink:href="#linearGradient5507-3"
       inkscape:collect="always" />
    <linearGradient
       id="linearGradient7451">
      <stop
         style="stop-color:#ff0000;stop-opacity:1;"
         offset="0"
         id="stop7453" />
      <stop
         style="stop-color:#ff6600;stop-opacity:1"
         offset="1"
         id="stop7455" />
    </linearGradient>
    <linearGradient
       y2="22.401928"
       x2="106.24998"
       y1="22.901928"
       x1="143.49998"
       gradientTransform="matrix(0.37606897,0,0,0.37606891,284.34192,546.05033)"
       gradientUnits="userSpaceOnUse"
       id="linearGradient7459"
       xlink:href="#linearGradient5507-3"
       inkscape:collect="always" />
    <linearGradient
       id="linearGradient3111-5">
      <stop
         style="stop-color:#ff0000;stop-opacity:1"
         offset="0"
         id="stop3113-4" />
      <stop
         id="stop3119-9"
         offset="0.91352373"
         style="stop-color:#d69c45;stop-opacity:1" />
      <stop
         style="stop-color:#e5ff6a;stop-opacity:1"
         offset="1"
         id="stop3115-5" />
    </linearGradient>
    <linearGradient
       id="linearGradient3101-4">
      <stop
         style="stop-color:#a5864d;stop-opacity:1"
         offset="0"
         id="stop3103-8" />
      <stop
         id="stop4238-2"
         offset="0.78602821"
         style="stop-color:#332815;stop-opacity:1" />
      <stop
         style="stop-color:#1a1911;stop-opacity:1"
         offset="1"
         id="stop3105-1" />
    </linearGradient>
    <linearGradient
       id="linearGradient4296-8">
      <stop
         id="stop4298-3"
         offset="0"
         style="stop-color:#f0bf7a;stop-opacity:0.91071427;" />
      <stop
         style="stop-color:#f0bf7a;stop-opacity:0.45490196;"
         offset="0.64173013"
         id="stop4300-1" />
      <stop
         id="stop4302-4"
         offset="1"
         style="stop-color:#f0bf7a;stop-opacity:0;" />
    </linearGradient>
    <linearGradient
       inkscape:collect="always"
       xlink:href="#linearGradient3418"
       id="linearGradient3416"
       x1="297.6759"
       y1="553.48169"
       x2="359.14716"
       y2="570.18866"
       gradientUnits="userSpaceOnUse" />
    <linearGradient
       inkscape:collect="always"
       xlink:href="#linearGradient3432"
       id="linearGradient3438"
       x1="301.63666"
       y1="603.81531"
       x2="324.00909"
       y2="564.27753"
       gradientUnits="userSpaceOnUse" />
    <linearGradient
       inkscape:collect="always"
       xlink:href="#linearGradient3795"
       id="linearGradient3791"
       x1="328.6752"
       y1="598.91052"
       x2="335.13403"
       y2="548.35461"
       gradientUnits="userSpaceOnUse" />
    <linearGradient
       inkscape:collect="always"
       xlink:href="#linearGradient5507-3"
       id="linearGradient3081"
       gradientUnits="userSpaceOnUse"
       gradientTransform="matrix(0.37606897,0,0,0.37606891,284.34192,546.05033)"
       x1="143.49998"
       y1="22.901928"
       x2="106.24998"
       y2="22.401928" />
    <linearGradient
       inkscape:collect="always"
       xlink:href="#linearGradient3418"
       id="linearGradient3083"
       gradientUnits="userSpaceOnUse"
       x1="297.6759"
       y1="553.48169"
       x2="359.14716"
       y2="570.18866" />
    <linearGradient
       inkscape:collect="always"
       xlink:href="#linearGradient3795"
       id="linearGradient3085"
       gradientUnits="userSpaceOnUse"
       x1="328.6752"
       y1="598.91052"
       x2="335.13403"
       y2="548.35461" />
    <linearGradient
       inkscape:collect="always"
       xlink:href="#linearGradient3432"
       id="linearGradient3087"
       gradientUnits="userSpaceOnUse"
       x1="301.63666"
       y1="603.81531"
       x2="324.00909"
       y2="564.27753" />
  </defs>
  <sodipodi:namedview
     id="base"
     pagecolor="#ffffff"
     bordercolor="#666666"
     borderopacity="1.0"
     inkscape:pageopacity="0.0"
     inkscape:pageshadow="2"
     inkscape:zoom="1.6581533"
     inkscape:cx="195.54313"
     inkscape:cy="25.399932"
     inkscape:document-units="px"
     inkscape:current-layer="g4793"
     showgrid="false"
     fit-margin-top="0.2"
     fit-margin-left="0.2"
     fit-margin-right="0.2"
     fit-margin-bottom="0.2"
     inkscape:window-width="1280"
     inkscape:window-height="780"
     inkscape:window-x="-8"
     inkscape:window-y="-8"
     inkscape:window-maximized="1"
     inkscape:snap-global="true"
     showguides="true"
     inkscape:guide-bbox="true" />
  <metadata
     id="metadata3765">
    <rdf:RDF>
      <cc:Work
         rdf:about="">
        <dc:format>image/svg+xml</dc:format>
        <dc:type
           rdf:resource="http://purl.org/dc/dcmitype/StillImage" />
        <dc:title />
      </cc:Work>
    </rdf:RDF>
  </metadata>
  <g
     inkscape:label="Layer 1"
     inkscape:groupmode="layer"
     id="layer1"
     transform="translate(-288.81189,-535.37263)">
    <g
       id="g4793"
       transform="matrix(0.96766596,0,0,0.94944363,10.181651,28.771222)">
      <g
         id="g3738">
        <g
           id="g3065">
          <text
             xml:space="preserve"
             style="font-size:15.04275513px;font-style:normal;font-weight:normal;line-height:125%;letter-spacing:0px;word-spacing:0px;fill:url(#linearGradient3081);fill-opacity:1;stroke:none;font-family:StoneSerITCStd Medium;-inkscape-font-specification:StoneSerITCStd Medium"
             x="319.97443"
             y="555.13312"
             id="text5503"
             sodipodi:linespacing="125%"
             transform="scale(0.99053965,1.0095507)"><tspan
               sodipodi:role="line"
               id="tspan5505"
               x="319.97443"
               y="555.13312"
               style="font-size:2.25641346px;fill:url(#linearGradient3081);fill-opacity:1">Created by Falzar FZ</tspan></text>
          <g
             transform="translate(0.00547206,0.0258127)"
             id="g3021"
             style="display:inline">
            <path
               style="fill:url(#linearGradient3083);fill-opacity:1;stroke:none"
               d="m 325.12487,533.76805 c -12.04619,0.12786 -23.83129,6.47825 -30.10708,16.8382 -9.98334,15.47574 -9.2208,37.5796 3.10803,51.55872 7.91058,8.9416 20.14109,13.52621 31.99522,12.68526 12.96871,-0.25474 25.57911,-7.74217 31.66968,-19.25774 5.39871,-9.43832 6.92244,-20.84042 4.7256,-31.45827 -2.298,-13.99137 -13.54381,-26.2257 -27.38604,-29.44165 -4.60618,-0.8471 -9.33291,-0.96193 -14.00541,-0.92452 z"
               id="path3048"
               inkscape:connector-curvature="0" />
            <g
               id="g4771"
               transform="translate(-85.682227,0.42272594)"
               style="fill:#ffffff;fill-opacity:1" />
            <path
               style="fill:url(#linearGradient3085);fill-opacity:1;stroke:none"
               d="m 313.77433,554.36015 c -16.09525,1.91834 -22.00562,49.43006 23.19335,43.55164 18.17503,-11.0868 26.88882,-21.81763 25.25395,-29.59012 -4.28871,-9.28069 -6.36597,-6.81399 -12.19801,-3.9823 -22.7935,5.71562 -22.42028,-12.56551 -36.24929,-9.97922 z"
               id="path3048-3-1"
               inkscape:connector-curvature="0"
               sodipodi:nodetypes="ccccc" />
            <path
               style="fill:url(#linearGradient3087);fill-opacity:1;stroke:none"
               d="m 319.25832,534.42259 c -17.1721,2.74453 -27.47255,16.64483 -30.52308,32.75312 -2.26633,13.24516 2.11531,28.84901 11.0273,36.73852 7.14713,6.32713 11.97183,10.97739 31.22638,11.13688 12.89226,0.10679 25.58694,-8.765 32.11536,-20.28954 6.64365,-11.7279 4.06281,-28.09614 3.09577,-32.22298 -2.69983,4.70986 -7.44527,9.41562 -18.39552,9.37863 -7.7157,0.7474 -9.21291,3.73285 -0.53087,8.98006 -6.73148,4.93847 -7.36609,6.57008 -10.86213,7.46593 -2.14967,-2.65959 -6.84292,-8.09326 -10.31532,-7.86934 -2.84444,17.35613 -10.7591,12.69319 -15.17995,6.49425 -9.81332,-15.53051 -11.50843,-17.57165 -11.65137,-25.45428 1.57491,-14.02577 5.3228,-21.8361 19.99343,-27.11125 z"
               id="path3048-3"
               inkscape:connector-curvature="0"
               sodipodi:nodetypes="ccssscccccccc" />
          </g>
          <g
             id="g3783"
             transform="translate(-92.915959,-2.0293745)"
             style="fill:#fff9f9;fill-opacity:1">
            <path
               sodipodi:nodetypes="cccccccccccccccccccccccccccscccccccsccccccccccccccccccccccccccccccccccccccccccccccccccc"
               inkscape:connector-curvature="0"
               d="m 413.01766,587.4904 c 0,0 -0.55161,1.94613 -0.008,2.97743 -0.005,1.98581 -0.0191,6.96001 -0.0245,8.93742 -0.77264,1.29516 -0.008,2.92702 -0.008,2.92702 l 18.68984,-0.006 c 0,0 0.76573,-1.32511 0.0358,-3.01444 0.0237,-1.9919 0.0828,-6.96675 0.10623,-8.93693 0.60471,-1.0486 0.0343,-2.8842 0.0343,-2.8842 z m 15.35787,2.97189 -0.0174,2.97044 -11.5988,-0.013 -0.0618,-2.92409 z m 0.005,5.95467 -0.0476,2.93962 -11.57866,0.009 -0.0583,-2.96932 z m -7.53731,-22.78955 c -0.008,1.02184 0.72561,2.91431 0.72561,2.91431 0,0 -8.81406,0.0127 -11.01918,0.0759 -0.84154,0.86957 -0.89045,1.6531 0.53266,2.46141 1.25664,-0.42279 3.63252,-0.54071 5.33748,-0.19547 0.26111,0.60596 0.3644,3.63656 0.3644,3.63656 0,0 -7.91714,0.078 -9.13135,0.5929 -2.17006,0.52322 -4.44581,3.53322 -0.0191,3.34867 3.51001,-1.42106 8.7536,-1.29677 14.68306,-1.32488 5.264,-0.025 11.49373,1.10179 15.68613,1.88855 2.27251,-0.77132 2.78907,-2.76731 2.5534,-4.46209 -1.82129,0.0865 -11.70182,-0.21869 -11.70182,-0.21869 0,0 0.20182,-2.27389 0.63401,-3.71781 1.99455,0.0897 4.80944,0.11071 5.69293,-0.34803 0.54582,-0.97375 0.53097,-1.75842 -0.37434,-1.98571 -1.18734,-0.35781 -10.56927,0.17858 -10.56927,0.17858 0,0 -0.39518,-1.38603 -0.72864,-2.52776 -0.5456,-1.86801 -2.65118,-2.13138 -2.66595,-0.31641 z m 5.60505,4.96067 -0.47222,3.96696 -6.95092,-0.0165 -0.39457,-3.91962 z m 0.84294,-21.70474 c 0,0 -0.8205,1.34369 0.026,2.81971 0.0226,2.44416 0.10944,11.84527 0.10944,11.84527 0,0 2.14876,1.45528 4.79874,0.11477 4.01165,0.0272 11.64336,0.0616 11.64336,0.0616 0,0 0.0227,20.79949 0.10443,28.88613 -0.0131,2.48672 3.79959,2.5133 3.75503,0.24226 0.1006,-8.81765 0.0533,-43.93432 0.0533,-43.93432 0,0 -1.43709,-0.95336 -3.13266,-0.082 -2.85262,-0.007 -11.2583,0.0172 -14.12434,0.01 -2.04531,-0.74834 -3.23338,0.0373 -3.23338,0.0373 z m 16.63677,2.03986 -0.0225,3.83293 -13.54429,-0.0476 -0.051,-3.88821 z m -0.024,6.8507 -0.0921,3.90999 -13.40089,-0.0439 -0.09,-3.90559 z m -46.71643,-9.01033 c 0,0 0.24357,29.05173 -0.20401,33.21297 -1.82121,4.43875 -3.87873,6.38363 -4.95587,7.10878 -0.76282,1.12863 0.79281,2.49473 2.81122,3.78774 9.73281,3.21699 6.79265,-28.19443 6.79265,-28.19443 l 16.98372,0.0111 c 0,0 0.0473,-10.66655 0.0591,-13.31582 0.87955,-1.53213 0.0115,-2.57983 0.0115,-2.57983 0,0 -1.25819,-1.11691 -2.82517,-0.004 -2.98278,-0.004 -11.95931,-0.017 -15.0715,-0.0214 -2.29011,-1.30775 -3.60164,-0.005 -3.60164,-0.005 z m 18.47387,6.86575 -14.47058,-0.0129 -0.006,-4.70674 14.57497,0.0916 z m 0.0457,6.98211 -14.48963,0.13086 0.003,-4.99066 14.56805,0.0267 z"
               style="fill:#fff9f9;fill-opacity:1;stroke:none"
               id="path3452" />
          </g>
        </g>
        <g
           style="fill:#fff9f9;fill-opacity:1"
           id="g3540"
           transform="matrix(1.0045118,0,0,1.0045118,-110.02769,-4.0942278)">
          <path
             style="fill:#fff9f9;stroke:none;fill-opacity:1"
             d="m 412.00163,542.68397 c -0.10217,0.78225 -0.18279,1.5705 -0.26731,2.3532 0.0702,0.0674 0.20865,0.0136 0.28893,0.004 0.20922,-0.52603 0.34346,-1.12051 0.75435,-1.53323 0.28237,-0.27952 0.70492,-0.19136 1.06226,-0.21446 0.17098,-0.003 0.39837,-0.0646 0.31836,0.18844 -0.008,2.8388 0.015,5.67781 -0.0164,8.51646 -0.0342,0.25721 0.0424,0.57122 -0.13582,0.78353 -0.18497,0.14812 -0.42929,0.18082 -0.65918,0.19437 -0.0463,0.14606 -0.005,0.32652 -0.019,0.48505 0.19211,0.05 0.42315,0.006 0.62977,0.0209 0.79355,0 1.58711,0 2.38068,0 0.0503,-0.14627 0.005,-0.33212 0.0208,-0.49285 -0.13824,-0.0376 -0.31246,-0.0137 -0.45522,-0.0821 -0.16312,-0.0535 -0.33382,-0.17635 -0.32162,-0.36914 -0.0678,-1.1636 -0.031,-2.33084 -0.0448,-3.49596 -0.003,-1.91675 -0.006,-3.8335 -0.009,-5.75024 0.392,0.0244 0.81194,-0.0606 1.18342,0.0851 0.48347,0.2627 0.63337,0.84489 0.82403,1.32465 0.0823,0.122 0.0535,0.39569 0.257,0.36169 0.0784,0.027 0.17664,-0.0161 0.14217,-0.11146 -0.0773,-0.75627 -0.14786,-1.51395 -0.24913,-2.2673 -0.35428,-0.0404 -0.73566,-0.006 -1.10038,-0.0173 -1.52079,0 -3.04158,0 -4.56238,0 l -0.0207,0.0173 z"
             id="path3151"
             inkscape:connector-curvature="0" />
          <path
             style="fill:#fff9f9;stroke:none;fill-opacity:1"
             d="m 418.3106,542.68744 c 0.0288,0.14633 -0.0582,0.34088 0.0476,0.46161 0.21666,0.0647 0.49915,0.0517 0.64794,0.2577 0.17402,0.36087 0.0946,0.7856 0.12173,1.17487 0.0128,2.56599 0.0258,5.13247 -0.0128,7.69823 -0.0158,0.22941 -0.0489,0.52734 -0.30796,0.60652 -0.15256,0.0781 -0.3443,0.055 -0.49654,0.1102 0.015,0.15828 -0.0291,0.34118 0.0208,0.48504 1.67823,0 3.35647,0 5.03471,0 0.0852,-0.29313 0.0764,-0.62898 0.12224,-0.93883 0.0555,-0.61222 0.13911,-1.22604 0.17361,-1.8378 -0.0598,-0.0667 -0.19607,-0.0562 -0.26731,-0.0131 -0.18641,0.58451 -0.32875,1.22254 -0.70244,1.72325 -0.34195,0.44804 -0.96852,0.51156 -1.48964,0.43906 -0.30532,-0.0335 -0.61257,-0.24924 -0.64275,-0.57529 -0.0797,-0.76638 -0.0337,-1.54035 -0.0477,-2.3098 -2.6e-4,-0.59699 -5.4e-4,-1.19396 -8e-4,-1.79094 0.35513,0.0155 0.72763,-0.0352 1.07268,0.0469 0.38531,0.18455 0.48781,0.66549 0.52943,1.05252 0.0358,0.13038 -0.0289,0.32545 0.0891,0.41823 0.0864,0.0146 0.26315,0.0493 0.21887,-0.0946 0,-1.16618 0,-2.33237 0,-3.49856 -0.0918,-0.0539 -0.30462,-0.0366 -0.28808,0.11888 -0.0209,0.40218 -0.0673,0.85698 -0.36591,1.15491 -0.31179,0.25266 -0.747,0.14139 -1.11847,0.17942 -0.23712,0.0671 -0.10304,-0.24576 -0.13762,-0.38594 0,-1.29286 0,-2.58574 0,-3.87862 0.4884,0.0197 0.99054,-0.0452 1.47062,0.0503 0.39871,0.16714 0.53012,0.64661 0.61766,1.03776 0.0681,0.25302 0.0766,0.52868 0.15745,0.77573 0.0782,0.0419 0.20073,0.0361 0.27335,0.004 0,-0.82373 0,-1.64747 0,-2.47121 -0.19212,-0.0501 -0.42315,-0.006 -0.62976,-0.0208 -1.35643,0 -2.71287,0 -4.06929,0 l -0.0196,0.0197 -10e-4,9.9e-4 z"
             id="path3153"
             inkscape:connector-curvature="0" />
          <path
             style="fill:#fff9f9;stroke:none;fill-opacity:1"
             d="m 421.85478,538.75254 c -0.24959,0.094 -0.3876,0.41141 -0.57782,0.61054 -0.54708,0.71859 -0.91997,1.6203 -1.43853,2.36618 0.11394,0.10395 0.25976,0.19764 0.39879,0.24173 0.72026,-0.44663 1.24182,-1.11273 1.93851,-1.61326 0.16679,-0.15474 0.22165,-0.41547 0.16523,-0.6561 -0.0424,-0.35934 -0.12779,-0.83198 -0.45417,-0.94909 -0.0106,-10e-4 -0.0214,-10e-4 -0.032,0 z"
             id="path3155"
             inkscape:connector-curvature="0"
             sodipodi:nodetypes="cccccccc" />
          <path
             style="fill:#fff9f9;stroke:none;fill-opacity:1"
             d="m 423.81676,542.68831 c 0.0176,0.15636 -0.0109,0.33167 0.0319,0.47723 0.42777,0.0324 0.70865,0.42678 0.88517,0.80176 0.084,0.20091 0.23289,0.39086 0.18804,0.6256 -0.0121,2.43819 0.005,4.87675 -0.0299,7.31469 -0.004,0.32269 -0.007,0.71166 -0.2827,0.91544 -0.14245,0.1157 -0.33558,0.1143 -0.48848,0.18308 0.0106,0.15506 -0.0402,0.33446 0.004,0.4755 0.75267,0 1.50533,0 2.25799,0 0.0477,-0.14365 0.005,-0.32694 0.0197,-0.48504 -0.17116,-0.0566 -0.37884,-0.0335 -0.5516,-0.12061 -0.29383,-0.0992 -0.4209,-0.43413 -0.41061,-0.73841 -0.0423,-1.79358 -0.0178,-3.5883 -0.0297,-5.38234 -9.5e-4,-0.54434 -0.002,-1.08867 -0.003,-1.63301 1.30917,2.78232 2.61983,5.56029 3.91682,8.34814 0.22808,0.0262 0.46875,0.004 0.70159,0.0113 0.0476,-0.1927 0.007,-0.42443 0.021,-0.63168 0.0122,-2.87235 -0.002,-5.74497 0.0332,-8.61712 -0.004,-0.36343 0.0599,-0.82741 0.42208,-0.98224 0.0968,-0.0649 0.27247,-0.0317 0.32054,-0.13881 -0.011,-0.14489 0.04,-0.31434 -0.005,-0.44514 -0.74393,0 -1.48785,0 -2.23177,0 -0.0397,0.12407 -0.0194,0.28608 -0.0139,0.4243 0.0684,0.13364 0.25766,0.0792 0.37374,0.12408 0.24445,0.0497 0.5038,0.20103 0.54929,0.48561 0.13343,0.54695 0.0616,1.13024 0.0878,1.69318 0.007,1.71596 0.0164,3.43228 -0.011,5.14806 -1.23593,-2.61479 -2.45465,-5.24237 -3.68162,-7.86396 -0.67881,-0.0263 -1.37024,-0.004 -2.0539,-0.0113 l -0.0182,0.0201 -0.002,0.002 z"
             id="path3157"
             inkscape:connector-curvature="0" />
          <path
             style="fill:#fff9f9;stroke:none;fill-opacity:1"
             d="m 431.34697,542.68744 c 0.0288,0.14633 -0.0582,0.34088 0.0476,0.46161 0.20838,0.0616 0.46291,0.0537 0.62804,0.223 0.20255,0.35928 0.11508,0.80479 0.14271,1.2035 0.0113,2.57698 0.025,5.15446 -0.013,7.7312 -0.0258,0.21829 -0.0525,0.51903 -0.31144,0.58222 -0.15458,0.0747 -0.34266,0.0537 -0.49395,0.1076 0.015,0.15828 -0.0291,0.34118 0.0208,0.48504 1.67854,0 3.35705,0 5.03558,0 0.0867,-0.25706 0.0696,-0.56093 0.11456,-0.8358 0.0583,-0.64638 0.14634,-1.29317 0.18129,-1.93997 -0.0525,-0.0813 -0.19717,-0.0272 -0.26816,-0.0138 -0.19775,0.6363 -0.3311,1.34267 -0.80884,1.83692 -0.37735,0.38178 -0.95399,0.36967 -1.44901,0.31585 -0.31692,-0.0365 -0.56443,-0.31798 -0.59084,-0.63168 -0.0552,-0.93094 -0.025,-1.86648 -0.0345,-2.79921 0,-0.41186 0,-0.82373 0,-1.2356 0.35463,0.0151 0.72605,-0.0343 1.07095,0.046 0.38917,0.18506 0.48971,0.67044 0.53288,1.05946 0.0391,0.1283 -0.0241,0.33009 0.1012,0.41649 0.14594,0.042 0.25795,-0.015 0.20502,-0.18221 0,-1.13843 0,-2.27684 0,-3.41527 -0.0703,-0.0341 -0.27201,-0.0597 -0.26903,0.0773 -0.0582,0.42499 -0.0652,0.9406 -0.42303,1.23127 -0.26152,0.18665 -0.61171,0.10465 -0.91432,0.13965 -0.1934,0.0234 -0.37648,0.0363 -0.30369,-0.21427 0,-1.34841 0,-2.69681 0,-4.04522 0.47445,0.0153 0.95869,-0.0338 1.42735,0.0364 0.44837,0.14852 0.57118,0.67618 0.67451,1.08922 0.0623,0.2411 0.0766,0.50427 0.14126,0.74076 0.0842,0.0287 0.20119,0.0394 0.27596,8.7e-4 0,-0.82374 0,-1.64747 0,-2.47121 -0.19212,-0.0501 -0.42316,-0.006 -0.62978,-0.0208 -1.35642,0 -2.71286,0 -4.06929,0 l -0.0196,0.0197 -0.001,9.9e-4 z"
             id="path3159"
             inkscape:connector-curvature="0" />
          <path
             style="fill:#fff9f9;stroke:none;fill-opacity:1"
             d="m 433.03213,538.77138 c -0.33777,0.0984 -0.45248,0.57537 -0.48057,0.94365 -0.0426,0.23915 0.007,0.51056 0.1951,0.63748 0.677,0.52327 1.08751,1.15871 1.79395,1.61953 0.14198,-0.0494 0.26831,-0.16867 0.40227,-0.24801 -0.0446,-0.16011 -0.20436,-0.2706 -0.29,-0.41587 -0.58703,-0.74332 -0.81766,-1.74022 -1.43649,-2.44366 -0.0521,-0.0493 -0.11392,-0.10383 -0.18426,-0.0932 z"
             id="path3161"
             inkscape:connector-curvature="0"
             sodipodi:nodetypes="ccccccccc" />
          <path
             style="fill:#fff9f9;stroke:none;fill-opacity:1"
             d="m 458.57335,542.49917 c -0.4529,-0.0171 -0.90291,0.0888 -1.28894,0.32886 -0.712,0.42528 -1.06416,1.2799 -1.07527,2.08848 -0.0346,0.70156 0.0696,1.43089 0.45719,2.02909 0.52431,0.88597 1.3159,1.57253 1.85945,2.4431 0.40217,0.59479 0.65461,1.31631 0.54966,2.04226 -0.0489,0.57589 -0.26949,1.21908 -0.80312,1.5075 -0.39695,0.22083 -0.90446,0.0484 -1.1713,-0.29936 -0.46004,-0.57596 -0.58013,-1.34708 -0.68168,-2.06252 -0.13791,-0.0494 -0.38431,-0.0795 -0.30156,0.15271 0.009,0.77431 -0.0156,1.55276 0.0291,2.32457 0.1526,0.23244 0.45546,0.30406 0.69811,0.40695 0.59338,0.21805 1.24864,0.25779 1.86509,0.12321 0.42658,-0.11289 0.82333,-0.33764 1.10694,-0.68168 0.47475,-0.48613 0.67228,-1.17786 0.73593,-1.83977 0.0592,-0.70401 -0.0104,-1.43004 -0.32686,-2.06954 -0.52841,-1.09589 -1.42212,-1.95637 -2.11795,-2.93767 -0.32041,-0.43972 -0.48773,-0.98091 -0.44565,-1.52751 0.002,-0.49145 0.13078,-1.06956 0.58911,-1.32844 0.35248,-0.19172 0.80335,-0.0104 0.99609,0.31683 0.29406,0.44122 0.39355,0.9838 0.51,1.49318 -0.0508,0.18068 0.26239,0.17666 0.3045,0.0868 -0.004,-0.74639 0.008,-1.496 -0.006,-2.24039 -0.23789,-0.27201 -0.63457,-0.28188 -0.96617,-0.33395 -0.17162,-0.0162 -0.34415,-0.0253 -0.51657,-0.0226 z"
             id="path3163"
             inkscape:connector-curvature="0" />
          <path
             style="fill:#fff9f9;stroke:none;fill-opacity:1"
             d="m 450.27647,542.68051 c 0.0138,0.15876 -0.0266,0.33871 0.019,0.48505 0.25454,0.0201 0.58393,0.0492 0.7258,0.29502 0.10852,0.40332 0.0564,0.83278 0.0783,1.24688 0.003,2.52208 0.008,5.04443 -0.0229,7.56633 0.014,0.21913 -0.015,0.48257 -0.23971,0.58484 -0.17061,0.10312 -0.38564,0.0908 -0.56056,0.15445 0.0148,0.15982 -0.0288,0.34397 0.0208,0.48938 1.65362,-0.008 3.30791,0.0189 4.96109,-0.0196 0.11819,0.027 0.13517,-0.0798 0.12861,-0.17374 0.0996,-0.8672 0.16608,-1.73852 0.2772,-2.60414 -0.13073,-0.0512 -0.36208,-0.0349 -0.34511,0.16795 -0.18102,0.59492 -0.33421,1.25443 -0.7976,1.69692 -0.37223,0.33108 -0.91739,0.33458 -1.38677,0.27748 -0.31002,-0.0322 -0.56954,-0.29116 -0.60208,-0.60219 -0.0847,-0.76625 -0.0405,-1.54093 -0.0546,-2.31067 -2.9e-4,-0.58773 -5.5e-4,-1.17545 -8.4e-4,-1.76317 0.36627,0.0218 0.75333,-0.0511 1.10557,0.066 0.4344,0.24451 0.49258,0.79712 0.53339,1.24593 -0.0476,0.21077 0.0944,0.248 0.26854,0.21528 0.0731,-0.1169 0.008,-0.31738 0.0303,-0.46509 0,-1.04586 0,-2.09174 0,-3.1376 -0.11127,-0.0428 -0.3488,-0.0645 -0.29357,0.13637 -0.0462,0.42587 -0.0771,0.94733 -0.4677,1.20856 -0.26861,0.16276 -0.60261,0.0718 -0.89963,0.10577 -0.19311,0.0308 -0.34643,0.021 -0.27687,-0.21684 0,-1.34839 0,-2.6968 0,-4.0452 0.4823,0.018 0.97887,-0.0418 1.45246,0.0486 0.41629,0.14642 0.54724,0.63007 0.64707,1.01521 0.074,0.26803 0.082,0.5666 0.16264,0.82431 0.17571,0.0229 0.35977,0.0161 0.28423,-0.21519 -0.005,-0.75432 -0.009,-1.50864 -0.0135,-2.26296 -0.1921,-0.0504 -0.42316,-0.007 -0.62977,-0.0226 -1.36104,-0.004 -2.72209,-0.008 -4.08314,-0.0121 l -0.0196,0.0197 -10e-4,9.9e-4 z"
             id="path3165"
             inkscape:connector-curvature="0" />
          <path
             style="fill:#fff9f9;stroke:none;fill-opacity:1"
             d="m 443.61018,542.67704 c 0.0137,0.15997 -0.0264,0.34096 0.019,0.48852 0.2682,0.0224 0.63925,0.0583 0.73532,0.36097 0.10446,0.60359 0.045,1.22566 0.068,1.83691 0.005,2.30165 0.02,4.60379 -0.0178,6.90516 -0.025,0.22813 -0.0414,0.55917 -0.31921,0.61693 -0.15539,0.0672 -0.33715,0.0663 -0.48529,0.12669 0.0148,0.16042 -0.0286,0.34508 0.0208,0.49111 0.99194,-0.005 1.98389,-0.0103 2.97585,-0.0147 0.0534,-0.13991 0.0159,-0.32079 0.0372,-0.47549 -0.22203,-0.0842 -0.52545,-0.0682 -0.70158,-0.26205 -0.16395,-0.25702 -0.0962,-0.59263 -0.1248,-0.88502 -0.0104,-1.04641 -0.004,-2.09292 -0.006,-3.13936 0.22376,0 0.44753,0 0.67129,0 0.53214,1.42507 1.01811,2.86835 1.58569,4.27862 0.11471,0.24194 0.31243,0.51709 0.61678,0.48505 0.39137,0.0171 0.78319,0.01 1.17477,0.0122 0.0807,-0.20344 -0.0367,-0.42559 -0.16003,-0.59238 -0.57612,-0.89009 -0.94197,-1.89306 -1.38346,-2.85414 -0.23454,-0.54286 -0.48273,-1.08872 -0.71175,-1.62865 0.18159,-0.16712 0.41355,-0.29269 0.57008,-0.49719 0.58198,-0.65963 0.8408,-1.55661 0.80489,-2.42869 0.0136,-0.54917 -0.0137,-1.11109 -0.24249,-1.61888 -0.25886,-0.65686 -0.89797,-1.193 -1.62036,-1.19701 -1.16155,-0.0257 -2.32363,-0.0182 -3.48539,-0.0293 l -0.0195,0.0196 -10e-4,9.8e-4 z m 2.57618,0.6074 c 0.36163,-0.0181 0.78425,0.0368 0.99743,0.36963 0.4238,0.65528 0.36569,1.47257 0.37013,2.22043 -0.009,0.64532 -0.0767,1.33146 -0.44106,1.88032 -0.16157,0.24204 -0.44352,0.36773 -0.73186,0.3384 -0.19001,0.005 -0.38004,0.009 -0.57008,0.0131 0,-1.60727 0,-3.21453 0,-4.8218 0.12515,0 0.2503,0 0.37544,0 z"
             id="path3167"
             inkscape:connector-curvature="0" />
          <path
             style="fill:#fff9f9;stroke:none;fill-opacity:1"
             d="m 437.23375,542.68051 c 0.002,0.15521 -0.003,0.31342 0.002,0.46683 0.29002,0.0172 0.686,0.07 0.75262,0.41389 0.0653,0.46736 0.0255,0.94547 0.0412,1.41696 -7.4e-4,2.46365 0.0107,4.9276 -0.0223,7.39106 0.0219,0.23237 -0.0771,0.50398 -0.33305,0.54491 -0.14336,0.0476 -0.29396,0.0724 -0.44119,0.098 0.002,0.15693 -0.003,0.31688 0.002,0.47202 1.16937,-0.0136 2.34116,0.0335 3.50874,-0.0442 0.83635,-0.0599 1.57714,-0.66004 1.85817,-1.44473 0.29842,-0.79546 0.31668,-1.67874 0.16868,-2.50851 -0.14889,-0.74964 -0.6236,-1.47954 -1.37026,-1.73366 -0.14797,-0.0569 -0.30164,-0.0964 -0.45503,-0.13536 0.60282,-0.25105 1.08781,-0.76081 1.29415,-1.38399 0.20708,-0.59645 0.20837,-1.25019 0.12457,-1.86989 -0.0845,-0.51932 -0.30798,-1.04175 -0.75261,-1.3484 -0.54119,-0.38802 -1.24417,-0.30419 -1.87289,-0.33384 -0.835,-0.004 -1.67288,-0.007 -2.5061,-9.9e-4 z m 2.54936,0.54752 c 0.35974,-0.0145 0.76856,0.0547 0.97233,0.38786 0.35698,0.5802 0.35721,1.30357 0.34202,1.96618 -0.0399,0.60018 -0.0807,1.28867 -0.53665,1.7311 -0.30771,0.26893 -0.74788,0.21845 -1.12804,0.21692 -0.11274,-0.0168 -0.0222,-0.18667 -0.0542,-0.25945 -0.008,-1.34868 0.003,-2.69738 0.005,-4.04607 0.13294,9.9e-4 0.26587,0.002 0.3988,0.003 z m 0.0182,4.84785 c 0.32973,-0.012 0.68489,0.0364 0.92043,0.29067 0.40311,0.35648 0.53311,0.91489 0.61766,1.42649 0.0426,0.60819 0.0689,1.22858 -0.0388,1.83108 -0.10465,0.51806 -0.34642,1.12308 -0.91017,1.26314 -0.32073,0.10255 -0.73497,-0.004 -0.85014,-0.34786 -0.21169,-0.4632 -0.12307,-0.9881 -0.15335,-1.48125 -0.0104,-0.99783 -0.014,-1.9957 -0.0208,-2.99356 0.14505,0.004 0.29009,0.008 0.43514,0.0113 z"
             id="path3169"
             inkscape:connector-curvature="0" />
        </g>
      </g>
    </g>
  </g>
</svg>
