<?xml version="1.0" encoding="UTF-8" standalone="no"?>
<!-- Created with Inkscape (http://www.inkscape.org/) -->

<svg
   xmlns:dc="http://purl.org/dc/elements/1.1/"
   xmlns:cc="http://creativecommons.org/ns#"
   xmlns:rdf="http://www.w3.org/1999/02/22-rdf-syntax-ns#"
   xmlns:svg="http://www.w3.org/2000/svg"
   xmlns="http://www.w3.org/2000/svg"
   xmlns:xlink="http://www.w3.org/1999/xlink"
   xmlns:sodipodi="http://sodipodi.sourceforge.net/DTD/sodipodi-0.dtd"
   xmlns:inkscape="http://www.inkscape.org/namespaces/inkscape"
   width="77.201485"
   height="77.58036"
   id="svg3760"
   version="1.1"
   inkscape:version="0.48.1 "
   sodipodi:docname="DARK-SP.svg">
  <defs
     id="defs3762">
    <linearGradient
       id="linearGradient3795">
      <stop
         id="stop3797"
         offset="0"
         style="stop-color:#1c2224;stop-opacity:1" />
      <stop
         style="stop-color:#2a2723;stop-opacity:1"
         offset="0.63092703"
         id="stop3799" />
      <stop
         id="stop3801"
         offset="1"
         style="stop-color:#e6282e;stop-opacity:1" />
    </linearGradient>
    <linearGradient
       id="linearGradient3432">
      <stop
         style="stop-color:#7260a4;stop-opacity:1;"
         offset="0"
         id="stop3434" />
      <stop
         id="stop3793"
         offset="0.5"
         style="stop-color:#8d4b99;stop-opacity:1;" />
      <stop
         style="stop-color:#a8378f;stop-opacity:1"
         offset="1"
         id="stop3436" />
    </linearGradient>
    <linearGradient
       id="linearGradient3418">
      <stop
         id="stop3420"
         offset="0"
         style="stop-color:#d23388;stop-opacity:1" />
      <stop
         style="stop-color:#ef2e43;stop-opacity:1"
         offset="0.29348826"
         id="stop3422" />
      <stop
         id="stop3430"
         offset="0.68986225"
         style="stop-color:#e5282c;stop-opacity:1" />
      <stop
         id="stop3424"
         offset="1"
         style="stop-color:#602b33;stop-opacity:1" />
    </linearGradient>
    <linearGradient
       id="linearGradient3410">
      <stop
         style="stop-color:#808080;stop-opacity:1;"
         offset="0"
         id="stop3412" />
      <stop
         id="stop3426"
         offset="0.5"
         style="stop-color:#808080;stop-opacity:0.49803922;" />
      <stop
         style="stop-color:#808080;stop-opacity:0.24705882;"
         offset="0.75"
         id="stop3428" />
      <stop
         style="stop-color:#808080;stop-opacity:0;"
         offset="1"
         id="stop3414" />
    </linearGradient>
    <linearGradient
       id="linearGradient3177">
      <stop
         id="stop3179"
         offset="0"
         style="stop-color:#800000;stop-opacity:1" />
      <stop
         style="stop-color:#d69c45;stop-opacity:1"
         offset="0.21338069"
         id="stop3181" />
      <stop
         id="stop3183"
         offset="1"
         style="stop-color:#e5ff6a;stop-opacity:1" />
    </linearGradient>
    <linearGradient
       id="linearGradient4306">
      <stop
         id="stop4308"
         offset="0"
         style="stop-color:#9f863f;stop-opacity:1" />
      <stop
         style="stop-color:#332815;stop-opacity:1"
         offset="1"
         id="stop4310" />
      <stop
         id="stop4312"
         offset="1"
         style="stop-color:#e9e560;stop-opacity:1" />
    </linearGradient>
    <linearGradient
       id="linearGradient4296">
      <stop
         id="stop4298"
         offset="0"
         style="stop-color:#f0bf7a;stop-opacity:0.91071427;" />
      <stop
         style="stop-color:#f0bf7a;stop-opacity:0.45490196;"
         offset="0.64173013"
         id="stop4300" />
      <stop
         id="stop4302"
         offset="1"
         style="stop-color:#f0bf7a;stop-opacity:0;" />
    </linearGradient>
    <linearGradient
       id="linearGradient4230">
      <stop
         style="stop-color:#f0bf7a;stop-opacity:0.91071427;"
         offset="0"
         id="stop4232" />
      <stop
         id="stop4292"
         offset="0.5"
         style="stop-color:#f0bf7a;stop-opacity:0.45490196;" />
      <stop
         style="stop-color:#f0bf7a;stop-opacity:0;"
         offset="1"
         id="stop4234" />
    </linearGradient>
    <linearGradient
       id="linearGradient3111">
      <stop
         style="stop-color:#f3c87d;stop-opacity:0.7589286;"
         offset="0"
         id="stop3113" />
      <stop
         id="stop3119"
         offset="0.91352373"
         style="stop-color:#d69c45;stop-opacity:1" />
      <stop
         style="stop-color:#e5ff6a;stop-opacity:1"
         offset="1"
         id="stop3115" />
    </linearGradient>
    <linearGradient
       id="linearGradient3101">
      <stop
         style="stop-color:#a5864d;stop-opacity:1"
         offset="0"
         id="stop3103" />
      <stop
         id="stop4238"
         offset="0.78602821"
         style="stop-color:#332815;stop-opacity:1" />
      <stop
         style="stop-color:#1a1911;stop-opacity:1"
         offset="1"
         id="stop3105" />
    </linearGradient>
    <radialGradient
       inkscape:collect="always"
       xlink:href="#linearGradient4230"
       id="radialGradient4236"
       cx="306.59958"
       cy="555.36737"
       fx="306.59958"
       fy="555.36737"
       r="6.0054865"
       gradientTransform="matrix(0.60886416,0.50796393,-0.90996045,1.0907119,625.30825,-205.98784)"
       gradientUnits="userSpaceOnUse" />
    <radialGradient
       inkscape:collect="always"
       xlink:href="#linearGradient4306"
       id="radialGradient4304"
       cx="327.57648"
       cy="574.45367"
       fx="327.57648"
       fy="574.45367"
       r="39.671757"
       gradientTransform="matrix(-1.8589783e-6,1.0770613,-1.1551438,-2.9470962e-6,991.28513,221.58125)"
       gradientUnits="userSpaceOnUse" />
    <linearGradient
       y2="22.401928"
       x2="106.24998"
       y1="22.901928"
       x1="143.49998"
       gradientTransform="matrix(1.2113408,0,0,1.2113407,182.53634,525.19736)"
       gradientUnits="userSpaceOnUse"
       id="linearGradient6058"
       xlink:href="#linearGradient5507-3"
       inkscape:collect="always" />
    <linearGradient
       id="linearGradient5507-3">
      <stop
         style="stop-color:#ff0000;stop-opacity:1;"
         offset="0"
         id="stop5509-1" />
      <stop
         style="stop-color:#ff6600;stop-opacity:1"
         offset="1"
         id="stop5511-9" />
    </linearGradient>
    <linearGradient
       y2="22.401928"
       x2="106.24998"
       y1="22.901928"
       x1="143.49998"
       gradientTransform="matrix(1.2113408,0,0,1.2113407,182.53634,525.19736)"
       gradientUnits="userSpaceOnUse"
       id="linearGradient7449"
       xlink:href="#linearGradient5507-3"
       inkscape:collect="always" />
    <linearGradient
       id="linearGradient7451">
      <stop
         style="stop-color:#ff0000;stop-opacity:1;"
         offset="0"
         id="stop7453" />
      <stop
         style="stop-color:#ff6600;stop-opacity:1"
         offset="1"
         id="stop7455" />
    </linearGradient>
    <linearGradient
       y2="22.401928"
       x2="106.24998"
       y1="22.901928"
       x1="143.49998"
       gradientTransform="matrix(0.37606897,0,0,0.37606891,284.34192,546.05033)"
       gradientUnits="userSpaceOnUse"
       id="linearGradient7459"
       xlink:href="#linearGradient5507-3"
       inkscape:collect="always" />
    <linearGradient
       id="linearGradient3111-5">
      <stop
         style="stop-color:#ff0000;stop-opacity:1"
         offset="0"
         id="stop3113-4" />
      <stop
         id="stop3119-9"
         offset="0.91352373"
         style="stop-color:#d69c45;stop-opacity:1" />
      <stop
         style="stop-color:#e5ff6a;stop-opacity:1"
         offset="1"
         id="stop3115-5" />
    </linearGradient>
    <linearGradient
       id="linearGradient3101-4">
      <stop
         style="stop-color:#a5864d;stop-opacity:1"
         offset="0"
         id="stop3103-8" />
      <stop
         id="stop4238-2"
         offset="0.78602821"
         style="stop-color:#332815;stop-opacity:1" />
      <stop
         style="stop-color:#1a1911;stop-opacity:1"
         offset="1"
         id="stop3105-1" />
    </linearGradient>
    <linearGradient
       id="linearGradient4296-8">
      <stop
         id="stop4298-3"
         offset="0"
         style="stop-color:#f0bf7a;stop-opacity:0.91071427;" />
      <stop
         style="stop-color:#f0bf7a;stop-opacity:0.45490196;"
         offset="0.64173013"
         id="stop4300-1" />
      <stop
         id="stop4302-4"
         offset="1"
         style="stop-color:#f0bf7a;stop-opacity:0;" />
    </linearGradient>
    <linearGradient
       inkscape:collect="always"
       xlink:href="#linearGradient3418"
       id="linearGradient3416"
       x1="297.6759"
       y1="553.48169"
       x2="359.14716"
       y2="570.18866"
       gradientUnits="userSpaceOnUse" />
    <linearGradient
       inkscape:collect="always"
       xlink:href="#linearGradient3432"
       id="linearGradient3438"
       x1="301.63666"
       y1="603.81531"
       x2="324.00909"
       y2="564.27753"
       gradientUnits="userSpaceOnUse" />
    <linearGradient
       inkscape:collect="always"
       xlink:href="#linearGradient3795"
       id="linearGradient3791"
       x1="328.6752"
       y1="598.91052"
       x2="335.13403"
       y2="548.35461"
       gradientUnits="userSpaceOnUse" />
  </defs>
  <sodipodi:namedview
     id="base"
     pagecolor="#ffffff"
     bordercolor="#666666"
     borderopacity="1.0"
     inkscape:pageopacity="0.0"
     inkscape:pageshadow="2"
     inkscape:zoom="3.3163066"
     inkscape:cx="40.88118"
     inkscape:cy="57.215992"
     inkscape:document-units="px"
     inkscape:current-layer="layer1"
     showgrid="false"
     fit-margin-top="0.2"
     fit-margin-left="0.2"
     fit-margin-right="0.2"
     fit-margin-bottom="0.2"
     inkscape:window-width="1280"
     inkscape:window-height="780"
     inkscape:window-x="-8"
     inkscape:window-y="-8"
     inkscape:window-maximized="1"
     inkscape:snap-global="true"
     showguides="true"
     inkscape:guide-bbox="true" />
  <metadata
     id="metadata3765">
    <rdf:RDF>
      <cc:Work
         rdf:about="">
        <dc:format>image/svg+xml</dc:format>
        <dc:type
           rdf:resource="http://purl.org/dc/dcmitype/StillImage" />
        <dc:title />
      </cc:Work>
    </rdf:RDF>
  </metadata>
  <g
     inkscape:label="Layer 1"
     inkscape:groupmode="layer"
     id="layer1"
     transform="translate(-288.81189,-535.37263)">
    <g
       id="g3070">
      <g
         transform="matrix(0.96766596,0,0,0.94944363,10.181651,28.771222)"
         id="g4793">
        <text
           transform="scale(0.99053965,1.0095507)"
           sodipodi:linespacing="125%"
           id="text5503"
           y="555.13312"
           x="319.97443"
           style="font-size:15.04275513px;font-style:normal;font-weight:normal;line-height:125%;letter-spacing:0px;word-spacing:0px;fill:url(#linearGradient7459);fill-opacity:1;stroke:none;font-family:StoneSerITCStd Medium;-inkscape-font-specification:StoneSerITCStd Medium"
           xml:space="preserve"><tspan
             style="font-size:2.25641346px;fill:url(#linearGradient7459);fill-opacity:1"
             y="555.13312"
             x="319.97443"
             id="tspan5505"
             sodipodi:role="line">Created by Falzar FZ</tspan></text>
        <g
           style="display:inline"
           id="g3021"
           transform="translate(0.00547206,0.0258127)">
          <path
             inkscape:connector-curvature="0"
             id="path3048"
             d="m 325.12487,533.76805 c -12.04619,0.12786 -23.83129,6.47825 -30.10708,16.8382 -9.98334,15.47574 -9.2208,37.5796 3.10803,51.55872 7.91058,8.9416 20.14109,13.52621 31.99522,12.68526 12.96871,-0.25474 25.57911,-7.74217 31.66968,-19.25774 5.39871,-9.43832 6.92244,-20.84042 4.7256,-31.45827 -2.298,-13.99137 -13.54381,-26.2257 -27.38604,-29.44165 -4.60618,-0.8471 -9.33291,-0.96193 -14.00541,-0.92452 z"
             style="fill:url(#linearGradient3416);fill-opacity:1;stroke:none" />
          <g
             style="fill:#ffffff;fill-opacity:1"
             transform="translate(-85.682227,0.42272594)"
             id="g4771" />
          <path
             sodipodi:nodetypes="ccccc"
             inkscape:connector-curvature="0"
             id="path3048-3-1"
             d="m 313.77433,554.36015 c -16.09525,1.91834 -22.00562,49.43006 23.19335,43.55164 18.17503,-11.0868 26.88882,-21.81763 25.25395,-29.59012 -4.28871,-9.28069 -6.36597,-6.81399 -12.19801,-3.9823 -22.7935,5.71562 -22.42028,-12.56551 -36.24929,-9.97922 z"
             style="fill:url(#linearGradient3791);fill-opacity:1;stroke:none" />
          <path
             sodipodi:nodetypes="ccssscccccccc"
             inkscape:connector-curvature="0"
             id="path3048-3"
             d="m 319.25832,534.42259 c -17.1721,2.74453 -27.47255,16.64483 -30.52308,32.75312 -2.26633,13.24516 2.11531,28.84901 11.0273,36.73852 7.14713,6.32713 11.97183,10.97739 31.22638,11.13688 12.89226,0.10679 25.58694,-8.765 32.11536,-20.28954 6.64365,-11.7279 4.06281,-28.09614 3.09577,-32.22298 -2.69983,4.70986 -7.44527,9.41562 -18.39552,9.37863 -7.7157,0.7474 -9.21291,3.73285 -0.53087,8.98006 -6.73148,4.93847 -7.36609,6.57008 -10.86213,7.46593 -2.14967,-2.65959 -6.84292,-8.09326 -10.31532,-7.86934 -2.84444,17.35613 -10.7591,12.69319 -15.17995,6.49425 -9.81332,-15.53051 -11.50843,-17.57165 -11.65137,-25.45428 1.57491,-14.02577 5.3228,-21.8361 19.99343,-27.11125 z"
             style="fill:url(#linearGradient3438);fill-opacity:1;stroke:none" />
        </g>
        <g
           style="fill:#fff9f9;fill-opacity:1"
           transform="translate(-94.119757,-0.39350569)"
           id="g3783">
          <path
             id="path3452"
             style="fill:#fff9f9;fill-opacity:1;stroke:none"
             d="m 413.01766,587.4904 c 0,0 -0.55161,1.94613 -0.008,2.97743 -0.005,1.98581 -0.0191,6.96001 -0.0245,8.93742 -0.77264,1.29516 -0.008,2.92702 -0.008,2.92702 l 18.68984,-0.006 c 0,0 0.76573,-1.32511 0.0358,-3.01444 0.0237,-1.9919 0.0828,-6.96675 0.10623,-8.93693 0.60471,-1.0486 0.0343,-2.8842 0.0343,-2.8842 z m 15.35787,2.97189 -0.0174,2.97044 -11.5988,-0.013 -0.0618,-2.92409 z m 0.005,5.95467 -0.0476,2.93962 -11.57866,0.009 -0.0583,-2.96932 z m -7.53731,-22.78955 c -0.008,1.02184 0.72561,2.91431 0.72561,2.91431 0,0 -8.81406,0.0127 -11.01918,0.0759 -0.84154,0.86957 -0.89045,1.6531 0.53266,2.46141 1.25664,-0.42279 3.63252,-0.54071 5.33748,-0.19547 0.26111,0.60596 0.3644,3.63656 0.3644,3.63656 0,0 -7.91714,0.078 -9.13135,0.5929 -2.17006,0.52322 -4.44581,3.53322 -0.0191,3.34867 3.51001,-1.42106 8.7536,-1.29677 14.68306,-1.32488 5.264,-0.025 11.49373,1.10179 15.68613,1.88855 2.27251,-0.77132 2.78907,-2.76731 2.5534,-4.46209 -1.82129,0.0865 -11.70182,-0.21869 -11.70182,-0.21869 0,0 0.20182,-2.27389 0.63401,-3.71781 1.99455,0.0897 4.80944,0.11071 5.69293,-0.34803 0.54582,-0.97375 0.53097,-1.75842 -0.37434,-1.98571 -1.18734,-0.35781 -10.56927,0.17858 -10.56927,0.17858 0,0 -0.39518,-1.38603 -0.72864,-2.52776 -0.5456,-1.86801 -2.65118,-2.13138 -2.66595,-0.31641 z m 5.60505,4.96067 -0.47222,3.96696 -6.95092,-0.0165 -0.39457,-3.91962 z m 0.84294,-21.70474 c 0,0 -0.8205,1.34369 0.026,2.81971 0.0226,2.44416 0.10944,11.84527 0.10944,11.84527 0,0 2.14876,1.45528 4.79874,0.11477 4.01165,0.0272 11.64336,0.0616 11.64336,0.0616 0,0 0.0227,20.79949 0.10443,28.88613 -0.0131,2.48672 3.79959,2.5133 3.75503,0.24226 0.1006,-8.81765 0.0533,-43.93432 0.0533,-43.93432 0,0 -1.43709,-0.95336 -3.13266,-0.082 -2.85262,-0.007 -11.2583,0.0172 -14.12434,0.01 -2.04531,-0.74834 -3.23338,0.0373 -3.23338,0.0373 z m 16.63677,2.03986 -0.0225,3.83293 -13.54429,-0.0476 -0.051,-3.88821 z m -0.024,6.8507 -0.0921,3.90999 -13.40089,-0.0439 -0.09,-3.90559 z m -46.71643,-9.01033 c 0,0 0.24357,29.05173 -0.20401,33.21297 -1.82121,4.43875 -3.87873,6.38363 -4.95587,7.10878 -0.76282,1.12863 0.79281,2.49473 2.81122,3.78774 9.73281,3.21699 6.79265,-28.19443 6.79265,-28.19443 l 16.98372,0.0111 c 0,0 0.0473,-10.66655 0.0591,-13.31582 0.87955,-1.53213 0.0115,-2.57983 0.0115,-2.57983 0,0 -1.25819,-1.11691 -2.82517,-0.004 -2.98278,-0.004 -11.95931,-0.017 -15.0715,-0.0214 -2.29011,-1.30775 -3.60164,-0.005 -3.60164,-0.005 z m 18.47387,6.86575 -14.47058,-0.0129 -0.006,-4.70674 14.57497,0.0916 z m 0.0457,6.98211 -14.48963,0.13086 0.003,-4.99066 14.56805,0.0267 z"
             inkscape:connector-curvature="0"
             sodipodi:nodetypes="cccccccccccccccccccccccccccscccccccsccccccccccccccccccccccccccccccccccccccccccccccccccc" />
        </g>
      </g>
      <g
         transform="matrix(1.0205455,0,0,1.0205455,34.494134,-27.662796)"
         style="fill:#fff9f9;fill-opacity:1"
         id="g3156">
        <path
           style="fill:#fff9f9;fill-opacity:1;stroke:none"
           d="m 267.2087,558.27057 c -0.99394,0.0607 -1.69499,0.93549 -2.07044,1.78307 -0.67599,1.51433 -0.75695,3.22633 -0.55774,4.85365 0.19888,1.13698 0.55456,2.36663 1.49204,3.11668 0.41042,0.30393 0.96672,0.46256 1.45827,0.2593 1.00172,-0.33188 1.55062,-1.34461 1.88952,-2.27651 0.5002,-1.49383 0.52359,-3.11956 0.27039,-4.66384 -0.2372,-1.06003 -0.64448,-2.22061 -1.60254,-2.83443 -0.26239,-0.15901 -0.57053,-0.25266 -0.8795,-0.23792 z m -0.13367,0.56406 c 0.60763,0.0118 0.92576,0.64262 1.12144,1.13614 0.57338,1.5564 0.53688,3.25718 0.44817,4.89183 -0.082,0.92831 -0.22812,1.93876 -0.83847,2.67216 -0.31775,0.39091 -0.98642,0.31298 -1.2444,-0.11495 -0.57501,-0.83876 -0.7117,-1.89368 -0.835,-2.88532 -0.11505,-1.35937 -0.14743,-2.75007 0.14082,-4.09065 0.15974,-0.59161 0.38012,-1.33103 1.00428,-1.57579 0.0638,-0.0213 0.13398,-0.0304 0.20316,-0.0334 z"
           id="path3096"
           inkscape:connector-curvature="0" />
        <path
           style="fill:#fff9f9;fill-opacity:1;stroke:none"
           d="m 272.28389,558.28126 c -0.53226,-0.0399 -1.02812,0.23456 -1.32935,0.66476 -0.53996,0.71356 -0.51717,1.68267 -0.39694,2.52757 0.31777,1.5406 1.8317,2.51459 2.1246,4.06424 0.0886,0.72521 0.0597,1.59399 -0.50926,2.12391 -0.29951,0.24196 -0.75539,0.13493 -0.95569,-0.18445 -0.41946,-0.52522 -0.45176,-1.23501 -0.58277,-1.86728 -0.0838,-0.0874 -0.29569,-0.0551 -0.22188,0.10827 0.0272,0.69737 -0.0565,1.40663 0.0468,2.09717 0.12044,0.29718 0.51488,0.33948 0.77926,0.45045 0.68645,0.24238 1.52801,0.0725 1.98757,-0.5106 0.49439,-0.58515 0.67009,-1.36943 0.62153,-2.12257 0.0409,-0.56883 -0.0622,-1.13511 -0.30876,-1.6494 -0.47249,-1.09356 -1.38,-1.93271 -1.82049,-3.03816 -0.17625,-0.604 -0.1694,-1.32253 0.16307,-1.86861 0.18129,-0.31472 0.642,-0.31474 0.85544,-0.0307 0.36494,0.43189 0.37279,1.03416 0.5547,1.54514 0.0689,0.10457 0.21715,0.0382 0.1858,-0.0842 0.006,-0.63194 0.0474,-1.27294 -0.0227,-1.90069 -0.17253,-0.31573 -0.61858,-0.28445 -0.92895,-0.32212 -0.0806,-0.002 -0.16131,-0.006 -0.24193,-0.003 z"
           id="path3098"
           inkscape:connector-curvature="0" />
        <path
           style="fill:#fff9f9;fill-opacity:1;stroke:none"
           d="m 277.32031,558.26923 c -0.98458,0.0308 -1.80629,0.76323 -2.18272,1.63604 -0.77802,1.71301 -0.84895,3.69132 -0.47584,5.51895 0.23645,1.07819 0.71522,2.26077 1.77237,2.76014 0.83439,0.39444 1.84543,0.1037 2.54495,-0.42772 0.23077,-0.26 0.14484,-0.65641 0.22645,-0.97549 0.0222,-0.39238 0.12511,-0.79342 0.12241,-1.18049 -0.10071,-0.086 -0.27263,-0.007 -0.24594,0.13366 -0.22335,0.72668 -0.47009,1.59254 -1.20163,1.96084 -0.55518,0.28899 -1.20943,-0.0629 -1.50405,-0.56444 -0.58295,-0.96023 -0.68645,-2.11159 -0.76193,-3.21142 -0.0361,-1.37262 0.007,-2.80295 0.5556,-4.08095 0.23044,-0.56089 0.74649,-1.11967 1.40696,-1.00639 0.74545,0.15957 1.09578,0.96312 1.23104,1.64004 0.0771,0.18588 -0.009,0.45689 0.14703,0.59748 0.27175,0.0951 0.1681,-0.23475 0.18051,-0.39828 -0.0411,-0.56853 0.0581,-1.16362 -0.10699,-1.71494 -0.2729,-0.36728 -0.74401,-0.54797 -1.17891,-0.6496 -0.17421,-0.0326 -0.35217,-0.0473 -0.52931,-0.0374 z"
           id="path3100"
           inkscape:connector-curvature="0" />
        <path
           style="fill:#fff9f9;fill-opacity:1;stroke:none"
           d="m 279.73159,558.44834 c 0.0181,0.16498 -0.0397,0.46905 0.21787,0.45713 0.38487,0.043 0.41131,0.50974 0.40367,0.81535 0.0599,1.98968 -0.0287,3.98281 0.0815,5.97073 0.0991,0.88078 0.30848,1.88933 1.08,2.42865 0.76021,0.5121 1.90158,0.20866 2.32039,-0.60282 0.49972,-0.86031 0.61983,-1.87086 0.6142,-2.84967 0.0502,-1.75264 -0.002,-3.50897 0.0889,-5.25967 0.0229,-0.28961 0.26074,-0.48865 0.53198,-0.54935 0.0896,-0.1165 0.0567,-0.30841 0.0334,-0.43173 -0.5742,0.0134 -1.17057,-0.0268 -1.73093,0.02 0.008,0.15211 -0.0657,0.43846 0.17376,0.44108 0.36608,0.085 0.50687,0.47325 0.47626,0.81264 0.0243,1.81821 0.0617,3.63854 -0.004,5.45616 -0.0601,0.64357 -0.13888,1.3315 -0.51193,1.87663 -0.30491,0.46387 -1.01106,0.58871 -1.42351,0.19916 -0.5965,-0.55118 -0.58844,-1.44467 -0.60769,-2.20272 -0.0201,-1.8874 -0.0621,-3.77651 -0.0152,-5.66335 -0.009,-0.24936 0.17966,-0.45191 0.42237,-0.47451 0.22582,0.0179 0.22545,-0.22259 0.20451,-0.38227 -0.0932,-0.18837 -0.49269,-0.0313 -0.70441,-0.0829 -0.54674,0.0142 -1.11974,-0.0288 -1.65074,0.0214 z"
           id="path3102"
           inkscape:connector-curvature="0" />
        <path
           style="fill:#fff9f9;fill-opacity:1;stroke:none"
           d="m 285.59673,558.443 c 0.0145,0.1563 -0.0688,0.47101 0.19178,0.45946 0.16436,0.0279 0.37757,0.071 0.36827,0.28504 0.11293,1.20792 0.0466,2.4262 0.0712,3.63831 -0.007,1.50033 0.0338,3.00294 -0.0338,4.50177 -0.0211,0.29153 -0.31381,0.42997 -0.58143,0.43173 -0.0587,0.25671 -0.0562,0.57975 0.30341,0.45981 0.67401,-0.0134 1.37018,0.0267 2.03035,-0.02 -0.0164,-0.19388 0.093,-0.51802 -0.21119,-0.47184 -0.30165,-0.0392 -0.45082,-0.35999 -0.40767,-0.64559 -0.0335,-1.06135 -0.0175,-2.12348 -0.0227,-3.18519 0.21555,0.0533 0.5942,-0.1061 0.59342,0.22809 0.41267,1.27146 0.77244,2.56392 1.24846,3.81255 0.0951,0.22671 0.33146,0.29878 0.56268,0.27584 0.25087,-0.002 0.52387,0.0316 0.76059,-0.0139 0.002,-0.43929 -0.33428,-0.78915 -0.47345,-1.19114 -0.45291,-1.10841 -0.87741,-2.23402 -1.27754,-3.36009 0.37702,-0.39188 0.73348,-0.82163 0.87355,-1.36142 0.26441,-0.93122 0.26792,-1.9634 -0.0585,-2.87783 -0.17597,-0.46529 -0.58086,-0.868 -1.07307,-0.96103 -0.94811,-0.009 -1.89623,-0.0171 -2.84435,-0.0246 l -0.02,0.0201 z m 2.04505,0.53732 c 0.35166,-0.0621 0.67686,0.15941 0.80331,0.47852 0.31579,0.80264 0.23239,1.69954 0.16975,2.5436 -0.0709,0.46531 -0.14209,1.08089 -0.6242,1.30322 -0.22031,0.0567 -0.45807,0.0357 -0.6857,0.0401 0,-1.45515 0,-2.91029 0,-4.36544 0.11228,0 0.22456,0 0.33684,0 z"
           id="path3104"
           inkscape:connector-curvature="0" />
        <path
           style="fill:#fff9f9;fill-opacity:1;stroke:none"
           d="m 290.72405,558.44834 c 0.0248,0.15373 -0.0457,0.45881 0.20049,0.44911 0.3014,0.003 0.4499,0.31205 0.4132,0.58139 0.0404,2.58948 0.0516,5.18049 -1.3e-4,7.7698 0.0171,0.32237 -0.29472,0.52202 -0.59084,0.51335 -0.0622,0.25454 -0.0558,0.5774 0.30208,0.45713 0.674,-0.0134 1.37018,0.0267 2.03034,-0.02 -0.003,-0.21619 0.0773,-0.51751 -0.23926,-0.47451 -0.35885,-0.0648 -0.419,-0.49662 -0.38777,-0.79929 -0.0111,-2.52698 -0.0244,-5.055 0.0349,-7.58138 -0.0476,-0.29206 0.25082,-0.44065 0.49456,-0.46649 0.13956,-0.0859 0.0897,-0.326 0.0829,-0.45044 -0.77347,0 -1.54693,0 -2.32039,0 l -0.02,0.0214 z"
           id="path3106"
           inkscape:connector-curvature="0" />
        <path
           style="fill:#fff9f9;fill-opacity:1;stroke:none"
           d="m 293.58978,558.44834 c 0.0248,0.15373 -0.0457,0.45881 0.2005,0.44911 0.23954,0.0191 0.47119,0.22336 0.40232,0.4852 0.0252,2.62578 0.044,5.25263 -0.005,7.8781 0.0428,0.24674 -0.15089,0.44951 -0.3903,0.4598 -0.21307,-0.0194 -0.22512,0.20242 -0.20183,0.35688 -0.0153,0.29867 0.45988,0.0784 0.66159,0.14091 0.75259,-0.0324 1.51604,0.0343 2.26162,-0.0794 1.19056,-0.33269 1.89328,-1.50406 2.18419,-2.63578 0.39777,-1.56195 0.42269,-3.24417 10e-4,-4.80391 -0.26522,-0.9602 -0.88082,-1.9775 -1.91405,-2.21613 -1.05493,-0.10084 -2.12069,-0.0373 -3.17985,-0.0561 l -0.02,0.0214 z m 2.17871,0.49723 c 0.64682,-0.049 1.24569,0.3593 1.50505,0.93698 0.53511,1.13005 0.59897,2.41842 0.58652,3.65164 -0.0556,1.19138 -0.15399,2.45217 -0.79236,3.48329 -0.29785,0.48429 -0.89922,0.78114 -1.45693,0.6055 -0.3524,-0.1695 -0.24079,-0.64352 -0.27522,-0.96101 -0.0318,-2.57777 -0.0222,-5.15587 -0.0349,-7.73378 0.15594,0.006 0.31188,0.0116 0.46782,0.0174 z"
           id="path3108"
           inkscape:connector-curvature="0" />
        <path
           style="fill:#fff9f9;fill-opacity:1;stroke:none"
           d="m 301.86754,558.26255 c -0.14431,0.0273 -0.062,0.28031 -0.12832,0.38228 -0.54735,2.69147 -1.07167,5.39306 -1.65246,8.07444 -0.11619,0.39045 -0.2285,0.87554 -0.63585,1.05207 -0.0693,0.13133 -0.0436,0.31763 -0.0187,0.44778 0.4742,-0.0139 0.97116,0.0272 1.43153,-0.02 0.009,-0.1922 0.0415,-0.45353 -0.18713,-0.52797 -0.29901,-0.25919 -0.14294,-0.7176 -0.12027,-1.05675 0.0786,-0.49823 0.1804,-0.99905 0.26596,-1.49221 0.59159,-0.0382 1.18537,-0.005 1.77772,-0.004 0.10875,0.73214 0.32249,1.45531 0.3502,2.19609 0.007,0.21682 -0.12705,0.38542 -0.33282,0.43574 -0.14279,0.0983 -0.0761,0.3378 -0.0628,0.46916 0.68826,-0.0134 1.39869,0.0267 2.07311,-0.02 2.9e-4,-0.18543 0.0564,-0.46253 -0.18846,-0.51728 -0.41773,-0.3953 -0.46009,-1.03319 -0.58865,-1.56848 -0.51886,-2.6038 -1.01038,-5.21296 -1.51254,-7.82002 -0.14128,-0.0404 -0.31835,-0.0282 -0.47049,-0.0307 z m -0.0962,2.18406 c 0.23807,1.31771 0.48133,2.64875 0.67366,3.9738 -0.38495,0.0831 -0.81572,0.0166 -1.21632,0.0342 -0.33191,0.0903 -0.2717,-0.15117 -0.20279,-0.3843 0.2454,-1.2048 0.48035,-2.44169 0.74545,-3.62372 z"
           id="path3110"
           inkscape:connector-curvature="0" />
        <path
           style="fill:#fff9f9;fill-opacity:1;stroke:none"
           d="m 304.96719,558.44834 c 0.0181,0.16498 -0.0397,0.46905 0.21787,0.45713 0.3757,0.0351 0.40377,0.49103 0.40384,0.78589 0.0308,2.47785 0.026,4.95673 -0.0136,7.43439 0.0208,0.25057 -0.0809,0.54815 -0.36623,0.5801 -0.31284,-0.0566 -0.29267,0.40907 -0.17377,0.51322 0.94701,-0.0311 1.90891,0.0715 2.84569,-0.0949 1.03436,-0.25733 1.71057,-1.20852 2.03164,-2.17479 0.49684,-1.27041 0.44442,-2.65972 0.39702,-3.99911 -0.12428,-1.09716 -0.44896,-2.27268 -1.30188,-3.03282 -0.41124,-0.36935 -0.96887,-0.50921 -1.51306,-0.47851 -0.83571,-0.0184 -1.67169,-0.0102 -2.50752,-0.012 l -0.02,0.0214 z m 2.21212,0.49589 c 0.65107,-0.0455 1.19967,0.42482 1.47042,0.98405 0.64409,1.32213 0.54938,2.83839 0.52253,4.27016 -0.0471,0.96728 -0.23816,1.96904 -0.74053,2.803 -0.24474,0.42603 -0.70995,0.70548 -1.20831,0.66164 -0.20644,0.0317 -0.44012,-0.0552 -0.46381,-0.28738 -0.16416,-1.02719 -0.0914,-2.08414 -0.11495,-3.12371 -1.4e-4,-1.76436 0.0102,-3.5287 0.0147,-5.29305 0.17331,-0.005 0.34656,-0.014 0.51995,-0.0147 z"
           id="path3112"
           inkscape:connector-curvature="0" />
      </g>
    </g>
  </g>
</svg>
